{"glyphs":{"0":{"ha":633,"x_min":48,"x_max":578,"o":"m 313 998 q 505 885 431 998 q 578 490 578 772 q 505 96 578 209 q 313 -17 431 -17 q 121 95 195 -17 q 48 492 48 207 q 121 885 48 772 q 313 998 195 998 m 313 840 q 239 779 267 840 q 212 490 212 718 q 239 202 212 262 q 313 141 267 141 q 387 202 359 141 q 414 490 414 263 q 387 779 414 718 q 313 840 359 840 z "},"1":{"ha":633,"x_min":90,"x_max":448,"o":"m 448 0 l 292 0 l 292 718 q 90 574 205 620 l 90 747 q 225 841 155 773 q 322 998 295 909 l 448 998 l 448 0 z "},"2":{"ha":633,"x_min":28,"x_max":576,"o":"m 576 177 l 576 0 l 28 0 q 82 191 37 100 q 258 429 127 281 q 385 587 361 546 q 420 709 420 648 q 391 807 420 774 q 314 840 361 840 q 202 685 210 840 l 47 704 q 131 927 61 856 q 318 998 201 998 q 511 915 446 998 q 576 724 576 831 q 560 605 576 663 q 509 490 543 548 q 393 342 474 432 q 298 230 318 257 q 266 177 278 203 l 576 177 z "},"3":{"ha":633,"x_min":43,"x_max":585,"o":"m 43 264 l 194 286 q 233 178 200 216 q 309 141 265 141 q 391 185 357 141 q 424 307 424 229 q 392 421 424 380 q 315 463 360 463 q 243 448 285 463 l 260 604 q 356 636 321 602 q 391 732 391 670 q 366 812 391 783 q 301 842 340 842 q 233 808 262 842 q 199 709 204 774 l 54 739 q 142 937 77 875 q 306 998 207 998 q 483 919 417 998 q 548 743 548 840 q 518 626 548 678 q 430 534 489 574 q 542 454 498 516 q 585 298 585 391 q 504 72 585 161 q 311 -17 422 -17 q 129 58 203 -17 q 43 264 55 134 z "},"4":{"ha":633,"x_min":21,"x_max":607,"o":"m 355 0 l 355 200 l 21 200 l 21 367 l 374 998 l 506 998 l 506 368 l 607 368 l 607 200 l 506 200 l 506 0 l 355 0 m 355 368 l 355 707 l 168 368 l 355 368 z "},"5":{"ha":633,"x_min":51,"x_max":599,"o":"m 51 256 l 207 275 q 247 173 213 210 q 321 136 281 136 q 404 183 370 136 q 439 330 439 231 q 405 469 439 424 q 317 513 370 513 q 197 441 250 513 l 70 463 l 150 981 l 563 981 l 563 802 l 269 802 l 243 633 q 351 665 296 665 q 514 589 447 665 q 599 334 599 492 q 527 93 599 203 q 320 -17 454 -17 q 139 54 212 -17 q 51 256 66 125 z "},"6":{"ha":633,"x_min":49,"x_max":593,"o":"m 578 751 l 427 730 q 338 842 416 842 q 253 786 287 842 q 211 562 220 730 q 276 625 240 604 q 355 646 312 646 q 522 556 451 646 q 593 319 593 467 q 518 73 593 162 q 332 -17 443 -17 q 129 99 210 -17 q 49 485 49 216 q 132 878 49 758 q 347 998 216 998 q 499 937 437 998 q 578 751 561 876 m 224 335 q 259 191 224 241 q 339 141 294 141 q 411 182 382 141 q 440 318 440 224 q 409 460 440 416 q 332 505 378 505 q 256 463 287 505 q 224 335 224 420 z "},"7":{"ha":633,"x_min":48,"x_max":583,"o":"m 48 804 l 48 981 l 583 981 l 583 842 q 449 617 517 763 q 345 303 382 471 q 308 0 308 136 l 157 0 q 228 422 163 212 q 404 804 293 633 l 48 804 z "},"8":{"ha":633,"x_min":47,"x_max":583,"o":"m 183 536 q 96 618 125 566 q 67 742 67 669 q 134 929 67 859 q 313 998 200 998 q 494 924 432 998 q 557 743 557 850 q 527 617 557 671 q 444 536 496 564 q 549 441 514 503 q 583 290 583 380 q 549 127 583 198 q 454 20 515 57 q 319 -18 394 -18 q 124 64 201 -18 q 47 284 47 146 q 82 438 47 374 q 183 536 117 503 m 215 728 q 242 639 215 670 q 312 608 270 608 q 382 639 355 608 q 410 728 410 670 q 383 816 410 785 q 314 847 355 847 q 243 815 271 847 q 215 728 215 784 m 201 302 q 235 179 201 222 q 316 136 269 136 q 396 177 363 136 q 428 301 428 218 q 395 414 428 372 q 314 455 362 455 q 234 413 267 455 q 201 302 201 372 z "},"9":{"ha":633,"x_min":36,"x_max":581,"o":"m 52 230 l 203 250 q 291 140 214 140 q 376 195 343 140 q 419 419 410 250 q 353 357 390 378 q 272 336 317 336 q 107 425 179 336 q 36 661 36 513 q 111 908 36 818 q 297 998 186 998 q 500 882 420 998 q 581 496 581 766 q 497 102 581 222 q 281 -18 414 -18 q 129 43 189 -18 q 52 230 68 104 m 406 646 q 370 790 406 740 q 290 840 335 840 q 218 799 247 840 q 189 661 189 758 q 221 520 189 565 q 298 475 252 475 q 374 518 342 475 q 406 646 406 561 z "}," ":{"ha":317,"x_min":0,"x_max":0,"o":""},"!":{"ha":379,"x_min":102,"x_max":271,"o":"m 142 256 l 102 761 l 102 994 l 271 994 l 271 761 l 231 256 l 142 256 m 109 0 l 109 191 l 264 191 l 264 0 l 109 0 z "},"\"":{"ha":541,"x_min":62,"x_max":484,"o":"m 92 641 l 62 826 l 62 994 l 233 994 l 233 826 l 207 641 l 92 641 m 343 641 l 313 826 l 313 994 l 484 994 l 484 826 l 458 641 l 343 641 z "},"#":{"ha":633,"x_min":10,"x_max":621,"o":"m 85 248 l 10 248 l 10 397 l 111 397 l 144 597 l 10 597 l 10 747 l 169 747 l 212 1011 l 337 1011 l 294 747 l 416 747 l 459 1011 l 588 1011 l 543 747 l 621 747 l 621 597 l 519 597 l 485 397 l 621 397 l 621 248 l 460 248 l 416 -17 l 292 -17 l 335 248 l 212 248 l 168 -17 l 42 -17 l 85 248 m 269 597 l 236 397 l 359 397 l 392 597 l 269 597 z "},"$":{"ha":633,"x_min":39,"x_max":583,"o":"m 273 147 l 273 431 q 62 733 62 505 q 121 923 62 850 q 273 1007 180 996 l 273 1074 l 353 1074 l 353 1007 q 492 935 439 994 q 560 771 546 876 l 420 749 q 353 857 407 829 l 353 592 q 528 487 482 549 q 583 298 583 412 q 521 88 583 170 q 353 -12 458 6 l 353 -139 l 273 -139 l 273 -16 q 39 279 73 14 l 184 298 q 218 204 193 244 q 273 147 242 165 m 273 859 q 221 814 241 846 q 201 744 201 783 q 273 625 201 663 l 273 859 m 353 138 q 420 183 393 146 q 447 273 447 220 q 353 402 447 369 l 353 138 z "},"%":{"ha":1013,"x_min":50,"x_max":959,"o":"m 50 749 q 98 948 50 885 q 228 1011 147 1011 q 360 948 311 1011 q 409 749 409 885 q 360 549 409 612 q 231 486 311 486 q 99 549 148 486 q 50 749 50 612 m 172 750 q 187 625 172 655 q 228 595 203 595 q 269 625 254 595 q 285 750 285 655 q 269 875 285 845 q 229 905 254 905 q 187 875 203 905 q 172 750 172 845 m 347 -38 l 231 -38 l 666 1011 l 778 1011 l 347 -38 m 600 223 q 649 422 600 359 q 779 486 698 486 q 910 422 861 486 q 959 223 959 359 q 910 23 959 87 q 781 -40 861 -40 q 649 23 698 -40 q 600 223 600 86 m 722 224 q 737 99 722 129 q 778 69 752 69 q 819 99 804 69 q 835 224 835 129 q 819 349 835 319 q 779 378 804 378 q 737 349 752 378 q 722 224 722 319 z "},"&":{"ha":822,"x_min":50,"x_max":804,"o":"m 804 121 l 709 -26 q 576 88 640 15 q 469 7 525 32 q 339 -18 413 -18 q 121 72 192 -18 q 50 273 50 161 q 236 577 50 465 q 153 795 153 696 q 215 951 153 891 q 380 1011 277 1011 q 543 948 480 1011 q 606 785 606 886 q 574 667 606 721 q 457 547 543 613 l 570 365 q 605 478 589 407 l 746 439 q 675 234 713 294 q 743 169 701 205 q 804 121 785 133 m 379 662 l 421 701 q 468 788 468 745 q 444 852 468 827 q 385 877 420 877 q 327 855 349 877 q 305 802 305 833 q 340 716 305 766 l 379 662 m 317 455 q 238 376 265 422 q 210 279 210 330 q 244 177 210 215 q 332 140 279 140 q 477 216 402 140 l 317 455 z "},"'":{"ha":271,"x_min":51,"x_max":221,"o":"m 80 641 l 51 826 l 51 994 l 221 994 l 221 826 l 195 641 l 80 641 z "},"(":{"ha":379,"x_min":59,"x_max":342,"o":"m 340 -292 l 233 -292 q 104 31 149 -140 q 59 361 59 201 q 104 699 59 534 q 235 1011 150 863 l 342 1011 q 236 657 264 800 q 209 356 209 515 q 248 9 209 192 q 340 -292 275 -120 z "},")":{"ha":379,"x_min":37,"x_max":320,"o":"m 39 -292 q 131 5 104 -121 q 170 356 170 190 q 143 657 170 515 q 37 1011 115 800 l 144 1011 q 276 695 231 858 q 320 370 320 532 q 276 36 320 208 q 146 -292 232 -136 l 39 -292 z "},"*":{"ha":443,"x_min":16,"x_max":419,"o":"m 136 537 l 52 616 q 104 684 79 653 l 157 747 q 77 770 144 750 q 16 791 31 784 l 48 910 q 178 831 119 875 q 165 1011 165 940 l 264 1011 q 249 829 264 963 l 297 856 q 389 903 348 884 l 419 781 q 276 747 357 764 l 374 610 l 290 542 l 214 693 q 136 537 182 623 z "},"+":{"ha":665,"x_min":47,"x_max":617,"o":"m 260 143 l 260 401 l 47 401 l 47 580 l 260 580 l 260 838 l 403 838 l 403 580 l 617 580 l 617 401 l 403 401 l 403 143 l 260 143 z "},",":{"ha":317,"x_min":65,"x_max":234,"o":"m 78 191 l 234 191 l 234 54 q 207 -118 234 -62 q 96 -222 174 -188 l 65 -143 q 132 -92 111 -124 q 153 0 152 -60 l 78 0 l 78 191 z "},"-":{"ha":379,"x_min":36,"x_max":343,"o":"m 36 265 l 36 456 l 343 456 l 343 265 l 36 265 z "},".":{"ha":317,"x_min":82,"x_max":239,"o":"m 82 0 l 82 191 l 239 191 l 239 0 l 82 0 z "},"/":{"ha":317,"x_min":-1,"x_max":318,"o":"m -1 -17 l 201 1011 l 318 1011 l 114 -17 l -1 -17 z "},":":{"ha":379,"x_min":111,"x_max":268,"o":"m 111 530 l 111 720 l 268 720 l 268 530 l 111 530 m 111 0 l 111 191 l 268 191 l 268 0 l 111 0 z "},";":{"ha":379,"x_min":94,"x_max":263,"o":"m 107 530 l 107 720 l 263 720 l 263 530 l 107 530 m 107 191 l 263 191 l 263 54 q 236 -118 263 -62 q 125 -222 203 -188 l 94 -143 q 161 -91 140 -124 q 182 0 181 -58 l 107 0 l 107 191 z "},"<":{"ha":665,"x_min":53,"x_max":612,"o":"m 612 113 l 53 410 l 53 574 l 612 869 l 612 675 l 222 494 l 612 305 l 612 113 z "},"=":{"ha":665,"x_min":47,"x_max":617,"o":"m 47 553 l 47 728 l 617 728 l 617 553 l 47 553 m 47 252 l 47 428 l 617 428 l 617 252 l 47 252 z "},">":{"ha":665,"x_min":52,"x_max":612,"o":"m 52 113 l 52 304 l 443 492 l 52 677 l 52 867 l 612 572 l 612 410 l 52 113 z "},"?":{"ha":696,"x_min":59,"x_max":644,"o":"m 418 256 l 276 256 l 275 300 q 298 441 275 387 q 388 561 321 496 q 477 661 462 634 q 492 724 492 688 q 453 821 492 783 q 357 859 415 859 q 202 692 231 859 l 59 713 q 147 923 65 841 q 352 1004 229 1004 q 561 922 477 1004 q 644 718 644 840 q 615 599 644 655 q 490 446 586 543 q 428 366 440 396 q 418 256 416 335 m 276 0 l 276 191 l 433 191 l 433 0 l 276 0 z "},"@":{"ha":1111,"x_min":34,"x_max":1106,"o":"m 988 13 l 1106 13 q 922 -213 1047 -133 q 616 -292 798 -292 q 304 -220 432 -292 q 105 -7 176 -147 q 34 330 34 133 q 112 692 34 531 q 316 932 190 852 q 604 1012 443 1012 q 848 948 741 1012 q 1016 763 955 884 q 1078 489 1078 643 q 985 168 1078 312 q 709 0 877 0 q 641 18 665 0 q 608 77 617 37 q 457 0 543 0 q 305 76 368 0 q 243 283 243 152 q 291 524 243 412 q 404 685 339 635 q 545 735 469 735 q 631 712 594 735 q 691 643 667 689 l 705 718 l 851 718 l 768 232 q 760 171 760 185 q 766 147 760 155 q 781 138 772 138 q 849 176 807 138 q 941 314 905 227 q 977 495 977 401 q 928 702 977 609 q 798 841 879 794 q 602 887 717 887 q 362 822 465 887 q 198 624 260 758 q 135 318 135 490 q 194 58 135 171 q 355 -111 253 -54 q 606 -168 458 -168 q 834 -122 739 -168 q 988 13 930 -77 m 387 292 q 416 164 387 204 q 489 124 446 124 q 559 153 527 124 q 630 277 600 189 q 661 455 661 366 q 631 572 661 532 q 558 613 601 613 q 447 536 490 613 q 387 292 387 427 z "},"A":{"ha":822,"x_min":0,"x_max":818,"o":"m 818 0 l 639 0 l 568 226 l 242 226 l 175 0 l 0 0 l 317 994 l 492 994 l 818 0 m 515 393 l 403 762 l 292 393 l 515 393 z "},"B":{"ha":822,"x_min":83,"x_max":766,"o":"m 83 994 l 409 994 q 597 970 543 994 q 688 884 651 945 q 726 744 726 822 q 694 614 726 672 q 611 528 662 556 q 725 440 684 503 q 766 288 766 378 q 713 105 766 180 q 590 12 661 30 q 360 0 541 0 l 83 0 l 83 994 m 247 829 l 247 599 l 355 599 q 476 602 453 599 q 542 638 518 609 q 566 716 566 667 q 546 788 566 760 q 499 822 527 815 q 342 829 472 829 l 247 829 m 247 433 l 247 168 l 399 168 q 528 178 500 168 q 576 219 557 189 q 595 298 595 250 q 575 378 595 347 q 520 421 554 410 q 380 433 486 433 l 247 433 z "},"C":{"ha":822,"x_min":54,"x_max":764,"o":"m 605 366 l 764 304 q 640 60 727 137 q 427 -17 553 -17 q 168 106 267 -17 q 54 488 54 248 q 169 886 54 743 q 437 1011 269 1011 q 666 918 574 1011 q 762 720 732 851 l 600 673 q 537 797 584 753 q 428 840 491 840 q 281 761 338 840 q 224 501 224 682 q 279 234 224 313 q 424 155 335 155 q 536 205 489 155 q 605 366 584 256 z "},"D":{"ha":822,"x_min":82,"x_max":766,"o":"m 82 994 l 382 994 q 554 969 496 994 q 661 883 612 943 q 738 726 710 823 q 766 487 766 630 q 736 263 766 358 q 663 112 707 168 q 554 28 618 56 q 391 0 491 0 l 82 0 l 82 994 m 246 826 l 246 168 l 370 168 q 485 182 449 168 q 543 228 520 197 q 581 323 566 258 q 595 494 595 388 q 580 669 595 605 q 533 769 565 732 q 454 817 500 806 q 321 826 420 826 l 246 826 z "},"E":{"ha":760,"x_min":83,"x_max":703,"o":"m 83 0 l 83 994 l 688 994 l 688 826 l 248 826 l 248 606 l 657 606 l 657 438 l 248 438 l 248 168 l 703 168 l 703 0 l 83 0 z "},"F":{"ha":696,"x_min":84,"x_max":643,"o":"m 84 0 l 84 994 l 643 994 l 643 826 l 248 826 l 248 591 l 589 591 l 589 422 l 248 422 l 248 0 l 84 0 z "},"G":{"ha":886,"x_min":55,"x_max":817,"o":"m 463 366 l 463 533 l 817 533 l 817 137 q 665 28 764 74 q 468 -17 567 -17 q 255 42 347 -17 q 109 220 163 102 q 55 498 55 338 q 110 779 55 663 q 251 954 164 896 q 460 1011 338 1011 q 693 937 606 1011 q 806 719 781 863 l 644 682 q 576 799 625 758 q 460 840 528 840 q 290 758 355 840 q 224 509 224 676 q 295 235 224 329 q 458 155 355 155 q 558 177 507 155 q 651 239 610 200 l 651 366 l 463 366 z "},"H":{"ha":822,"x_min":83,"x_max":735,"o":"m 83 0 l 83 994 l 248 994 l 248 603 l 570 603 l 570 994 l 735 994 l 735 0 l 570 0 l 570 435 l 248 435 l 248 0 l 83 0 z "},"I":{"ha":317,"x_min":78,"x_max":242,"o":"m 78 0 l 78 994 l 242 994 l 242 0 l 78 0 z "},"J":{"ha":633,"x_min":20,"x_max":542,"o":"m 377 994 l 542 994 l 542 365 q 511 138 542 212 q 420 23 481 63 q 271 -17 359 -17 q 87 64 153 -17 q 20 307 20 144 l 175 329 q 197 205 178 241 q 277 155 224 155 q 353 191 328 155 q 377 352 377 227 l 377 994 z "},"K":{"ha":822,"x_min":85,"x_max":820,"o":"m 85 0 l 85 994 l 249 994 l 249 553 l 582 994 l 804 994 l 496 607 l 820 0 l 607 0 l 382 467 l 249 300 l 249 0 l 85 0 z "},"L":{"ha":696,"x_min":87,"x_max":661,"o":"m 87 0 l 87 986 l 252 986 l 252 168 l 661 168 l 661 0 l 87 0 z "},"M":{"ha":949,"x_min":81,"x_max":868,"o":"m 81 0 l 81 994 l 327 994 l 475 316 l 621 994 l 868 994 l 868 0 l 715 0 l 715 783 l 553 0 l 395 0 l 234 783 l 234 0 l 81 0 z "},"N":{"ha":822,"x_min":85,"x_max":732,"o":"m 85 0 l 85 994 l 245 994 l 578 330 l 578 994 l 732 994 l 732 0 l 566 0 l 238 648 l 238 0 l 85 0 z "},"O":{"ha":886,"x_min":50,"x_max":841,"o":"m 50 491 q 103 784 50 669 q 240 955 155 899 q 446 1011 325 1011 q 731 878 621 1011 q 841 497 841 744 q 724 107 841 248 q 446 -17 622 -17 q 167 106 269 -17 q 50 491 50 246 m 220 498 q 285 240 220 326 q 446 155 350 155 q 607 240 543 155 q 671 501 671 325 q 609 757 671 674 q 446 840 547 840 q 283 756 346 840 q 220 498 220 673 z "},"P":{"ha":760,"x_min":83,"x_max":707,"o":"m 83 0 l 83 994 l 347 994 q 541 980 495 994 q 660 882 613 957 q 707 688 707 806 q 667 507 707 580 q 565 405 626 434 q 355 375 504 375 l 247 375 l 247 0 l 83 0 m 247 826 l 247 544 l 338 544 q 462 557 429 544 q 516 603 495 570 q 537 686 537 637 q 515 769 537 735 q 462 814 494 803 q 327 826 430 826 l 247 826 z "},"Q":{"ha":886,"x_min":50,"x_max":871,"o":"m 739 126 q 871 42 800 74 l 810 -100 q 739 -63 774 -86 q 628 26 730 -58 q 444 -17 547 -17 q 158 115 267 -17 q 50 497 50 247 q 159 880 50 748 q 446 1011 269 1011 q 731 879 622 1011 q 840 497 840 747 q 815 288 840 376 q 739 126 791 201 m 607 239 q 670 496 670 328 q 607 755 670 671 q 445 840 544 840 q 282 755 346 840 q 219 497 219 671 q 282 235 219 320 q 440 150 346 150 q 507 164 475 150 q 406 227 456 205 l 452 341 q 607 239 533 307 z "},"R":{"ha":822,"x_min":83,"x_max":816,"o":"m 83 0 l 83 994 l 430 994 q 620 967 563 994 q 713 874 677 941 q 750 716 750 808 q 694 528 750 600 q 535 439 638 457 q 623 356 588 401 q 717 194 657 311 l 816 0 l 620 0 l 500 216 q 413 363 436 334 q 364 404 390 393 q 281 415 338 415 l 248 415 l 248 0 l 83 0 m 248 574 l 370 574 q 512 584 481 574 q 562 623 543 593 q 581 703 581 653 q 562 779 581 750 q 510 819 543 808 q 376 826 487 826 l 248 826 l 248 574 z "},"S":{"ha":760,"x_min":41,"x_max":704,"o":"m 41 323 l 202 342 q 380 152 229 152 q 497 191 454 152 q 540 288 540 230 q 525 345 540 321 q 479 384 510 369 q 332 435 449 399 q 178 505 227 467 q 100 603 129 542 q 71 733 71 663 q 108 880 71 814 q 210 978 145 945 q 371 1011 275 1011 q 595 933 515 1011 q 681 710 676 855 l 516 701 q 469 813 505 781 q 367 845 433 845 q 264 817 300 845 q 229 748 229 789 q 261 680 229 707 q 411 618 294 652 q 590 543 535 583 q 675 440 646 503 q 704 288 704 378 q 624 71 704 159 q 375 -18 545 -18 q 41 323 75 -18 z "},"T":{"ha":696,"x_min":24,"x_max":672,"o":"m 267 0 l 267 826 l 24 826 l 24 994 l 672 994 l 672 826 l 431 826 l 431 0 l 267 0 z "},"U":{"ha":822,"x_min":81,"x_max":732,"o":"m 81 994 l 245 994 l 245 456 q 252 292 245 330 q 303 191 262 227 q 412 155 345 155 q 505 180 469 155 q 554 251 541 205 q 567 444 567 296 l 567 994 l 732 994 l 732 472 q 710 183 732 272 q 614 38 689 94 q 416 -17 539 -17 q 217 29 289 -17 q 114 158 146 75 q 81 464 81 241 l 81 994 z "},"V":{"ha":760,"x_min":0,"x_max":759,"o":"m 291 0 l 0 994 l 178 994 l 385 258 l 584 994 l 759 994 l 467 0 l 291 0 z "},"W":{"ha":1075,"x_min":3,"x_max":1074,"o":"m 198 0 l 3 994 l 172 994 l 294 311 l 444 994 l 640 994 l 783 300 l 908 994 l 1074 994 l 876 0 l 701 0 l 538 743 l 376 0 l 198 0 z "},"X":{"ha":760,"x_min":1,"x_max":759,"o":"m 1 0 l 279 519 l 26 994 l 219 994 l 382 675 l 543 994 l 733 994 l 480 511 l 759 0 l 560 0 l 379 344 l 198 0 l 1 0 z "},"Y":{"ha":760,"x_min":-1,"x_max":761,"o":"m 297 0 l 297 418 l -1 994 l 191 994 l 383 601 l 572 994 l 761 994 l 461 417 l 461 0 l 297 0 z "},"Z":{"ha":696,"x_min":12,"x_max":675,"o":"m 12 0 l 12 181 l 441 826 l 60 826 l 60 994 l 657 994 l 657 838 l 211 168 l 675 168 l 675 0 l 12 0 z "},"[":{"ha":379,"x_min":81,"x_max":357,"o":"m 81 -280 l 81 994 l 357 994 l 357 844 l 229 844 l 229 -130 l 357 -130 l 357 -280 l 81 -280 z "},"\\":{"ha":317,"x_min":-1,"x_max":318,"o":"m -1 1011 l 114 1011 l 318 -17 l 201 -17 l -1 1011 z "},"]":{"ha":379,"x_min":21,"x_max":298,"o":"m 298 994 l 298 -280 l 21 -280 l 21 -130 l 149 -130 l 149 846 l 21 846 l 21 994 l 298 994 z "},"^":{"ha":665,"x_min":64,"x_max":602,"o":"m 64 469 l 273 1011 l 397 1011 l 602 469 l 443 469 l 333 801 l 224 469 l 64 469 z "},"_":{"ha":633,"x_min":-8,"x_max":642,"o":"m -8 -104 l 642 -104 l 642 -174 l -8 -174 l -8 -104 z "},"`":{"ha":379,"x_min":24,"x_max":276,"o":"m 276 808 l 177 808 l 24 1011 l 199 1011 l 276 808 z "},"a":{"ha":633,"x_min":41,"x_max":595,"o":"m 199 500 l 57 532 q 142 689 83 641 q 313 736 201 736 q 464 709 412 736 q 538 633 516 681 q 561 459 561 585 l 559 237 q 567 97 559 143 q 595 0 574 52 l 440 0 l 420 79 q 334 7 380 31 q 237 -16 288 -16 q 96 42 151 -16 q 41 196 41 100 q 63 302 41 257 q 126 375 85 348 q 256 423 167 402 q 408 470 365 448 q 399 548 408 530 q 368 579 391 567 q 304 591 345 591 q 238 572 262 591 q 199 500 214 553 m 408 346 q 315 317 378 334 q 220 275 242 298 q 197 216 197 252 q 222 146 197 174 q 284 118 247 118 q 350 141 317 118 q 395 195 382 163 q 408 308 408 226 l 408 346 z "},"b":{"ha":696,"x_min":75,"x_max":652,"o":"m 75 0 l 75 994 l 231 994 l 231 636 q 310 711 267 686 q 403 736 353 736 q 579 642 507 736 q 652 364 652 548 q 578 82 652 181 q 404 -16 504 -16 q 304 15 353 -16 q 220 106 254 46 l 220 0 l 75 0 m 230 376 q 248 234 230 283 q 298 160 265 185 q 366 134 330 134 q 454 188 418 134 q 491 359 491 242 q 454 536 491 481 q 360 591 417 591 q 268 538 306 591 q 230 376 230 485 z "},"c":{"ha":633,"x_min":47,"x_max":605,"o":"m 597 507 l 443 473 q 336 587 426 587 q 243 538 279 587 q 208 373 208 489 q 243 192 208 245 q 338 139 279 139 q 410 169 382 139 q 451 276 439 199 l 605 244 q 332 -16 557 -16 q 117 94 187 -16 q 47 358 47 203 q 126 640 47 543 q 334 736 205 736 q 503 682 437 736 q 597 507 568 627 z "},"d":{"ha":696,"x_min":47,"x_max":624,"o":"m 624 0 l 478 0 l 478 106 q 393 14 442 45 q 293 -16 345 -16 q 120 82 194 -16 q 47 364 47 181 q 119 643 47 549 q 296 736 191 736 q 388 711 345 736 q 467 636 431 686 l 467 994 l 624 994 l 624 0 m 207 376 q 223 230 207 278 q 271 158 240 182 q 340 134 302 134 q 430 190 392 134 q 468 357 468 245 q 431 536 468 481 q 337 591 394 591 q 245 537 283 591 q 207 376 207 484 z "},"e":{"ha":633,"x_min":37,"x_max":589,"o":"m 425 229 l 580 197 q 483 36 549 89 q 323 -16 417 -16 q 121 71 192 -16 q 37 356 37 173 q 121 645 37 536 q 307 736 193 736 q 506 643 434 736 q 589 327 589 536 l 588 305 l 197 305 q 235 173 198 220 q 324 126 272 126 q 425 229 399 126 m 433 422 q 397 548 431 506 q 317 591 363 591 q 233 547 267 591 q 199 422 199 502 l 433 422 z "},"f":{"ha":379,"x_min":14,"x_max":412,"o":"m 14 720 l 100 720 l 100 774 q 119 917 100 873 q 179 986 138 961 q 282 1011 221 1011 q 412 987 349 1011 l 392 854 q 319 865 354 865 q 271 846 286 865 q 256 771 256 827 l 256 720 l 373 720 l 373 570 l 256 570 l 256 0 l 100 0 l 100 570 l 14 570 l 14 720 z "},"g":{"ha":696,"x_min":47,"x_max":623,"o":"m 67 -47 l 246 -74 q 271 -130 250 -113 q 336 -146 292 -146 q 420 -130 388 -146 q 454 -89 442 -117 q 467 12 467 -60 l 467 117 q 387 29 431 58 q 290 0 343 0 q 124 89 191 0 q 47 364 47 191 q 120 643 47 549 q 296 736 193 736 q 396 707 351 736 q 477 619 441 678 l 477 720 l 623 720 l 623 74 q 595 -151 623 -81 q 507 -257 566 -221 q 342 -292 448 -292 q 187 -267 245 -292 q 98 -190 129 -241 q 67 -71 67 -138 l 67 -47 m 207 375 q 244 207 207 260 q 333 154 281 154 q 429 208 389 154 q 469 370 469 261 q 431 537 469 483 q 336 591 393 591 q 244 538 281 591 q 207 375 207 485 z "},"h":{"ha":696,"x_min":81,"x_max":619,"o":"m 238 994 l 238 629 q 320 710 275 683 q 418 736 366 736 q 536 699 489 736 q 604 593 584 662 q 619 422 619 543 l 619 0 l 463 0 l 463 380 q 446 546 463 513 q 366 591 422 591 q 272 542 305 591 q 238 361 238 494 l 238 0 l 81 0 l 81 994 l 238 994 z "},"i":{"ha":317,"x_min":82,"x_max":239,"o":"m 82 818 l 82 994 l 239 994 l 239 818 l 82 818 m 82 0 l 82 720 l 239 720 l 239 0 l 82 0 z "},"j":{"ha":317,"x_min":-52,"x_max":235,"o":"m 79 818 l 79 994 l 235 994 l 235 818 l 79 818 m 235 720 l 235 22 q 219 -179 235 -125 q 161 -263 203 -233 q 57 -292 119 -292 q -52 -272 10 -292 l -24 -109 q 14 -115 -2 -115 q 71 -83 55 -115 q 79 33 79 -65 l 79 720 l 235 720 z "},"k":{"ha":633,"x_min":77,"x_max":623,"o":"m 77 0 l 77 994 l 233 994 l 233 467 l 416 720 l 608 720 l 406 457 l 623 0 l 454 0 l 305 323 l 233 231 l 233 0 l 77 0 z "},"l":{"ha":317,"x_min":82,"x_max":239,"o":"m 82 0 l 82 994 l 239 994 l 239 0 l 82 0 z "},"m":{"ha":1013,"x_min":70,"x_max":939,"o":"m 70 720 l 214 720 l 214 622 q 298 708 252 680 q 398 736 345 736 q 497 708 455 736 q 565 622 538 680 q 649 708 604 680 q 745 736 694 736 q 849 708 806 736 q 916 625 893 679 q 939 460 939 572 l 939 0 l 782 0 l 782 412 q 763 555 782 519 q 699 591 744 591 q 615 541 647 591 q 583 346 583 491 l 583 0 l 427 0 l 427 395 q 414 546 427 512 q 345 591 397 591 q 281 568 311 591 q 239 500 252 545 q 227 350 227 456 l 227 0 l 70 0 l 70 720 z "},"n":{"ha":696,"x_min":81,"x_max":619,"o":"m 619 0 l 463 0 l 463 368 q 454 515 463 478 q 421 571 445 551 q 366 591 397 591 q 295 565 327 591 q 250 495 263 540 q 237 326 237 450 l 237 0 l 81 0 l 81 720 l 226 720 l 226 614 q 313 706 264 675 q 420 736 361 736 q 536 701 489 736 q 601 609 583 665 q 619 448 619 553 l 619 0 z "},"o":{"ha":696,"x_min":45,"x_max":655,"o":"m 45 370 q 87 563 45 476 q 197 693 130 650 q 350 736 265 736 q 574 625 492 736 q 655 364 655 513 q 613 163 655 253 q 502 29 570 74 q 351 -16 433 -16 q 132 84 219 -16 q 45 370 45 184 m 205 360 q 248 195 205 251 q 351 139 291 139 q 452 195 410 139 q 494 361 494 252 q 452 525 494 469 q 349 581 409 581 q 248 525 290 581 q 205 360 205 469 z "},"p":{"ha":696,"x_min":77,"x_max":654,"o":"m 77 720 l 223 720 l 223 614 q 302 704 253 671 q 407 736 351 736 q 581 640 508 736 q 654 367 654 544 q 581 82 654 181 q 406 -16 507 -16 q 319 6 359 -16 q 234 89 279 29 l 234 -274 l 77 -274 l 77 720 m 232 372 q 272 193 232 250 q 368 135 311 135 q 458 188 421 135 q 494 362 494 241 q 457 531 494 477 q 365 586 419 586 q 270 533 308 586 q 232 372 232 479 z "},"q":{"ha":696,"x_min":51,"x_max":624,"o":"m 468 -274 l 468 88 q 390 11 436 38 q 293 -16 344 -16 q 122 83 194 -16 q 51 368 51 182 q 124 641 51 545 q 302 736 197 736 q 402 706 358 736 q 480 614 447 675 l 480 720 l 624 720 l 624 -274 l 468 -274 m 473 369 q 436 534 473 481 q 343 587 399 587 q 249 533 287 587 q 211 357 211 478 q 248 186 211 239 q 338 134 285 134 q 432 193 391 134 q 473 369 473 251 z "},"r":{"ha":443,"x_min":75,"x_max":458,"o":"m 232 0 l 75 0 l 75 720 l 220 720 l 220 618 q 287 713 258 690 q 355 736 317 736 q 458 701 409 736 l 409 534 q 336 566 370 566 q 278 542 303 566 q 243 454 254 517 q 232 222 232 391 l 232 0 z "},"s":{"ha":633,"x_min":27,"x_max":579,"o":"m 27 205 l 184 235 q 310 121 204 121 q 394 143 366 121 q 422 199 422 165 q 410 237 422 223 q 359 260 397 250 q 114 357 166 311 q 49 515 49 415 q 113 676 49 616 q 298 736 176 736 q 474 691 414 736 q 559 546 534 646 l 412 513 q 300 600 392 600 q 218 583 243 600 q 194 540 194 566 q 216 500 194 516 q 355 452 239 484 q 533 363 486 415 q 579 224 579 311 q 508 52 579 119 q 310 -16 436 -16 q 123 40 195 -16 q 27 205 50 97 z "},"t":{"ha":379,"x_min":17,"x_max":365,"o":"m 352 720 l 352 568 l 245 568 l 245 278 q 250 169 245 184 q 289 142 260 142 q 351 160 311 142 l 365 12 q 242 -16 311 -16 q 146 12 182 -16 q 98 94 111 41 q 89 254 89 134 l 89 568 l 17 568 l 17 720 l 89 720 l 89 863 l 245 975 l 245 720 l 352 720 z "},"u":{"ha":696,"x_min":78,"x_max":615,"o":"m 470 0 l 470 108 q 385 17 437 50 q 274 -16 332 -16 q 170 14 216 -16 q 101 101 123 45 q 78 264 78 157 l 78 720 l 235 720 l 235 389 q 242 209 235 248 q 273 150 249 171 q 332 129 298 129 q 405 156 372 129 q 449 227 438 184 q 459 416 459 270 l 459 720 l 615 720 l 615 0 l 470 0 z "},"v":{"ha":633,"x_min":6,"x_max":619,"o":"m 244 0 l 6 720 l 170 720 l 281 353 l 313 230 l 347 353 l 459 720 l 619 720 l 385 0 l 244 0 z "},"w":{"ha":886,"x_min":5,"x_max":886,"o":"m 193 0 l 5 720 l 157 720 l 268 248 l 370 720 l 520 720 l 618 248 l 732 720 l 886 720 l 696 0 l 546 0 l 444 463 l 344 0 l 193 0 z "},"x":{"ha":633,"x_min":7,"x_max":623,"o":"m 7 0 l 220 371 l 16 720 l 207 720 l 311 522 l 421 720 l 604 720 l 404 379 l 623 0 l 431 0 l 311 223 l 189 0 l 7 0 z "},"y":{"ha":633,"x_min":7,"x_max":614,"o":"m 7 720 l 174 720 l 315 209 l 453 720 l 614 720 l 406 27 l 366 -108 q 314 -219 340 -184 q 247 -273 288 -254 q 148 -292 207 -292 q 59 -281 102 -292 l 45 -132 q 111 -140 82 -140 q 185 -111 156 -140 q 232 -2 214 -81 l 7 720 z "},"z":{"ha":570,"x_min":19,"x_max":547,"o":"m 19 0 l 19 149 l 241 458 q 321 566 295 534 q 249 564 294 564 l 41 562 l 41 720 l 529 720 l 529 585 l 303 268 l 224 163 q 304 168 289 168 l 547 168 l 547 0 l 19 0 z "},"{":{"ha":443,"x_min":33,"x_max":414,"o":"m 33 278 l 33 441 q 105 463 81 444 q 142 529 129 483 q 155 682 155 574 q 165 867 155 817 q 199 947 176 918 q 264 994 222 976 q 384 1011 305 1011 l 414 1011 l 414 849 q 336 842 355 849 q 309 817 318 834 q 300 751 300 799 q 294 562 300 669 q 262 435 290 490 q 195 359 243 396 q 263 281 237 330 q 293 159 288 233 q 300 -31 300 58 q 310 -95 300 -77 q 338 -121 319 -113 q 414 -130 356 -130 l 414 -292 l 384 -292 q 267 -277 305 -292 q 203 -231 229 -262 q 166 -152 178 -201 q 155 14 155 -103 q 143 188 155 142 q 106 254 131 233 q 33 278 82 275 z "},"|":{"ha":319,"x_min":98,"x_max":222,"o":"m 98 -292 l 98 1011 l 222 1011 l 222 -292 l 98 -292 z "},"}":{"ha":443,"x_min":25,"x_max":406,"o":"m 406 278 q 334 256 358 275 q 297 190 310 236 q 283 37 283 144 q 273 -148 283 -97 q 240 -228 263 -198 q 175 -275 216 -257 q 55 -292 134 -292 l 25 -292 l 25 -130 q 101 -121 82 -130 q 129 -95 119 -113 q 139 -32 139 -77 q 145 154 139 45 q 176 280 150 231 q 243 359 201 330 q 176 435 196 396 q 145 563 150 488 q 138 751 138 661 q 130 816 138 799 q 102 841 121 833 q 25 849 84 849 l 25 1011 l 55 1011 q 172 996 134 1011 q 235 951 210 981 q 272 871 261 920 q 283 706 283 823 q 295 531 283 577 q 332 465 307 486 q 406 441 357 444 l 406 278 z "},"~":{"ha":665,"x_min":37,"x_max":628,"o":"m 37 352 l 37 528 q 201 621 108 621 q 266 613 237 621 q 363 571 296 604 q 476 529 449 529 q 549 553 508 529 q 628 627 591 577 l 628 444 q 542 374 597 404 q 462 354 507 354 q 408 362 434 354 q 323 401 381 370 q 189 446 238 446 q 37 352 111 446 z "},"Ä":{"ha":822,"x_min":0,"x_max":818,"o":"m 818 0 l 639 0 l 568 226 l 242 226 l 175 0 l 0 0 l 317 994 l 492 994 l 818 0 m 515 393 l 403 762 l 292 393 l 515 393 m 222 1099 l 222 1263 l 357 1263 l 357 1099 l 222 1099 m 462 1099 l 462 1263 l 596 1263 l 596 1099 l 462 1099 z "},"Å":{"ha":822,"x_min":0,"x_max":818,"o":"m 818 0 l 639 0 l 568 226 l 242 226 l 175 0 l 0 0 l 317 994 l 492 994 l 818 0 m 515 393 l 403 762 l 292 393 l 515 393 m 519 1162 q 486 1067 519 1105 q 410 1029 453 1029 q 333 1067 366 1029 q 300 1162 300 1105 q 333 1258 300 1220 q 410 1295 366 1295 q 486 1258 453 1295 q 519 1162 519 1220 m 459 1162 q 444 1206 459 1189 q 410 1223 429 1223 q 375 1206 390 1223 q 360 1162 360 1189 q 375 1119 360 1137 q 410 1102 390 1102 q 444 1119 429 1102 q 459 1162 459 1137 z "},"Ç":{"ha":822,"x_min":54,"x_max":764,"o":"m 605 366 l 764 304 q 640 60 727 137 q 427 -17 553 -17 q 168 106 267 -17 q 54 488 54 248 q 169 886 54 743 q 437 1011 269 1011 q 666 918 574 1011 q 762 720 732 851 l 600 673 q 537 797 584 753 q 428 840 491 840 q 281 761 338 840 q 224 501 224 682 q 279 234 224 313 q 424 155 335 155 q 536 205 489 155 q 605 366 584 256 m 263 -281 l 263 -201 q 368 -209 320 -209 q 437 -191 414 -209 q 460 -145 460 -173 q 442 -104 460 -120 q 389 -88 423 -88 q 317 -102 354 -88 l 331 -35 q 426 -16 374 -16 q 528 -52 490 -16 q 566 -144 566 -87 q 515 -251 566 -210 q 372 -292 465 -292 q 263 -281 300 -292 z "},"É":{"ha":760,"x_min":83,"x_max":703,"o":"m 83 0 l 83 994 l 688 994 l 688 826 l 248 826 l 248 606 l 657 606 l 657 438 l 248 438 l 248 168 l 703 168 l 703 0 l 83 0 m 294 1061 l 371 1263 l 547 1263 l 393 1061 l 294 1061 z "},"Ñ":{"ha":822,"x_min":85,"x_max":732,"o":"m 85 0 l 85 994 l 245 994 l 578 330 l 578 994 l 732 994 l 732 0 l 566 0 l 238 648 l 238 0 l 85 0 m 283 1069 l 213 1069 l 212 1092 q 241 1204 212 1166 q 314 1242 270 1242 q 350 1236 333 1242 q 405 1211 367 1231 q 479 1183 455 1183 q 525 1242 518 1183 l 597 1242 q 569 1111 596 1150 q 498 1072 541 1072 q 462 1077 479 1072 q 402 1102 449 1080 q 322 1128 346 1128 q 295 1115 305 1128 q 283 1069 284 1102 z "},"Ö":{"ha":886,"x_min":50,"x_max":841,"o":"m 50 491 q 103 784 50 669 q 240 955 155 899 q 446 1011 325 1011 q 731 878 621 1011 q 841 497 841 744 q 724 107 841 248 q 446 -17 622 -17 q 167 106 269 -17 q 50 491 50 246 m 220 498 q 285 240 220 326 q 446 155 350 155 q 607 240 543 155 q 671 501 671 325 q 609 757 671 674 q 446 840 547 840 q 283 756 346 840 q 220 498 220 673 m 258 1099 l 258 1263 l 393 1263 l 393 1099 l 258 1099 m 498 1099 l 498 1263 l 632 1263 l 632 1099 l 498 1099 z "},"Ü":{"ha":822,"x_min":81,"x_max":732,"o":"m 81 994 l 245 994 l 245 456 q 252 292 245 330 q 303 191 262 227 q 412 155 345 155 q 505 180 469 155 q 554 251 541 205 q 567 444 567 296 l 567 994 l 732 994 l 732 472 q 710 183 732 272 q 614 38 689 94 q 416 -17 539 -17 q 217 29 289 -17 q 114 158 146 75 q 81 464 81 241 l 81 994 m 222 1099 l 222 1263 l 356 1263 l 356 1099 l 222 1099 m 461 1099 l 461 1263 l 595 1263 l 595 1099 l 461 1099 z "},"á":{"ha":633,"x_min":41,"x_max":595,"o":"m 199 500 l 57 532 q 142 689 83 641 q 313 736 201 736 q 464 709 412 736 q 538 633 516 681 q 561 459 561 585 l 559 237 q 567 97 559 143 q 595 0 574 52 l 440 0 l 420 79 q 334 7 380 31 q 237 -16 288 -16 q 96 42 151 -16 q 41 196 41 100 q 63 302 41 257 q 126 375 85 348 q 256 423 167 402 q 408 470 365 448 q 399 548 408 530 q 368 579 391 567 q 304 591 345 591 q 238 572 262 591 q 199 500 214 553 m 408 346 q 315 317 378 334 q 220 275 242 298 q 197 216 197 252 q 222 146 197 174 q 284 118 247 118 q 350 141 317 118 q 395 195 382 163 q 408 308 408 226 l 408 346 m 239 808 l 315 1011 l 491 1011 l 338 808 l 239 808 z "},"à":{"ha":633,"x_min":41,"x_max":595,"o":"m 199 500 l 57 532 q 142 689 83 641 q 313 736 201 736 q 464 709 412 736 q 538 633 516 681 q 561 459 561 585 l 559 237 q 567 97 559 143 q 595 0 574 52 l 440 0 l 420 79 q 334 7 380 31 q 237 -16 288 -16 q 96 42 151 -16 q 41 196 41 100 q 63 302 41 257 q 126 375 85 348 q 256 423 167 402 q 408 470 365 448 q 399 548 408 530 q 368 579 391 567 q 304 591 345 591 q 238 572 262 591 q 199 500 214 553 m 408 346 q 315 317 378 334 q 220 275 242 298 q 197 216 197 252 q 222 146 197 174 q 284 118 247 118 q 350 141 317 118 q 395 195 382 163 q 408 308 408 226 l 408 346 m 397 808 l 298 808 l 145 1011 l 320 1011 l 397 808 z "},"â":{"ha":633,"x_min":41,"x_max":595,"o":"m 199 500 l 57 532 q 142 689 83 641 q 313 736 201 736 q 464 709 412 736 q 538 633 516 681 q 561 459 561 585 l 559 237 q 567 97 559 143 q 595 0 574 52 l 440 0 l 420 79 q 334 7 380 31 q 237 -16 288 -16 q 96 42 151 -16 q 41 196 41 100 q 63 302 41 257 q 126 375 85 348 q 256 423 167 402 q 408 470 365 448 q 399 548 408 530 q 368 579 391 567 q 304 591 345 591 q 238 572 262 591 q 199 500 214 553 m 408 346 q 315 317 378 334 q 220 275 242 298 q 197 216 197 252 q 222 146 197 174 q 284 118 247 118 q 350 141 317 118 q 395 195 382 163 q 408 308 408 226 l 408 346 m 130 811 l 246 1011 l 391 1011 l 506 811 l 380 811 l 316 912 l 256 811 l 130 811 z "},"ä":{"ha":633,"x_min":41,"x_max":595,"o":"m 199 500 l 57 532 q 142 689 83 641 q 313 736 201 736 q 464 709 412 736 q 538 633 516 681 q 561 459 561 585 l 559 237 q 567 97 559 143 q 595 0 574 52 l 440 0 l 420 79 q 334 7 380 31 q 237 -16 288 -16 q 96 42 151 -16 q 41 196 41 100 q 63 302 41 257 q 126 375 85 348 q 256 423 167 402 q 408 470 365 448 q 399 548 408 530 q 368 579 391 567 q 304 591 345 591 q 238 572 262 591 q 199 500 214 553 m 408 346 q 315 317 378 334 q 220 275 242 298 q 197 216 197 252 q 222 146 197 174 q 284 118 247 118 q 350 141 317 118 q 395 195 382 163 q 408 308 408 226 l 408 346 m 131 848 l 131 1011 l 265 1011 l 265 848 l 131 848 m 370 848 l 370 1011 l 505 1011 l 505 848 l 370 848 z "},"ã":{"ha":633,"x_min":41,"x_max":595,"o":"m 199 500 l 57 532 q 142 689 83 641 q 313 736 201 736 q 464 709 412 736 q 538 633 516 681 q 561 459 561 585 l 559 237 q 567 97 559 143 q 595 0 574 52 l 440 0 l 420 79 q 334 7 380 31 q 237 -16 288 -16 q 96 42 151 -16 q 41 196 41 100 q 63 302 41 257 q 126 375 85 348 q 256 423 167 402 q 408 470 365 448 q 399 548 408 530 q 368 579 391 567 q 304 591 345 591 q 238 572 262 591 q 199 500 214 553 m 408 346 q 315 317 378 334 q 220 275 242 298 q 197 216 197 252 q 222 146 197 174 q 284 118 247 118 q 350 141 317 118 q 395 195 382 163 q 408 308 408 226 l 408 346 m 197 817 l 126 817 l 125 840 q 154 952 125 914 q 227 989 183 989 q 263 984 246 989 q 318 958 280 979 q 393 931 368 931 q 438 990 431 931 l 510 990 q 482 859 509 898 q 411 820 454 820 q 375 825 393 820 q 315 850 362 828 q 235 876 259 876 q 208 863 218 876 q 197 817 197 850 z "},"å":{"ha":633,"x_min":41,"x_max":595,"o":"m 199 500 l 57 532 q 142 689 83 641 q 313 736 201 736 q 464 709 412 736 q 538 633 516 681 q 561 459 561 585 l 559 237 q 567 97 559 143 q 595 0 574 52 l 440 0 l 420 79 q 334 7 380 31 q 237 -16 288 -16 q 96 42 151 -16 q 41 196 41 100 q 63 302 41 257 q 126 375 85 348 q 256 423 167 402 q 408 470 365 448 q 399 548 408 530 q 368 579 391 567 q 304 591 345 591 q 238 572 262 591 q 199 500 214 553 m 408 346 q 315 317 378 334 q 220 275 242 298 q 197 216 197 252 q 222 146 197 174 q 284 118 247 118 q 350 141 317 118 q 395 195 382 163 q 408 308 408 226 l 408 346 m 427 910 q 394 815 427 853 q 318 777 361 777 q 242 815 275 777 q 209 910 209 853 q 241 1005 209 968 q 318 1043 274 1043 q 394 1005 361 1043 q 427 910 427 968 m 368 910 q 353 954 368 937 q 318 970 338 970 q 283 954 298 970 q 269 910 269 937 q 283 867 269 884 q 318 850 298 850 q 353 867 338 850 q 368 910 368 884 z "},"ç":{"ha":633,"x_min":47,"x_max":605,"o":"m 597 507 l 443 473 q 336 587 426 587 q 243 538 279 587 q 208 373 208 489 q 243 192 208 245 q 338 139 279 139 q 410 169 382 139 q 451 276 439 199 l 605 244 q 332 -16 557 -16 q 117 94 187 -16 q 47 358 47 203 q 126 640 47 543 q 334 736 205 736 q 503 682 437 736 q 597 507 568 627 m 170 -273 l 170 -193 q 275 -201 227 -201 q 345 -183 321 -201 q 368 -137 368 -165 q 349 -96 368 -112 q 296 -80 330 -80 q 224 -94 261 -80 l 238 -26 q 333 -8 281 -8 q 435 -44 397 -8 q 473 -136 473 -79 q 422 -243 473 -201 q 279 -284 372 -284 q 170 -273 207 -284 z "},"é":{"ha":633,"x_min":37,"x_max":589,"o":"m 425 229 l 580 197 q 483 36 549 89 q 323 -16 417 -16 q 121 71 192 -16 q 37 356 37 173 q 121 645 37 536 q 307 736 193 736 q 506 643 434 736 q 589 327 589 536 l 588 305 l 197 305 q 235 173 198 220 q 324 126 272 126 q 425 229 399 126 m 433 422 q 397 548 431 506 q 317 591 363 591 q 233 547 267 591 q 199 422 199 502 l 433 422 m 233 808 l 310 1011 l 486 1011 l 332 808 l 233 808 z "},"è":{"ha":633,"x_min":37,"x_max":589,"o":"m 425 229 l 580 197 q 483 36 549 89 q 323 -16 417 -16 q 121 71 192 -16 q 37 356 37 173 q 121 645 37 536 q 307 736 193 736 q 506 643 434 736 q 589 327 589 536 l 588 305 l 197 305 q 235 173 198 220 q 324 126 272 126 q 425 229 399 126 m 433 422 q 397 548 431 506 q 317 591 363 591 q 233 547 267 591 q 199 422 199 502 l 433 422 m 392 808 l 293 808 l 140 1011 l 315 1011 l 392 808 z "},"ê":{"ha":633,"x_min":37,"x_max":589,"o":"m 425 229 l 580 197 q 483 36 549 89 q 323 -16 417 -16 q 121 71 192 -16 q 37 356 37 173 q 121 645 37 536 q 307 736 193 736 q 506 643 434 736 q 589 327 589 536 l 588 305 l 197 305 q 235 173 198 220 q 324 126 272 126 q 425 229 399 126 m 433 422 q 397 548 431 506 q 317 591 363 591 q 233 547 267 591 q 199 422 199 502 l 433 422 m 124 811 l 241 1011 l 385 1011 l 500 811 l 375 811 l 311 912 l 251 811 l 124 811 z "},"ë":{"ha":633,"x_min":37,"x_max":589,"o":"m 425 229 l 580 197 q 483 36 549 89 q 323 -16 417 -16 q 121 71 192 -16 q 37 356 37 173 q 121 645 37 536 q 307 736 193 736 q 506 643 434 736 q 589 327 589 536 l 588 305 l 197 305 q 235 173 198 220 q 324 126 272 126 q 425 229 399 126 m 433 422 q 397 548 431 506 q 317 591 363 591 q 233 547 267 591 q 199 422 199 502 l 433 422 m 125 848 l 125 1011 l 260 1011 l 260 848 l 125 848 m 365 848 l 365 1011 l 499 1011 l 499 848 l 365 848 z "},"í":{"ha":317,"x_min":81,"x_max":334,"o":"m 82 0 l 82 720 l 239 720 l 239 0 l 82 0 m 81 808 l 158 1011 l 334 1011 l 180 808 l 81 808 z "},"ì":{"ha":317,"x_min":-13,"x_max":239,"o":"m 82 0 l 82 720 l 239 720 l 239 0 l 82 0 m 239 808 l 140 808 l -13 1011 l 162 1011 l 239 808 z "},"î":{"ha":317,"x_min":-28,"x_max":349,"o":"m 82 0 l 82 720 l 239 720 l 239 0 l 82 0 m -28 811 l 89 1011 l 233 1011 l 349 811 l 223 811 l 159 912 l 99 811 l -28 811 z "},"ï":{"ha":317,"x_min":-26,"x_max":347,"o":"m 82 0 l 82 720 l 239 720 l 239 0 l 82 0 m -26 848 l -26 1011 l 108 1011 l 108 848 l -26 848 m 213 848 l 213 1011 l 347 1011 l 347 848 l 213 848 z "},"ñ":{"ha":696,"x_min":81,"x_max":619,"o":"m 619 0 l 463 0 l 463 368 q 454 515 463 478 q 421 571 445 551 q 366 591 397 591 q 295 565 327 591 q 250 495 263 540 q 237 326 237 450 l 237 0 l 81 0 l 81 720 l 226 720 l 226 614 q 313 706 264 675 q 420 736 361 736 q 536 701 489 736 q 601 609 583 665 q 619 448 619 553 l 619 0 m 229 817 l 158 817 l 157 840 q 186 952 157 914 q 259 989 215 989 q 295 984 278 989 q 350 958 312 979 q 425 931 400 931 q 470 990 463 931 l 542 990 q 514 859 541 898 q 443 820 486 820 q 407 825 425 820 q 347 850 394 828 q 267 876 291 876 q 240 863 250 876 q 229 817 229 850 z "},"ó":{"ha":696,"x_min":45,"x_max":655,"o":"m 45 370 q 87 563 45 476 q 197 693 130 650 q 350 736 265 736 q 574 625 492 736 q 655 364 655 513 q 613 163 655 253 q 502 29 570 74 q 351 -16 433 -16 q 132 84 219 -16 q 45 370 45 184 m 205 360 q 248 195 205 251 q 351 139 291 139 q 452 195 410 139 q 494 361 494 252 q 452 525 494 469 q 349 581 409 581 q 248 525 290 581 q 205 360 205 469 m 271 808 l 348 1011 l 524 1011 l 370 808 l 271 808 z "},"ò":{"ha":696,"x_min":45,"x_max":655,"o":"m 45 370 q 87 563 45 476 q 197 693 130 650 q 350 736 265 736 q 574 625 492 736 q 655 364 655 513 q 613 163 655 253 q 502 29 570 74 q 351 -16 433 -16 q 132 84 219 -16 q 45 370 45 184 m 205 360 q 248 195 205 251 q 351 139 291 139 q 452 195 410 139 q 494 361 494 252 q 452 525 494 469 q 349 581 409 581 q 248 525 290 581 q 205 360 205 469 m 429 808 l 330 808 l 177 1011 l 352 1011 l 429 808 z "},"ô":{"ha":696,"x_min":45,"x_max":655,"o":"m 45 370 q 87 563 45 476 q 197 693 130 650 q 350 736 265 736 q 574 625 492 736 q 655 364 655 513 q 613 163 655 253 q 502 29 570 74 q 351 -16 433 -16 q 132 84 219 -16 q 45 370 45 184 m 205 360 q 248 195 205 251 q 351 139 291 139 q 452 195 410 139 q 494 361 494 252 q 452 525 494 469 q 349 581 409 581 q 248 525 290 581 q 205 360 205 469 m 162 811 l 279 1011 l 423 1011 l 538 811 l 413 811 l 349 912 l 289 811 l 162 811 z "},"ö":{"ha":696,"x_min":45,"x_max":655,"o":"m 45 370 q 87 563 45 476 q 197 693 130 650 q 350 736 265 736 q 574 625 492 736 q 655 364 655 513 q 613 163 655 253 q 502 29 570 74 q 351 -16 433 -16 q 132 84 219 -16 q 45 370 45 184 m 205 360 q 248 195 205 251 q 351 139 291 139 q 452 195 410 139 q 494 361 494 252 q 452 525 494 469 q 349 581 409 581 q 248 525 290 581 q 205 360 205 469 m 163 848 l 163 1011 l 298 1011 l 298 848 l 163 848 m 403 848 l 403 1011 l 537 1011 l 537 848 l 403 848 z "},"õ":{"ha":696,"x_min":45,"x_max":655,"o":"m 45 370 q 87 563 45 476 q 197 693 130 650 q 350 736 265 736 q 574 625 492 736 q 655 364 655 513 q 613 163 655 253 q 502 29 570 74 q 351 -16 433 -16 q 132 84 219 -16 q 45 370 45 184 m 205 360 q 248 195 205 251 q 351 139 291 139 q 452 195 410 139 q 494 361 494 252 q 452 525 494 469 q 349 581 409 581 q 248 525 290 581 q 205 360 205 469 m 229 817 l 159 817 l 158 840 q 187 952 158 914 q 260 989 216 989 q 296 984 279 989 q 351 958 313 979 q 425 931 401 931 q 471 990 464 931 l 543 990 q 514 859 542 898 q 444 820 487 820 q 408 825 425 820 q 348 850 395 828 q 268 876 292 876 q 240 863 251 876 q 229 817 230 850 z "},"ú":{"ha":696,"x_min":78,"x_max":615,"o":"m 470 0 l 470 108 q 385 17 437 50 q 274 -16 332 -16 q 170 14 216 -16 q 101 101 123 45 q 78 264 78 157 l 78 720 l 235 720 l 235 389 q 242 209 235 248 q 273 150 249 171 q 332 129 298 129 q 405 156 372 129 q 449 227 438 184 q 459 416 459 270 l 459 720 l 615 720 l 615 0 l 470 0 m 268 808 l 345 1011 l 520 1011 l 367 808 l 268 808 z "},"ù":{"ha":696,"x_min":78,"x_max":615,"o":"m 470 0 l 470 108 q 385 17 437 50 q 274 -16 332 -16 q 170 14 216 -16 q 101 101 123 45 q 78 264 78 157 l 78 720 l 235 720 l 235 389 q 242 209 235 248 q 273 150 249 171 q 332 129 298 129 q 405 156 372 129 q 449 227 438 184 q 459 416 459 270 l 459 720 l 615 720 l 615 0 l 470 0 m 426 808 l 327 808 l 174 1011 l 349 1011 l 426 808 z "},"û":{"ha":696,"x_min":78,"x_max":615,"o":"m 470 0 l 470 108 q 385 17 437 50 q 274 -16 332 -16 q 170 14 216 -16 q 101 101 123 45 q 78 264 78 157 l 78 720 l 235 720 l 235 389 q 242 209 235 248 q 273 150 249 171 q 332 129 298 129 q 405 156 372 129 q 449 227 438 184 q 459 416 459 270 l 459 720 l 615 720 l 615 0 l 470 0 m 158 811 l 275 1011 l 419 1011 l 534 811 l 409 811 l 345 912 l 285 811 l 158 811 z "},"ü":{"ha":696,"x_min":78,"x_max":615,"o":"m 470 0 l 470 108 q 385 17 437 50 q 274 -16 332 -16 q 170 14 216 -16 q 101 101 123 45 q 78 264 78 157 l 78 720 l 235 720 l 235 389 q 242 209 235 248 q 273 150 249 171 q 332 129 298 129 q 405 156 372 129 q 449 227 438 184 q 459 416 459 270 l 459 720 l 615 720 l 615 0 l 470 0 m 160 848 l 160 1011 l 294 1011 l 294 848 l 160 848 m 399 848 l 399 1011 l 534 1011 l 534 848 l 399 848 z "},"†":{"ha":633,"x_min":38,"x_max":589,"o":"m 241 -237 l 241 563 l 38 563 l 38 720 l 241 720 l 241 982 l 387 982 l 387 720 l 589 720 l 589 563 l 387 563 l 387 -237 l 241 -237 z "},"°":{"ha":555,"x_min":58,"x_max":491,"o":"m 58 795 q 122 948 58 885 q 275 1011 185 1011 q 428 948 364 1011 q 491 795 491 884 q 428 642 491 705 q 275 578 364 578 q 122 642 185 578 q 58 795 58 705 m 171 795 q 201 722 171 752 q 275 691 232 691 q 348 722 317 691 q 378 795 378 752 q 348 868 378 838 q 275 899 317 899 q 201 868 232 899 q 171 795 171 838 z "},"¢":{"ha":633,"x_min":47,"x_max":604,"o":"m 414 550 l 313 142 q 338 139 325 139 q 410 169 381 139 q 450 276 438 199 l 604 244 q 331 -16 557 -16 q 275 -12 303 -16 l 210 -273 l 142 -250 l 207 11 q 91 139 134 50 q 47 362 47 228 q 132 647 47 544 q 333 736 205 736 q 385 732 358 736 l 448 987 l 516 964 l 454 712 q 596 507 559 663 l 442 473 q 414 550 436 522 m 349 586 l 336 587 q 242 538 277 587 q 208 372 208 489 q 249 182 208 241 l 349 586 z "},"£":{"ha":633,"x_min":7,"x_max":616,"o":"m 556 193 l 616 32 q 463 -16 546 -16 q 331 13 412 -16 q 205 42 245 42 q 67 -17 138 42 l 7 147 q 95 259 66 198 q 125 380 125 321 q 123 421 125 400 l 7 421 l 7 571 l 95 571 q 72 734 72 652 q 146 933 72 855 q 331 1011 220 1011 q 502 947 435 1011 q 585 750 569 882 l 435 723 q 327 859 415 859 q 254 824 284 859 q 223 732 223 789 q 251 571 223 664 l 425 571 l 425 421 l 277 421 q 278 391 278 406 q 261 293 278 338 q 193 173 245 247 q 270 192 224 192 q 308 189 290 192 q 381 167 317 186 q 442 155 418 155 q 556 193 485 155 z "},"§":{"ha":633,"x_min":33,"x_max":594,"o":"m 549 783 l 396 763 q 311 866 391 866 q 257 848 277 866 q 237 802 237 829 q 256 748 237 773 q 381 639 274 723 q 523 515 486 557 q 577 428 559 473 q 594 329 594 382 q 493 116 594 203 q 544 35 527 78 q 560 -56 560 -8 q 496 -228 560 -163 q 321 -292 431 -292 q 146 -228 216 -292 q 64 -46 77 -164 l 217 -24 q 326 -146 236 -146 q 384 -124 361 -146 q 406 -66 406 -102 q 401 -37 406 -51 q 386 -10 396 -23 q 241 111 366 16 q 74 275 114 209 q 33 422 33 341 q 136 641 33 569 q 94 715 109 677 q 80 792 80 753 q 141 950 80 890 q 304 1011 203 1011 q 472 951 407 1011 q 549 783 536 890 m 409 199 q 458 297 458 252 q 444 347 458 323 q 374 419 429 370 l 223 553 q 186 510 203 539 q 175 461 175 488 q 250 331 175 393 l 409 199 z "},"•":{"ha":399,"x_min":37,"x_max":366,"o":"m 366 491 q 316 348 366 405 q 201 290 267 290 q 86 348 136 290 q 37 491 37 405 q 86 634 37 577 q 201 691 136 691 q 316 634 267 691 q 366 491 366 577 z "},"¶":{"ha":633,"x_min":-1,"x_max":628,"o":"m 353 -273 l 218 -273 l 218 437 q 58 517 117 446 q -1 713 -1 588 q 25 852 -1 792 q 90 943 51 913 q 174 986 128 973 q 296 994 205 994 l 628 994 l 628 817 l 565 817 l 565 -273 l 433 -273 l 433 817 l 353 817 l 353 -273 z "},"ß":{"ha":696,"x_min":77,"x_max":656,"o":"m 77 0 l 77 646 q 94 838 77 778 q 176 968 117 925 q 321 1011 234 1011 q 488 955 429 1011 q 547 805 547 899 q 513 671 547 747 q 477 570 477 591 q 487 531 477 551 q 558 437 498 511 q 635 318 614 368 q 656 215 656 269 q 598 47 656 111 q 458 -16 541 -16 q 353 19 402 -16 q 278 112 304 54 l 387 190 q 445 136 410 136 q 483 156 467 136 q 499 206 499 176 q 487 254 499 232 q 406 357 475 277 q 312 529 312 467 q 349 661 312 570 q 381 751 376 732 q 387 790 387 770 q 367 842 387 821 q 319 862 348 862 q 270 844 292 862 q 241 790 249 825 q 234 646 234 755 l 234 0 l 77 0 z "},"®":{"ha":839,"x_min":-5,"x_max":846,"o":"m 420 1015 q 626 950 529 1015 q 785 763 724 886 q 846 495 846 641 q 785 227 846 349 q 626 40 724 104 q 420 -24 528 -24 q 215 40 313 -24 q 56 227 117 104 q -5 495 -5 349 q 56 763 -5 641 q 215 950 117 886 q 420 1015 313 1015 m 421 913 q 256 861 334 913 q 129 711 178 810 q 79 495 79 612 q 129 279 79 378 q 256 129 178 180 q 421 77 335 77 q 586 129 508 77 q 714 279 665 180 q 764 495 764 378 q 714 711 764 612 q 586 861 665 810 q 421 913 508 913 m 228 217 l 228 768 l 320 768 q 483 765 458 768 q 564 717 532 757 q 595 614 595 677 q 562 509 595 551 q 473 458 528 468 q 518 421 500 446 q 569 328 536 396 l 622 217 l 509 217 l 471 307 q 408 420 433 397 q 344 444 382 444 l 320 444 l 320 217 l 228 217 m 320 530 l 357 530 q 449 536 432 530 q 484 561 471 542 q 497 606 497 580 q 484 651 497 633 q 448 675 471 669 q 357 681 431 681 l 320 681 l 320 530 z "},"©":{"ha":839,"x_min":-5,"x_max":846,"o":"m 420 1015 q 626 950 529 1015 q 785 763 724 886 q 846 495 846 641 q 785 227 846 349 q 626 40 724 104 q 420 -24 528 -24 q 215 40 313 -24 q 56 227 117 104 q -5 495 -5 349 q 56 763 -5 641 q 215 950 117 886 q 420 1015 313 1015 m 420 912 q 255 861 334 912 q 128 711 177 809 q 79 495 79 612 q 128 279 79 378 q 255 130 177 181 q 420 78 334 78 q 586 130 507 78 q 713 279 664 181 q 763 495 763 378 q 713 711 763 612 q 586 861 664 809 q 420 912 507 912 m 524 418 l 614 381 q 543 249 592 293 q 427 205 493 205 q 273 279 335 205 q 212 491 212 353 q 272 708 212 633 q 428 783 333 783 q 614 618 564 783 l 524 592 q 425 686 495 686 q 342 640 375 686 q 309 496 309 594 q 341 349 309 396 q 415 302 373 302 q 524 418 497 302 z "},"™":{"ha":1139,"x_min":120,"x_max":999,"o":"m 261 439 l 261 898 l 120 898 l 120 994 l 490 994 l 490 898 l 353 898 l 353 439 l 261 439 m 545 439 l 545 994 l 689 994 l 772 612 l 855 994 l 999 994 l 999 439 l 911 439 l 911 882 l 813 439 l 729 439 l 632 882 l 632 439 l 545 439 z "},"´":{"ha":379,"x_min":104,"x_max":356,"o":"m 104 808 l 180 1011 l 356 1011 l 203 808 l 104 808 z "},"¨":{"ha":379,"x_min":3,"x_max":376,"o":"m 3 848 l 3 1011 l 137 1011 l 137 848 l 3 848 m 242 848 l 242 1011 l 376 1011 l 376 848 l 242 848 z "},"≠":{"ha":762,"x_min":33,"x_max":728,"o":"m 286 428 l 332 553 l 33 553 l 33 728 l 397 728 l 498 998 l 641 998 l 541 728 l 728 728 l 728 553 l 475 553 l 428 428 l 728 428 l 728 252 l 362 252 l 261 -17 l 121 -17 l 221 252 l 33 252 l 33 428 l 286 428 z "},"Æ":{"ha":1139,"x_min":-47,"x_max":1084,"o":"m -47 0 l 333 994 l 1069 994 l 1069 826 l 665 826 l 665 605 l 1038 605 l 1038 437 l 665 437 l 665 168 l 1084 168 l 1084 0 l 501 0 l 501 234 l 218 234 l 135 0 l -47 0 m 279 408 l 503 408 l 503 844 l 439 844 l 279 408 z "},"Ø":{"ha":886,"x_min":35,"x_max":854,"o":"m 689 922 l 777 1042 l 854 959 l 762 831 q 840 490 840 701 q 747 140 840 281 q 449 -17 645 -17 q 204 68 298 -17 l 115 -56 l 35 28 l 130 159 q 72 300 89 228 q 49 505 49 395 q 168 888 49 746 q 444 1011 269 1011 q 689 922 591 1011 m 587 782 q 445 840 531 840 q 282 756 345 840 q 219 498 219 673 q 244 314 219 389 l 587 782 m 648 675 l 306 207 q 444 146 362 146 q 606 232 542 146 q 670 497 670 319 q 648 675 670 600 z "},"∞":{"ha":990,"x_min":103,"x_max":889,"o":"m 462 572 q 564 690 512 654 q 681 726 616 726 q 830 663 770 726 q 889 490 889 600 q 830 316 889 380 q 681 253 770 253 q 565 289 617 253 q 462 408 513 325 q 368 321 421 351 q 267 291 315 291 q 151 344 199 291 q 103 490 103 397 q 151 635 103 582 q 267 688 199 688 q 368 658 315 688 q 462 572 421 628 m 525 491 q 605 384 582 404 q 683 353 641 353 q 762 393 734 353 q 790 492 790 433 q 760 591 790 556 q 685 627 729 627 q 615 602 650 627 q 525 491 581 578 m 404 492 q 275 588 336 588 q 221 563 243 588 q 198 493 198 538 q 220 421 198 447 q 275 395 243 395 q 322 410 301 395 q 404 492 359 434 z "},"±":{"ha":762,"x_min":34,"x_max":729,"o":"m 294 241 l 294 500 l 34 500 l 34 678 l 294 678 l 294 937 l 468 937 l 468 678 l 729 678 l 729 500 l 468 500 l 468 241 l 294 241 m 34 0 l 34 178 l 729 178 l 729 0 l 34 0 z "},"≤":{"ha":762,"x_min":41,"x_max":722,"o":"m 722 228 l 41 524 l 41 688 l 722 983 l 722 790 l 247 608 l 722 419 l 722 228 m 41 0 l 41 178 l 722 178 l 722 0 l 41 0 z "},"≥":{"ha":762,"x_min":41,"x_max":722,"o":"m 41 229 l 41 420 l 517 608 l 41 793 l 41 983 l 722 689 l 722 526 l 41 229 m 41 0 l 41 178 l 722 178 l 722 0 l 41 0 z "},"¥":{"ha":633,"x_min":1,"x_max":628,"o":"m 235 193 l 28 193 l 28 319 l 235 319 l 235 416 l 28 416 l 28 543 l 183 543 l 1 994 l 172 994 l 283 705 q 313 610 304 650 q 343 705 324 655 l 456 994 l 628 994 l 444 543 l 600 543 l 600 416 l 391 416 l 391 319 l 600 319 l 600 193 l 391 193 l 391 0 l 235 0 l 235 193 z "},"µ":{"ha":800,"x_min":75,"x_max":730,"o":"m 75 720 l 264 720 l 264 394 q 293 202 264 253 q 399 136 329 136 q 471 161 437 136 q 522 229 505 185 q 538 392 538 272 l 538 720 l 730 720 l 730 0 l 553 0 l 553 87 q 514 30 532 49 q 465 -3 496 11 q 408 -18 434 -18 q 323 9 360 -18 q 264 87 296 28 l 264 -276 l 75 -276 l 75 720 z "},"∂":{"ha":686,"x_min":30,"x_max":663,"o":"m 257 762 l 164 819 q 266 963 199 915 q 415 1011 333 1011 q 574 943 513 1011 q 663 640 663 845 q 606 296 663 463 q 450 57 550 130 q 241 -17 351 -17 q 89 45 147 -17 q 30 223 30 108 q 89 429 30 330 q 269 585 148 527 q 560 639 391 642 q 510 840 559 774 q 412 888 473 888 q 330 861 365 888 q 257 762 295 834 m 552 514 q 522 515 532 515 q 349 477 429 515 q 227 370 269 439 q 185 229 185 300 q 214 144 185 176 q 281 112 242 112 q 428 190 361 112 q 552 514 524 302 z "},"∑":{"ha":990,"x_min":83,"x_max":940,"o":"m 94 1011 l 933 1011 l 933 900 l 263 900 l 675 374 l 235 -183 l 940 -183 l 940 -292 l 83 -292 l 83 -165 l 503 369 l 94 892 l 94 1011 z "},"∏":{"ha":1143,"x_min":109,"x_max":1033,"o":"m 109 1011 l 1033 1011 l 1033 -292 l 903 -292 l 903 893 l 240 893 l 240 -292 l 109 -292 l 109 1011 z "},"∫":{"ha":380,"x_min":0,"x_max":380,"o":"m 136 643 l 148 1003 q 182 1175 154 1107 q 232 1241 200 1219 q 295 1263 264 1263 q 354 1241 329 1263 q 380 1191 380 1218 q 362 1140 380 1159 q 317 1120 344 1120 q 266 1145 294 1120 q 239 1158 250 1158 q 219 1148 227 1158 q 212 1115 212 1139 q 218 1017 212 1086 q 243 566 243 739 q 232 167 243 520 q 171 -104 227 -33 q 80 -149 134 -149 q 22 -126 45 -149 q 0 -67 0 -103 q 17 -18 0 -37 q 61 0 35 0 q 108 -22 88 0 q 141 -43 127 -43 q 160 -34 153 -43 q 168 -2 168 -24 q 161 79 168 26 q 136 643 136 293 z "},"ª":{"ha":421,"x_min":21,"x_max":394,"o":"m 142 849 l 37 875 q 90 978 50 945 q 207 1011 130 1011 q 323 988 282 1011 q 368 930 354 970 q 378 820 378 901 l 378 658 q 381 564 378 587 q 394 516 385 540 l 289 516 q 276 564 281 534 q 221 519 252 534 q 156 504 191 504 q 58 543 96 504 q 21 650 21 583 q 37 726 21 695 q 81 773 52 756 q 195 810 109 790 q 264 833 239 821 q 257 886 262 878 q 208 905 245 905 q 165 894 179 905 q 142 849 154 886 m 264 743 q 212 724 252 734 q 153 700 164 711 q 136 661 136 683 q 152 622 136 638 q 190 606 168 606 q 243 633 222 606 q 264 715 264 661 l 264 743 z "},"º":{"ha":415,"x_min":14,"x_max":400,"o":"m 14 756 q 68 946 14 880 q 208 1011 122 1011 q 346 945 292 1011 q 400 756 400 880 q 346 567 400 633 q 208 502 292 502 q 68 567 123 502 q 14 756 14 633 m 132 755 q 152 649 132 680 q 207 617 173 617 q 259 649 239 617 q 280 755 280 681 q 259 861 280 830 q 205 892 238 892 q 152 861 173 892 q 132 755 132 829 z "},"Ω":{"ha":1067,"x_min":37,"x_max":1038,"o":"m 313 140 q 188 216 235 173 q 86 362 119 277 q 52 550 52 448 q 182 890 52 760 q 527 1019 312 1019 q 791 966 685 1019 q 961 800 897 912 q 1024 551 1024 688 q 961 307 1024 414 q 765 141 897 199 l 989 157 l 1038 157 l 1038 0 l 602 0 l 602 165 q 706 236 668 197 q 784 368 758 290 q 810 532 810 446 q 732 785 810 699 q 534 871 654 871 q 341 783 418 871 q 263 535 263 695 q 293 363 263 443 q 377 229 322 284 q 475 165 412 194 l 475 0 l 37 0 l 37 156 l 104 156 l 313 140 z "},"æ":{"ha":1013,"x_min":49,"x_max":959,"o":"m 798 230 l 951 197 q 691 -16 888 -16 q 479 83 565 -16 q 375 11 438 39 q 250 -16 313 -16 q 104 42 159 -16 q 49 195 49 100 q 83 323 49 268 q 161 391 109 366 q 319 438 194 407 q 412 468 373 452 q 403 544 412 523 q 372 578 394 565 q 315 591 349 591 q 246 570 273 591 q 207 500 219 549 l 66 534 q 155 690 94 643 q 335 736 216 736 q 515 670 452 736 q 677 736 584 736 q 825 692 762 736 q 923 557 888 648 q 959 304 959 467 l 566 304 q 689 129 583 129 q 798 230 770 129 m 805 423 q 786 523 801 490 q 744 573 770 555 q 684 591 717 591 q 596 538 627 591 q 568 423 566 486 l 805 423 m 411 345 q 263 294 273 299 q 219 261 233 281 q 205 213 205 240 q 230 145 205 172 q 292 118 255 118 q 359 142 328 118 q 401 199 391 165 q 411 345 411 233 z "},"ø":{"ha":696,"x_min":49,"x_max":659,"o":"m 527 677 l 585 759 l 647 696 l 587 612 q 638 500 618 568 q 659 361 659 433 q 616 163 659 251 q 504 29 574 75 q 352 -16 434 -16 q 181 41 257 -16 l 117 -50 l 56 15 l 120 106 q 49 366 49 212 q 90 561 49 474 q 200 692 132 648 q 353 736 269 736 q 527 677 453 736 m 439 554 q 354 591 401 591 q 248 532 293 591 q 203 366 203 474 q 220 245 203 298 l 439 554 m 486 471 l 269 164 q 352 132 306 132 q 459 189 415 132 q 503 355 503 247 q 486 471 503 415 z "},"¿":{"ha":696,"x_min":56,"x_max":642,"o":"m 425 720 l 425 530 l 268 530 l 268 720 l 425 720 m 283 464 l 425 464 l 425 415 q 401 279 425 335 q 312 159 377 223 q 224 58 239 86 q 208 -8 208 31 q 247 -101 208 -63 q 343 -139 286 -139 q 498 28 468 -139 l 642 6 q 548 -208 627 -132 q 349 -285 469 -285 q 140 -203 223 -285 q 56 0 56 -121 q 90 126 56 68 q 212 274 123 184 q 272 354 260 322 q 283 464 284 385 z "},"¡":{"ha":379,"x_min":109,"x_max":277,"o":"m 271 720 l 271 530 l 115 530 l 115 720 l 271 720 m 237 460 l 277 -43 l 277 -276 l 109 -276 l 109 -43 l 149 460 l 237 460 z "},"¬":{"ha":665,"x_min":47,"x_max":617,"o":"m 474 255 l 474 554 l 47 554 l 47 728 l 617 728 l 617 255 l 474 255 z "},"√":{"ha":762,"x_min":57,"x_max":762,"o":"m 712 1267 l 762 1267 l 551 -53 l 214 640 l 80 578 l 57 621 l 261 724 l 536 165 l 712 1267 z "},"ƒ":{"ha":633,"x_min":-11,"x_max":635,"o":"m 153 577 l 174 720 l 286 720 l 295 781 q 321 909 311 880 q 378 986 339 961 q 486 1011 416 1011 q 635 983 562 1011 l 606 830 q 517 849 553 849 q 473 833 488 849 q 449 758 458 817 l 443 720 l 558 720 l 538 577 l 424 577 l 328 -86 q 279 -237 313 -195 q 147 -292 237 -292 q -11 -265 58 -292 l 21 -115 q 114 -131 81 -131 q 160 -109 148 -131 q 183 -15 173 -87 l 266 577 l 153 577 z "},"≈":{"ha":762,"x_min":21,"x_max":741,"o":"m 21 516 l 21 691 q 222 785 107 785 q 300 776 264 785 q 413 736 336 768 q 514 699 490 706 q 556 692 538 692 q 644 716 594 692 q 741 791 694 739 l 741 608 q 654 546 710 575 q 538 517 598 517 q 472 526 505 517 q 370 564 440 534 q 206 610 266 610 q 21 516 111 610 m 21 187 l 21 363 q 222 456 107 456 q 300 447 264 456 q 413 408 336 439 q 514 371 490 378 q 556 364 538 364 q 644 388 594 364 q 741 462 694 411 l 741 279 q 654 217 710 246 q 538 189 598 189 q 472 197 505 189 q 370 236 440 205 q 206 281 266 281 q 21 187 111 281 z "},"∆":{"ha":850,"x_min":18,"x_max":831,"o":"m 831 0 l 18 0 l 444 941 l 831 0 m 671 56 l 401 711 l 102 56 l 671 56 z "},"«":{"ha":633,"x_min":54,"x_max":570,"o":"m 352 667 l 208 361 l 352 47 l 229 47 l 54 361 l 229 667 l 352 667 m 570 667 l 426 361 l 570 47 l 448 47 l 272 361 l 448 667 l 570 667 z "},"»":{"ha":633,"x_min":59,"x_max":576,"o":"m 277 47 l 421 354 l 277 667 l 400 667 l 576 354 l 400 47 l 277 47 m 59 47 l 203 354 l 59 667 l 182 667 l 357 354 l 182 47 l 59 47 z "},"…":{"ha":1139,"x_min":112,"x_max":1027,"o":"m 871 0 l 871 191 l 1027 191 l 1027 0 l 871 0 m 492 0 l 492 191 l 648 191 l 648 0 l 492 0 m 112 0 l 112 191 l 269 191 l 269 0 l 112 0 z "}," ":{"ha":633,"x_min":0,"x_max":0,"o":""},"À":{"ha":822,"x_min":0,"x_max":818,"o":"m 818 0 l 639 0 l 568 226 l 242 226 l 175 0 l 0 0 l 317 994 l 492 994 l 818 0 m 515 393 l 403 762 l 292 393 l 515 393 m 495 1061 l 396 1061 l 243 1263 l 418 1263 l 495 1061 z "},"Ã":{"ha":822,"x_min":0,"x_max":818,"o":"m 818 0 l 639 0 l 568 226 l 242 226 l 175 0 l 0 0 l 317 994 l 492 994 l 818 0 m 515 393 l 403 762 l 292 393 l 515 393 m 283 1069 l 213 1069 l 212 1092 q 241 1204 212 1166 q 314 1242 270 1242 q 350 1236 333 1242 q 405 1211 367 1231 q 479 1183 455 1183 q 525 1242 518 1183 l 597 1242 q 569 1111 596 1150 q 498 1072 541 1072 q 462 1077 479 1072 q 402 1102 449 1080 q 322 1128 346 1128 q 295 1115 305 1128 q 283 1069 284 1102 z "},"Õ":{"ha":886,"x_min":50,"x_max":841,"o":"m 50 491 q 103 784 50 669 q 240 955 155 899 q 446 1011 325 1011 q 731 878 621 1011 q 841 497 841 744 q 724 107 841 248 q 446 -17 622 -17 q 167 106 269 -17 q 50 491 50 246 m 220 498 q 285 240 220 326 q 446 155 350 155 q 607 240 543 155 q 671 501 671 325 q 609 757 671 674 q 446 840 547 840 q 283 756 346 840 q 220 498 220 673 m 319 1069 l 249 1069 l 248 1092 q 277 1204 248 1166 q 350 1242 306 1242 q 386 1236 369 1242 q 441 1211 403 1231 q 515 1183 491 1183 q 561 1242 554 1183 l 633 1242 q 605 1111 632 1150 q 534 1072 577 1072 q 498 1077 515 1072 q 438 1102 485 1080 q 358 1128 382 1128 q 331 1115 341 1128 q 319 1069 320 1102 z "},"Œ":{"ha":1139,"x_min":40,"x_max":1103,"o":"m 1103 169 l 1103 0 l 580 0 l 580 117 q 494 17 547 50 q 365 -17 440 -17 q 141 96 222 -17 q 40 498 40 237 q 139 895 40 758 q 359 1011 222 1011 q 484 978 426 1011 q 580 884 543 944 l 580 994 l 1088 994 l 1088 826 l 722 826 l 722 605 l 1057 605 l 1057 437 l 722 437 l 722 169 l 1103 169 m 390 840 q 264 773 309 840 q 210 513 210 692 q 264 227 210 313 q 390 159 306 159 q 515 226 475 159 q 570 513 570 313 q 520 767 570 693 q 390 840 471 840 z "},"œ":{"ha":1075,"x_min":49,"x_max":1029,"o":"m 869 231 l 1021 201 q 925 40 993 96 q 764 -16 857 -16 q 650 9 705 -16 q 555 84 596 35 q 460 9 511 34 q 349 -16 408 -16 q 135 86 222 -16 q 49 360 49 189 q 90 562 49 474 q 198 693 132 650 q 351 736 265 736 q 464 711 412 736 q 557 636 515 686 q 754 736 633 736 q 896 691 833 736 q 995 553 960 646 q 1028 304 1029 460 l 640 304 q 680 172 645 215 q 764 129 714 129 q 826 152 800 129 q 869 231 852 176 m 878 423 q 840 555 873 513 q 757 596 806 596 q 670 543 703 596 q 641 423 647 505 l 878 423 m 210 349 q 247 206 210 271 q 349 142 284 142 q 446 197 406 142 q 486 366 486 252 q 446 524 486 470 q 349 578 406 578 q 249 523 289 578 q 210 349 210 467 z "},"–":{"ha":633,"x_min":-2,"x_max":631,"o":"m -2 289 l -2 431 l 631 431 l 631 289 l -2 289 z "},"—":{"ha":1139,"x_min":0,"x_max":1139,"o":"m 0 289 l 0 431 l 1139 431 l 1139 289 l 0 289 z "},"“":{"ha":570,"x_min":73,"x_max":503,"o":"m 490 581 l 334 581 l 334 718 q 361 890 334 833 q 473 994 394 960 l 503 915 q 436 863 457 897 q 415 772 416 830 l 490 772 l 490 581 m 230 581 l 73 581 l 73 718 q 103 897 73 834 q 212 994 134 960 l 242 915 q 176 863 197 897 q 154 772 155 830 l 230 772 l 230 581 z "},"”":{"ha":570,"x_min":58,"x_max":490,"o":"m 334 994 l 490 994 l 490 857 q 463 686 490 743 q 351 581 430 616 l 321 661 q 388 713 367 680 q 409 804 408 747 l 334 804 l 334 994 m 71 994 l 227 994 l 227 857 q 200 685 227 742 q 89 581 167 616 l 58 661 q 125 712 104 680 q 146 804 145 745 l 71 804 l 71 994 z "},"‘":{"ha":317,"x_min":85,"x_max":254,"o":"m 241 581 l 85 581 l 85 718 q 115 897 85 834 q 223 994 145 960 l 254 915 q 188 863 208 897 q 165 772 167 830 l 241 772 l 241 581 z "},"’":{"ha":317,"x_min":63,"x_max":232,"o":"m 76 994 l 232 994 l 232 857 q 205 685 232 742 q 94 581 172 616 l 63 661 q 130 712 109 680 q 151 804 150 745 l 76 804 l 76 994 z "},"÷":{"ha":762,"x_min":33,"x_max":728,"o":"m 286 665 l 286 856 l 476 856 l 476 665 l 286 665 m 33 401 l 33 580 l 728 580 l 728 401 l 33 401 m 286 125 l 286 316 l 476 316 l 476 125 l 286 125 z "},"◊":{"ha":686,"x_min":32,"x_max":656,"o":"m 372 964 l 656 481 l 372 0 l 297 0 l 32 481 l 297 964 l 372 964 m 336 899 l 105 481 l 336 64 l 579 481 l 336 899 z "},"ÿ":{"ha":633,"x_min":7,"x_max":614,"o":"m 7 720 l 174 720 l 315 209 l 453 720 l 614 720 l 406 27 l 366 -108 q 314 -219 340 -184 q 247 -273 288 -254 q 148 -292 207 -292 q 59 -281 102 -292 l 45 -132 q 111 -140 82 -140 q 185 -111 156 -140 q 232 -2 214 -81 l 7 720 m 127 848 l 127 1011 l 262 1011 l 262 848 l 127 848 m 367 848 l 367 1011 l 501 1011 l 501 848 l 367 848 z "},"Ÿ":{"ha":760,"x_min":-1,"x_max":761,"o":"m 297 0 l 297 418 l -1 994 l 191 994 l 383 601 l 572 994 l 761 994 l 461 417 l 461 0 l 297 0 m 193 1099 l 193 1263 l 328 1263 l 328 1099 l 193 1099 m 433 1099 l 433 1263 l 567 1263 l 567 1099 l 433 1099 z "},"⁄":{"ha":191,"x_min":-191,"x_max":381,"o":"m -102 -37 l -191 -37 l 293 1006 l 381 1006 l -102 -37 z "},"€":{"ha":633,"x_min":-18,"x_max":599,"o":"m 599 970 l 566 782 q 431 839 515 839 q 236 648 276 839 l 542 648 l 522 543 l 225 543 l 224 533 l 224 479 q 225 454 224 465 l 509 454 l 490 349 l 237 349 q 429 154 275 154 q 593 235 526 154 l 593 28 q 427 -17 522 -17 q 192 77 287 -17 q 65 349 98 172 l -18 349 l 0 454 l 54 454 l 54 543 l -18 543 l 0 648 l 66 648 q 198 918 102 825 q 435 1011 294 1011 q 599 970 527 1011 z "},"‹":{"ha":379,"x_min":42,"x_max":340,"o":"m 340 667 l 197 361 l 340 47 l 218 47 l 42 361 l 218 667 l 340 667 z "},"›":{"ha":379,"x_min":41,"x_max":340,"o":"m 41 47 l 186 354 l 41 667 l 164 667 l 340 354 l 164 47 l 41 47 z "},"ﬁ":{"ha":696,"x_min":17,"x_max":612,"o":"m 17 720 l 104 720 l 104 774 q 122 917 104 873 q 183 986 141 961 q 286 1011 224 1011 q 416 987 352 1011 l 395 854 q 323 865 357 865 q 275 846 290 865 q 260 771 260 827 l 260 720 l 376 720 l 376 570 l 260 570 l 260 0 l 104 0 l 104 570 l 17 570 l 17 720 m 456 818 l 456 994 l 612 994 l 612 818 l 456 818 m 456 0 l 456 720 l 612 720 l 612 0 l 456 0 z "},"ﬂ":{"ha":696,"x_min":17,"x_max":612,"o":"m 17 720 l 104 720 l 104 774 q 122 917 104 873 q 183 986 141 961 q 286 1011 224 1011 q 416 987 352 1011 l 395 854 q 323 865 357 865 q 275 846 290 865 q 260 771 260 827 l 260 720 l 376 720 l 376 570 l 260 570 l 260 0 l 104 0 l 104 570 l 17 570 l 17 720 m 456 0 l 456 994 l 612 994 l 612 0 l 456 0 z "},"‡":{"ha":633,"x_min":38,"x_max":589,"o":"m 242 -237 l 242 -12 l 38 -12 l 38 146 l 242 146 l 242 591 l 38 591 l 38 749 l 242 749 l 242 982 l 389 982 l 389 749 l 589 749 l 589 591 l 389 591 l 389 146 l 589 146 l 589 -12 l 389 -12 l 389 -237 l 242 -237 z "},"∙":{"ha":317,"x_min":82,"x_max":239,"o":"m 82 389 l 82 579 l 239 579 l 239 389 l 82 389 z "},"‚":{"ha":317,"x_min":65,"x_max":234,"o":"m 78 191 l 234 191 l 234 54 q 207 -118 234 -62 q 96 -222 174 -188 l 65 -143 q 132 -92 111 -124 q 153 0 152 -60 l 78 0 l 78 191 z "},"„":{"ha":570,"x_min":62,"x_max":494,"o":"m 338 191 l 494 191 l 494 54 q 467 -117 494 -61 q 355 -222 434 -188 l 325 -143 q 392 -90 371 -124 q 413 0 412 -56 l 338 0 l 338 191 m 75 191 l 231 191 l 231 54 q 204 -118 231 -62 q 93 -222 171 -188 l 62 -143 q 129 -91 109 -124 q 151 0 149 -58 l 75 0 l 75 191 z "},"‰":{"ha":1139,"x_min":1,"x_max":1139,"o":"m 1 759 q 46 949 1 886 q 163 1011 92 1011 q 277 949 232 1011 q 322 752 322 887 q 277 553 322 615 q 159 490 231 490 q 45 552 89 490 q 1 759 1 614 m 109 751 q 125 621 109 655 q 161 596 138 596 q 195 621 184 596 q 212 751 212 656 q 196 880 212 846 q 161 905 184 905 q 125 881 137 905 q 109 751 109 846 m 156 -35 l 496 1011 l 606 1011 l 265 -35 l 156 -35 m 444 229 q 490 419 444 357 q 606 481 536 481 q 721 419 675 481 q 766 222 766 357 q 721 23 766 85 q 603 -40 675 -40 q 488 22 532 -40 q 444 229 444 83 m 553 221 q 569 92 553 125 q 604 66 581 66 q 639 91 627 66 q 656 221 656 126 q 640 351 656 316 q 604 376 627 376 q 569 351 581 376 q 553 221 553 316 m 817 229 q 863 419 817 357 q 979 481 909 481 q 1094 419 1048 481 q 1139 223 1139 357 q 1093 23 1139 85 q 975 -40 1048 -40 q 861 22 905 -40 q 817 229 817 83 m 925 221 q 930 123 925 145 q 952 76 937 91 q 976 66 962 66 q 1012 91 1000 66 q 1029 221 1029 125 q 1012 351 1029 316 q 977 376 1000 376 q 942 351 954 376 q 925 221 925 315 z "},"Â":{"ha":822,"x_min":0,"x_max":818,"o":"m 818 0 l 639 0 l 568 226 l 242 226 l 175 0 l 0 0 l 317 994 l 492 994 l 818 0 m 515 393 l 403 762 l 292 393 l 515 393 m 221 1063 l 338 1263 l 482 1263 l 597 1063 l 472 1063 l 408 1164 l 348 1063 l 221 1063 z "},"Ê":{"ha":760,"x_min":83,"x_max":703,"o":"m 83 0 l 83 994 l 688 994 l 688 826 l 248 826 l 248 606 l 657 606 l 657 438 l 248 438 l 248 168 l 703 168 l 703 0 l 83 0 m 192 1063 l 309 1263 l 453 1263 l 568 1063 l 443 1063 l 378 1164 l 319 1063 l 192 1063 z "},"Á":{"ha":822,"x_min":0,"x_max":818,"o":"m 818 0 l 639 0 l 568 226 l 242 226 l 175 0 l 0 0 l 317 994 l 492 994 l 818 0 m 515 393 l 403 762 l 292 393 l 515 393 m 323 1061 l 400 1263 l 576 1263 l 422 1061 l 323 1061 z "},"Ë":{"ha":760,"x_min":83,"x_max":703,"o":"m 83 0 l 83 994 l 688 994 l 688 826 l 248 826 l 248 606 l 657 606 l 657 438 l 248 438 l 248 168 l 703 168 l 703 0 l 83 0 m 193 1099 l 193 1263 l 328 1263 l 328 1099 l 193 1099 m 433 1099 l 433 1263 l 567 1263 l 567 1099 l 433 1099 z "},"È":{"ha":760,"x_min":83,"x_max":703,"o":"m 83 0 l 83 994 l 688 994 l 688 826 l 248 826 l 248 606 l 657 606 l 657 438 l 248 438 l 248 168 l 703 168 l 703 0 l 83 0 m 467 1061 l 368 1061 l 214 1263 l 389 1263 l 467 1061 z "},"Í":{"ha":317,"x_min":75,"x_max":327,"o":"m 78 0 l 78 994 l 242 994 l 242 0 l 78 0 m 75 1061 l 151 1263 l 327 1263 l 174 1061 l 75 1061 z "},"Î":{"ha":317,"x_min":-28,"x_max":349,"o":"m 78 0 l 78 994 l 242 994 l 242 0 l 78 0 m -28 1063 l 89 1263 l 233 1263 l 349 1063 l 223 1063 l 159 1164 l 99 1063 l -28 1063 z "},"Ï":{"ha":317,"x_min":-26,"x_max":347,"o":"m 78 0 l 78 994 l 242 994 l 242 0 l 78 0 m -26 1099 l -26 1263 l 108 1263 l 108 1099 l -26 1099 m 213 1099 l 213 1263 l 347 1263 l 347 1099 l 213 1099 z "},"Ì":{"ha":317,"x_min":-5,"x_max":247,"o":"m 78 0 l 78 994 l 242 994 l 242 0 l 78 0 m 247 1061 l 148 1061 l -5 1263 l 170 1263 l 247 1061 z "},"Ó":{"ha":886,"x_min":50,"x_max":841,"o":"m 50 491 q 103 784 50 669 q 240 955 155 899 q 446 1011 325 1011 q 731 878 621 1011 q 841 497 841 744 q 724 107 841 248 q 446 -17 622 -17 q 167 106 269 -17 q 50 491 50 246 m 220 498 q 285 240 220 326 q 446 155 350 155 q 607 240 543 155 q 671 501 671 325 q 609 757 671 674 q 446 840 547 840 q 283 756 346 840 q 220 498 220 673 m 359 1061 l 436 1263 l 612 1263 l 458 1061 l 359 1061 z "},"Ô":{"ha":886,"x_min":50,"x_max":841,"o":"m 50 491 q 103 784 50 669 q 240 955 155 899 q 446 1011 325 1011 q 731 878 621 1011 q 841 497 841 744 q 724 107 841 248 q 446 -17 622 -17 q 167 106 269 -17 q 50 491 50 246 m 220 498 q 285 240 220 326 q 446 155 350 155 q 607 240 543 155 q 671 501 671 325 q 609 757 671 674 q 446 840 547 840 q 283 756 346 840 q 220 498 220 673 m 257 1063 l 374 1263 l 518 1263 l 633 1063 l 508 1063 l 444 1164 l 384 1063 l 257 1063 z "},"Ò":{"ha":886,"x_min":50,"x_max":841,"o":"m 50 491 q 103 784 50 669 q 240 955 155 899 q 446 1011 325 1011 q 731 878 621 1011 q 841 497 841 744 q 724 107 841 248 q 446 -17 622 -17 q 167 106 269 -17 q 50 491 50 246 m 220 498 q 285 240 220 326 q 446 155 350 155 q 607 240 543 155 q 671 501 671 325 q 609 757 671 674 q 446 840 547 840 q 283 756 346 840 q 220 498 220 673 m 532 1061 l 433 1061 l 279 1263 l 454 1263 l 532 1061 z "},"Ú":{"ha":822,"x_min":81,"x_max":732,"o":"m 81 994 l 245 994 l 245 456 q 252 292 245 330 q 303 191 262 227 q 412 155 345 155 q 505 180 469 155 q 554 251 541 205 q 567 444 567 296 l 567 994 l 732 994 l 732 472 q 710 183 732 272 q 614 38 689 94 q 416 -17 539 -17 q 217 29 289 -17 q 114 158 146 75 q 81 464 81 241 l 81 994 m 323 1061 l 399 1263 l 575 1263 l 422 1061 l 323 1061 z "},"Û":{"ha":822,"x_min":81,"x_max":732,"o":"m 81 994 l 245 994 l 245 456 q 252 292 245 330 q 303 191 262 227 q 412 155 345 155 q 505 180 469 155 q 554 251 541 205 q 567 444 567 296 l 567 994 l 732 994 l 732 472 q 710 183 732 272 q 614 38 689 94 q 416 -17 539 -17 q 217 29 289 -17 q 114 158 146 75 q 81 464 81 241 l 81 994 m 220 1063 l 337 1263 l 481 1263 l 597 1063 l 471 1063 l 407 1164 l 347 1063 l 220 1063 z "},"Ù":{"ha":822,"x_min":81,"x_max":732,"o":"m 81 994 l 245 994 l 245 456 q 252 292 245 330 q 303 191 262 227 q 412 155 345 155 q 505 180 469 155 q 554 251 541 205 q 567 444 567 296 l 567 994 l 732 994 l 732 472 q 710 183 732 272 q 614 38 689 94 q 416 -17 539 -17 q 217 29 289 -17 q 114 158 146 75 q 81 464 81 241 l 81 994 m 495 1061 l 396 1061 l 243 1263 l 418 1263 l 495 1061 z "},"ı":{"ha":317,"x_min":82,"x_max":239,"o":"m 82 0 l 82 720 l 239 720 l 239 0 l 82 0 z "},"ˆ":{"ha":379,"x_min":1,"x_max":378,"o":"m 1 811 l 118 1011 l 262 1011 l 378 811 l 252 811 l 188 912 l 128 811 l 1 811 z "},"˜":{"ha":379,"x_min":-7,"x_max":377,"o":"m 64 817 l -7 817 l -7 840 q 21 952 -7 914 q 94 989 50 989 q 130 984 113 989 q 185 958 147 979 q 260 931 235 931 q 305 990 298 931 l 377 990 q 349 859 376 898 q 278 820 321 820 q 242 825 260 820 q 182 850 229 828 q 102 876 126 876 q 75 863 85 876 q 64 817 64 850 z "},"ˉ":{"ha":379,"x_min":10,"x_max":368,"o":"m 10 839 l 10 964 l 368 964 l 368 839 l 10 839 z "},"˘":{"ha":379,"x_min":14,"x_max":361,"o":"m 285 1011 l 361 1011 q 307 865 355 916 q 188 814 259 814 q 69 865 117 814 q 14 1011 21 916 l 90 1011 q 188 913 99 913 q 285 1011 277 913 z "},"˙":{"ha":379,"x_min":114,"x_max":268,"o":"m 114 831 l 114 1011 l 268 1011 l 268 831 l 114 831 z "},"˚":{"ha":379,"x_min":81,"x_max":299,"o":"m 299 910 q 266 815 299 853 q 190 777 233 777 q 114 815 146 777 q 81 910 81 853 q 113 1005 81 968 q 190 1043 146 1043 q 266 1005 233 1043 q 299 910 299 968 m 239 910 q 224 954 239 937 q 190 970 210 970 q 155 954 170 970 q 140 910 140 937 q 155 867 140 884 q 190 850 170 850 q 224 867 210 850 q 239 910 239 884 z "},"¸":{"ha":379,"x_min":21,"x_max":324,"o":"m 21 -273 l 21 -193 q 126 -201 78 -201 q 195 -183 172 -201 q 218 -137 218 -165 q 200 -96 218 -112 q 147 -80 181 -80 q 75 -94 112 -80 l 89 -26 q 184 -8 132 -8 q 286 -44 248 -8 q 324 -136 324 -79 q 273 -243 324 -201 q 130 -284 222 -284 q 21 -273 58 -284 z "},"˝":{"ha":379,"x_min":54,"x_max":500,"o":"m 54 812 l 131 1014 l 294 1014 l 152 812 l 54 812 m 263 812 l 341 1014 l 500 1014 l 363 812 l 263 812 z "},"˛":{"ha":379,"x_min":89,"x_max":336,"o":"m 109 18 l 193 18 q 181 -80 181 -20 q 202 -161 181 -136 q 262 -187 223 -187 q 336 -172 296 -187 l 336 -263 q 227 -292 281 -292 q 127 -251 165 -292 q 89 -134 89 -210 q 109 18 89 -75 z "},"ˇ":{"ha":379,"x_min":1,"x_max":378,"o":"m 1 1011 l 128 1011 l 188 910 l 252 1011 l 378 1011 l 262 811 l 118 811 l 1 1011 z "},"Ł":{"ha":696,"x_min":5,"x_max":665,"o":"m 92 496 l 92 994 l 256 994 l 256 665 l 371 787 l 371 623 l 256 502 l 256 168 l 665 168 l 665 0 l 92 0 l 92 335 l 5 248 l 5 408 l 92 496 z "},"ł":{"ha":317,"x_min":6,"x_max":315,"o":"m 82 488 l 82 994 l 239 994 l 239 650 l 315 729 l 315 600 l 239 522 l 239 0 l 82 0 l 82 359 l 6 281 l 6 410 l 82 488 z "},"Š":{"ha":760,"x_min":41,"x_max":704,"o":"m 41 323 l 202 342 q 380 152 229 152 q 497 191 454 152 q 540 288 540 230 q 525 345 540 321 q 479 384 510 369 q 332 435 449 399 q 178 505 227 467 q 100 603 129 542 q 71 733 71 663 q 108 880 71 814 q 210 978 145 945 q 371 1011 275 1011 q 595 933 515 1011 q 681 710 676 855 l 516 701 q 469 813 505 781 q 367 845 433 845 q 264 817 300 845 q 229 748 229 789 q 261 680 229 707 q 411 618 294 652 q 590 543 535 583 q 675 440 646 503 q 704 288 704 378 q 624 71 704 159 q 375 -18 545 -18 q 41 323 75 -18 m 191 1263 l 318 1263 l 378 1162 l 442 1263 l 568 1263 l 452 1063 l 308 1063 l 191 1263 z "},"š":{"ha":633,"x_min":27,"x_max":579,"o":"m 27 205 l 184 235 q 310 121 204 121 q 394 143 366 121 q 422 199 422 165 q 410 237 422 223 q 359 260 397 250 q 114 357 166 311 q 49 515 49 415 q 113 676 49 616 q 298 736 176 736 q 474 691 414 736 q 559 546 534 646 l 412 513 q 300 600 392 600 q 218 583 243 600 q 194 540 194 566 q 216 500 194 516 q 355 452 239 484 q 533 363 486 415 q 579 224 579 311 q 508 52 579 119 q 310 -16 436 -16 q 123 40 195 -16 q 27 205 50 97 m 115 1011 l 241 1011 l 301 910 l 366 1011 l 491 1011 l 376 811 l 231 811 l 115 1011 z "},"Ž":{"ha":696,"x_min":12,"x_max":675,"o":"m 12 0 l 12 181 l 441 826 l 60 826 l 60 994 l 657 994 l 657 838 l 211 168 l 675 168 l 675 0 l 12 0 m 162 1263 l 289 1263 l 349 1162 l 413 1263 l 538 1263 l 423 1063 l 279 1063 l 162 1263 z "},"ž":{"ha":570,"x_min":19,"x_max":547,"o":"m 19 0 l 19 149 l 241 458 q 321 566 295 534 q 249 564 294 564 l 41 562 l 41 720 l 529 720 l 529 585 l 303 268 l 224 163 q 304 168 289 168 l 547 168 l 547 0 l 19 0 m 94 1011 l 221 1011 l 281 910 l 345 1011 l 471 1011 l 355 811 l 211 811 l 94 1011 z "},"¦":{"ha":319,"x_min":98,"x_max":222,"o":"m 98 475 l 98 1011 l 222 1011 l 222 475 l 98 475 m 98 -292 l 98 244 l 222 244 l 222 -292 l 98 -292 z "},"Ð":{"ha":822,"x_min":-2,"x_max":766,"o":"m 83 994 l 383 994 q 555 969 496 994 q 662 883 613 943 q 738 726 710 823 q 766 486 766 629 q 736 262 766 358 q 663 112 707 167 q 554 28 618 56 q 392 0 491 0 l 83 0 l 83 434 l -2 434 l -2 560 l 83 560 l 83 994 m 247 826 l 247 560 l 421 560 l 421 434 l 247 434 l 247 168 l 370 168 q 485 182 449 168 q 543 227 521 197 q 581 322 566 256 q 596 490 596 388 q 579 672 596 609 q 531 771 563 736 q 452 818 498 807 q 321 826 418 826 l 247 826 z "},"ð":{"ha":696,"x_min":46,"x_max":654,"o":"m 184 994 l 348 994 q 408 934 379 964 l 509 994 l 534 928 l 454 882 q 605 626 555 757 q 654 368 654 495 q 566 86 654 189 q 347 -17 477 -17 q 138 79 220 -17 q 46 361 46 189 q 142 638 46 532 q 305 720 215 720 q 361 711 334 720 q 429 673 387 702 q 348 821 395 747 l 208 740 l 184 805 l 306 875 q 184 994 251 937 m 209 359 q 250 195 209 251 q 348 138 290 138 q 449 195 406 138 q 491 353 491 251 q 448 513 491 455 q 347 570 404 570 q 250 516 291 570 q 209 359 209 462 z "},"Ý":{"ha":760,"x_min":-1,"x_max":761,"o":"m 297 0 l 297 418 l -1 994 l 191 994 l 383 601 l 572 994 l 761 994 l 461 417 l 461 0 l 297 0 m 294 1061 l 371 1263 l 547 1263 l 393 1061 l 294 1061 z "},"ý":{"ha":633,"x_min":7,"x_max":614,"o":"m 7 720 l 174 720 l 315 209 l 453 720 l 614 720 l 406 27 l 366 -108 q 314 -219 340 -184 q 247 -273 288 -254 q 148 -292 207 -292 q 59 -281 102 -292 l 45 -132 q 111 -140 82 -140 q 185 -111 156 -140 q 232 -2 214 -81 l 7 720 m 232 808 l 309 1011 l 484 1011 l 331 808 l 232 808 z "},"Þ":{"ha":760,"x_min":83,"x_max":707,"o":"m 83 0 l 83 994 l 247 994 l 247 807 l 347 807 q 541 792 496 807 q 660 694 613 769 q 707 500 707 619 q 667 320 707 393 q 565 217 626 247 q 355 187 504 187 l 247 187 l 247 0 l 83 0 m 247 639 l 247 356 l 338 356 q 467 368 437 356 q 516 414 496 379 q 537 498 537 448 q 516 584 537 550 q 467 629 495 618 q 327 639 439 639 l 247 639 z "},"þ":{"ha":696,"x_min":77,"x_max":654,"o":"m 77 994 l 234 994 l 234 636 q 320 715 281 694 q 407 736 359 736 q 581 640 508 736 q 654 367 654 544 q 581 82 654 181 q 406 -16 507 -16 q 319 6 359 -16 q 234 89 279 29 l 234 -274 l 77 -274 l 77 994 m 233 376 q 250 234 233 283 q 300 160 268 185 q 369 134 333 134 q 457 188 420 134 q 494 359 494 242 q 457 536 494 481 q 363 591 420 591 q 271 538 309 591 q 233 376 233 485 z "},"−":{"ha":665,"x_min":47,"x_max":617,"o":"m 47 401 l 47 580 l 617 580 l 617 401 l 47 401 z "},"×":{"ha":665,"x_min":60,"x_max":603,"o":"m 61 285 l 229 490 l 60 695 l 163 821 l 332 616 l 500 821 l 602 697 l 433 492 l 603 286 l 500 159 l 330 366 l 162 161 l 61 285 z "},"¹":{"ha":379,"x_min":51,"x_max":275,"o":"m 275 493 l 170 493 l 170 841 q 51 774 118 798 l 51 880 q 137 930 100 896 q 190 1006 175 964 l 275 1006 l 275 493 z "},"²":{"ha":379,"x_min":14,"x_max":351,"o":"m 351 600 l 351 493 l 14 493 q 46 600 20 553 q 152 722 72 646 q 232 807 218 785 q 245 854 245 830 q 231 895 245 881 q 189 909 216 909 q 147 893 161 909 q 130 831 133 877 l 24 842 q 51 937 32 905 q 106 987 69 968 q 192 1006 142 1006 q 308 965 265 1006 q 351 860 351 924 q 341 798 351 828 q 305 733 330 767 q 222 647 289 710 q 177 600 191 616 l 351 600 z "},"³":{"ha":379,"x_min":22,"x_max":355,"o":"m 22 642 l 124 655 q 187 582 132 582 q 231 602 214 582 q 248 655 248 622 q 231 704 248 686 q 190 722 215 722 q 140 712 174 722 l 153 811 q 210 825 191 810 q 228 865 228 840 q 216 898 228 886 q 182 909 203 909 q 127 843 134 909 l 28 861 q 73 964 43 933 q 184 1006 115 1006 q 292 966 250 1006 q 334 868 334 926 q 321 815 334 840 q 280 770 307 791 q 337 724 318 754 q 355 650 355 694 q 307 533 355 581 q 186 485 258 485 q 74 526 119 485 q 22 642 30 567 z "},"½":{"ha":950,"x_min":51,"x_max":921,"o":"m 275 493 l 170 493 l 170 841 q 51 774 118 798 l 51 880 q 137 930 100 896 q 190 1006 175 964 l 275 1006 l 275 493 m 277 -37 l 189 -37 l 672 1006 l 760 1006 l 277 -37 m 921 79 l 921 -28 l 583 -28 q 615 78 589 32 q 722 201 642 124 q 801 286 787 263 q 815 332 815 309 q 800 374 815 359 q 759 388 785 388 q 717 372 731 388 q 700 310 703 355 l 594 321 q 620 415 602 383 q 675 466 639 447 q 762 485 712 485 q 878 444 835 485 q 921 338 921 402 q 910 276 921 307 q 875 212 900 245 q 792 125 859 189 q 747 79 760 95 l 921 79 z "},"¼":{"ha":950,"x_min":51,"x_max":939,"o":"m 275 493 l 170 493 l 170 841 q 51 774 118 798 l 51 880 q 137 930 100 896 q 190 1006 175 964 l 275 1006 l 275 493 m 277 -37 l 189 -37 l 672 1006 l 760 1006 l 277 -37 m 779 -28 l 779 71 l 579 71 l 579 166 l 791 485 l 878 485 l 878 169 l 939 169 l 939 71 l 878 71 l 878 -28 l 779 -28 m 779 169 l 779 321 l 678 169 l 779 169 z "},"¾":{"ha":950,"x_min":22,"x_max":939,"o":"m 22 642 l 125 655 q 188 582 133 582 q 231 602 214 582 q 248 655 248 622 q 232 704 248 686 q 191 722 216 722 q 140 712 174 722 l 153 811 q 210 825 191 810 q 229 865 229 840 q 216 898 229 886 q 182 909 204 909 q 127 843 135 909 l 28 861 q 73 964 43 933 q 185 1006 115 1006 q 293 966 250 1006 q 335 868 335 926 q 321 815 335 840 q 281 770 308 791 q 337 724 319 754 q 356 650 356 694 q 308 533 356 581 q 187 485 259 485 q 75 526 119 485 q 22 642 31 567 m 291 -37 l 202 -37 l 686 1006 l 774 1006 l 291 -37 m 780 -28 l 780 71 l 580 71 l 580 166 l 792 485 l 879 485 l 879 169 l 939 169 l 939 71 l 879 71 l 879 -28 l 780 -28 m 780 169 l 780 321 l 679 169 l 780 169 z "},"₣":{"ha":700,"x_min":0,"x_max":643,"o":"m 84 153 l 0 153 l 0 279 l 84 279 l 84 994 l 643 994 l 643 826 l 249 826 l 249 591 l 589 591 l 589 422 l 249 422 l 249 279 l 414 279 l 414 153 l 249 153 l 249 0 l 84 0 l 84 153 z "},"Ğ":{"ha":886,"x_min":55,"x_max":817,"o":"m 463 366 l 463 533 l 817 533 l 817 137 q 665 28 764 74 q 468 -17 567 -17 q 255 42 347 -17 q 109 220 163 102 q 55 498 55 338 q 110 779 55 663 q 251 954 164 896 q 460 1011 338 1011 q 693 937 606 1011 q 806 719 781 863 l 644 682 q 576 799 625 758 q 460 840 528 840 q 290 758 355 840 q 224 509 224 676 q 295 235 224 329 q 458 155 355 155 q 558 177 507 155 q 651 239 610 200 l 651 366 l 463 366 m 547 1263 l 623 1263 q 569 1117 616 1168 q 450 1066 521 1066 q 331 1117 378 1066 q 276 1263 283 1168 l 352 1263 q 450 1166 361 1166 q 547 1263 538 1166 z "},"ğ":{"ha":696,"x_min":47,"x_max":623,"o":"m 67 -47 l 246 -74 q 271 -130 250 -113 q 336 -146 292 -146 q 420 -130 388 -146 q 454 -89 442 -117 q 467 12 467 -60 l 467 117 q 387 29 431 58 q 290 0 343 0 q 124 89 191 0 q 47 364 47 191 q 120 643 47 549 q 296 736 193 736 q 396 707 351 736 q 477 619 441 678 l 477 720 l 623 720 l 623 74 q 595 -151 623 -81 q 507 -257 566 -221 q 342 -292 448 -292 q 187 -267 245 -292 q 98 -190 129 -241 q 67 -71 67 -138 l 67 -47 m 207 375 q 244 207 207 260 q 333 154 281 154 q 429 208 389 154 q 469 370 469 261 q 431 537 469 483 q 336 591 393 591 q 244 538 281 591 q 207 375 207 485 m 446 1011 l 522 1011 q 468 865 515 916 q 349 814 420 814 q 230 865 277 814 q 175 1011 182 916 l 251 1011 q 349 913 260 913 q 446 1011 437 913 z "},"İ":{"ha":317,"x_min":78,"x_max":242,"o":"m 78 0 l 78 994 l 242 994 l 242 0 l 78 0 m 85 1082 l 85 1263 l 239 1263 l 239 1082 l 85 1082 z "},"Ş":{"ha":760,"x_min":41,"x_max":704,"o":"m 41 323 l 202 342 q 380 152 229 152 q 497 191 454 152 q 540 288 540 230 q 525 345 540 321 q 479 384 510 369 q 332 435 449 399 q 178 505 227 467 q 100 603 129 542 q 71 733 71 663 q 108 880 71 814 q 210 978 145 945 q 371 1011 275 1011 q 595 933 515 1011 q 681 710 676 855 l 516 701 q 469 813 505 781 q 367 845 433 845 q 264 817 300 845 q 229 748 229 789 q 261 680 229 707 q 411 618 294 652 q 590 543 535 583 q 675 440 646 503 q 704 288 704 378 q 624 71 704 159 q 375 -18 545 -18 q 41 323 75 -18 m 211 -273 l 211 -193 q 316 -201 268 -201 q 385 -183 362 -201 q 408 -137 408 -165 q 390 -96 408 -112 q 337 -80 371 -80 q 264 -94 302 -80 l 279 -26 q 374 -8 322 -8 q 476 -44 437 -8 q 514 -136 514 -79 q 463 -243 514 -201 q 319 -284 412 -284 q 211 -273 248 -284 z "},"ş":{"ha":633,"x_min":27,"x_max":579,"o":"m 27 205 l 184 235 q 310 121 204 121 q 394 143 366 121 q 422 199 422 165 q 410 237 422 223 q 359 260 397 250 q 114 357 166 311 q 49 515 49 415 q 113 676 49 616 q 298 736 176 736 q 474 691 414 736 q 559 546 534 646 l 412 513 q 300 600 392 600 q 218 583 243 600 q 194 540 194 566 q 216 500 194 516 q 355 452 239 484 q 533 363 486 415 q 579 224 579 311 q 508 52 579 119 q 310 -16 436 -16 q 123 40 195 -16 q 27 205 50 97 m 146 -273 l 146 -193 q 251 -201 203 -201 q 320 -183 297 -201 q 343 -137 343 -165 q 325 -96 343 -112 q 272 -80 306 -80 q 199 -94 237 -80 l 214 -26 q 309 -8 257 -8 q 411 -44 372 -8 q 449 -136 449 -79 q 398 -243 449 -201 q 254 -284 347 -284 q 146 -273 182 -284 z "},"Ć":{"ha":822,"x_min":54,"x_max":764,"o":"m 605 366 l 764 304 q 640 60 727 137 q 427 -17 553 -17 q 168 106 267 -17 q 54 488 54 248 q 169 886 54 743 q 437 1011 269 1011 q 666 918 574 1011 q 762 720 732 851 l 600 673 q 537 797 584 753 q 428 840 491 840 q 281 761 338 840 q 224 501 224 682 q 279 234 224 313 q 424 155 335 155 q 536 205 489 155 q 605 366 584 256 m 348 1061 l 425 1263 l 600 1263 l 447 1061 l 348 1061 z "},"ć":{"ha":633,"x_min":47,"x_max":605,"o":"m 597 507 l 443 473 q 336 587 426 587 q 243 538 279 587 q 208 373 208 489 q 243 192 208 245 q 338 139 279 139 q 410 169 382 139 q 451 276 439 199 l 605 244 q 332 -16 557 -16 q 117 94 187 -16 q 47 358 47 203 q 126 640 47 543 q 334 736 205 736 q 503 682 437 736 q 597 507 568 627 m 262 808 l 338 1011 l 514 1011 l 361 808 l 262 808 z "},"Č":{"ha":822,"x_min":54,"x_max":764,"o":"m 605 366 l 764 304 q 640 60 727 137 q 427 -17 553 -17 q 168 106 267 -17 q 54 488 54 248 q 169 886 54 743 q 437 1011 269 1011 q 666 918 574 1011 q 762 720 732 851 l 600 673 q 537 797 584 753 q 428 840 491 840 q 281 761 338 840 q 224 501 224 682 q 279 234 224 313 q 424 155 335 155 q 536 205 489 155 q 605 366 584 256 m 237 1263 l 364 1263 l 424 1162 l 488 1263 l 614 1263 l 498 1063 l 354 1063 l 237 1263 z "},"č":{"ha":633,"x_min":47,"x_max":605,"o":"m 597 507 l 443 473 q 336 587 426 587 q 243 538 279 587 q 208 373 208 489 q 243 192 208 245 q 338 139 279 139 q 410 169 382 139 q 451 276 439 199 l 605 244 q 332 -16 557 -16 q 117 94 187 -16 q 47 358 47 203 q 126 640 47 543 q 334 736 205 736 q 503 682 437 736 q 597 507 568 627 m 159 1011 l 286 1011 l 346 910 l 410 1011 l 536 1011 l 420 811 l 276 811 l 159 1011 z "},"đ":{"ha":700,"x_min":47,"x_max":685,"o":"m 467 814 l 299 814 l 299 904 l 467 904 l 467 994 l 624 994 l 624 904 l 685 904 l 685 814 l 624 814 l 624 0 l 478 0 l 478 106 q 393 14 442 45 q 293 -16 345 -16 q 120 82 194 -16 q 47 364 47 181 q 119 643 47 549 q 296 736 191 736 q 388 711 345 736 q 467 636 431 686 l 467 814 m 207 376 q 223 230 207 278 q 271 158 240 182 q 340 134 302 134 q 430 190 392 134 q 468 357 468 245 q 431 536 468 481 q 337 591 394 591 q 245 537 283 591 q 207 376 207 484 z "},"¯":{"ha":694,"x_min":-8,"x_max":703,"o":"m -8 1168 l 703 1168 l 703 1098 l -8 1098 l -8 1168 z "},"·":{"ha":379,"x_min":111,"x_max":268,"o":"m 111 389 l 111 579 l 268 579 l 268 389 l 111 389 z "},"Ă":{"ha":822,"x_min":0,"x_max":818,"o":"m 818 0 l 639 0 l 568 226 l 242 226 l 175 0 l 0 0 l 317 994 l 492 994 l 818 0 m 515 393 l 403 762 l 292 393 l 515 393 m 509 1263 l 585 1263 q 531 1117 579 1168 q 412 1066 484 1066 q 293 1117 341 1066 q 239 1263 245 1168 l 315 1263 q 412 1166 323 1166 q 509 1263 501 1166 z "},"ă":{"ha":633,"x_min":41,"x_max":595,"o":"m 199 500 l 57 532 q 142 689 83 641 q 313 736 201 736 q 464 709 412 736 q 538 633 516 681 q 561 459 561 585 l 559 237 q 567 97 559 143 q 595 0 574 52 l 440 0 l 420 79 q 334 7 380 31 q 237 -16 288 -16 q 96 42 151 -16 q 41 196 41 100 q 63 302 41 257 q 126 375 85 348 q 256 423 167 402 q 408 470 365 448 q 399 548 408 530 q 368 579 391 567 q 304 591 345 591 q 238 572 262 591 q 199 500 214 553 m 408 346 q 315 317 378 334 q 220 275 242 298 q 197 216 197 252 q 222 146 197 174 q 284 118 247 118 q 350 141 317 118 q 395 195 382 163 q 408 308 408 226 l 408 346 m 426 1011 l 502 1011 q 448 865 496 916 q 329 814 400 814 q 210 865 258 814 q 155 1011 162 916 l 231 1011 q 329 913 240 913 q 426 1011 418 913 z "},"Ą":{"ha":822,"x_min":0,"x_max":869,"o":"m 818 0 l 639 0 l 568 226 l 242 226 l 175 0 l 0 0 l 317 994 l 492 994 l 818 0 m 515 393 l 403 762 l 292 393 l 515 393 m 642 18 l 726 18 q 714 -80 714 -20 q 735 -161 714 -136 q 795 -187 756 -187 q 869 -172 829 -187 l 869 -263 q 760 -292 814 -292 q 660 -251 699 -292 q 622 -134 622 -210 q 642 18 622 -75 z "},"ą":{"ha":633,"x_min":41,"x_max":665,"o":"m 199 500 l 57 532 q 142 689 83 641 q 313 736 201 736 q 464 709 412 736 q 538 633 516 681 q 561 459 561 585 l 559 237 q 567 97 559 143 q 595 0 574 52 l 440 0 l 420 79 q 334 7 380 31 q 237 -16 288 -16 q 96 42 151 -16 q 41 196 41 100 q 63 302 41 257 q 126 375 85 348 q 256 423 167 402 q 408 470 365 448 q 399 548 408 530 q 368 579 391 567 q 304 591 345 591 q 238 572 262 591 q 199 500 214 553 m 408 346 q 315 317 378 334 q 220 275 242 298 q 197 216 197 252 q 222 146 197 174 q 284 118 247 118 q 350 141 317 118 q 395 195 382 163 q 408 308 408 226 l 408 346 m 438 18 l 522 18 q 510 -80 510 -20 q 531 -161 510 -136 q 591 -187 552 -187 q 665 -172 625 -187 l 665 -263 q 556 -292 610 -292 q 456 -251 494 -292 q 418 -134 418 -210 q 438 18 418 -75 z "},"Ď":{"ha":822,"x_min":82,"x_max":766,"o":"m 82 994 l 382 994 q 554 969 496 994 q 661 883 612 943 q 738 726 710 823 q 766 487 766 630 q 736 263 766 358 q 663 112 707 168 q 554 28 618 56 q 391 0 491 0 l 82 0 l 82 994 m 246 826 l 246 168 l 370 168 q 485 182 449 168 q 543 228 520 197 q 581 323 566 258 q 595 494 595 388 q 580 669 595 605 q 533 769 565 732 q 454 817 500 806 q 321 826 420 826 l 246 826 m 155 1263 l 282 1263 l 342 1162 l 406 1263 l 532 1263 l 416 1063 l 272 1063 l 155 1263 z "},"ď":{"ha":818,"x_min":47,"x_max":833,"o":"m 624 0 l 478 0 l 478 106 q 393 14 442 45 q 293 -16 345 -16 q 120 82 194 -16 q 47 364 47 181 q 119 643 47 549 q 296 736 191 736 q 388 711 345 736 q 467 636 431 686 l 467 994 l 624 994 l 624 0 m 207 376 q 223 230 207 278 q 271 158 240 182 q 340 134 302 134 q 430 190 392 134 q 468 357 468 245 q 431 536 468 481 q 337 591 394 591 q 245 537 283 591 q 207 376 207 484 m 677 994 l 833 994 l 833 857 q 806 685 833 742 q 695 581 773 616 l 665 661 q 731 712 711 680 q 753 804 751 745 l 677 804 l 677 994 z "},"Đ":{"ha":822,"x_min":-2,"x_max":766,"o":"m 83 994 l 383 994 q 555 969 496 994 q 662 883 613 943 q 738 726 710 823 q 766 486 766 629 q 736 262 766 358 q 663 112 707 167 q 554 28 618 56 q 392 0 491 0 l 83 0 l 83 434 l -2 434 l -2 560 l 83 560 l 83 994 m 247 826 l 247 560 l 421 560 l 421 434 l 247 434 l 247 168 l 370 168 q 485 182 449 168 q 543 227 521 197 q 581 322 566 256 q 596 490 596 388 q 579 672 596 609 q 531 771 563 736 q 452 818 498 807 q 321 826 418 826 l 247 826 z "},"Ę":{"ha":760,"x_min":83,"x_max":703,"o":"m 83 0 l 83 994 l 688 994 l 688 826 l 248 826 l 248 606 l 657 606 l 657 438 l 248 438 l 248 168 l 703 168 l 703 0 l 83 0 m 476 18 l 559 18 q 548 -80 548 -20 q 569 -161 548 -136 q 629 -187 590 -187 q 703 -172 663 -187 l 703 -263 q 594 -292 648 -292 q 494 -251 532 -292 q 456 -134 456 -210 q 476 18 456 -75 z "},"ę":{"ha":633,"x_min":37,"x_max":589,"o":"m 425 229 l 580 197 q 483 36 549 89 q 323 -16 417 -16 q 121 71 192 -16 q 37 356 37 173 q 121 645 37 536 q 307 736 193 736 q 506 643 434 736 q 589 327 589 536 l 588 305 l 197 305 q 235 173 198 220 q 324 126 272 126 q 425 229 399 126 m 433 422 q 397 548 431 506 q 317 591 363 591 q 233 547 267 591 q 199 422 199 502 l 433 422 m 292 18 l 375 18 q 363 -80 363 -20 q 385 -161 363 -136 q 444 -187 406 -187 q 519 -172 478 -187 l 519 -263 q 410 -292 463 -292 q 310 -251 348 -292 q 271 -134 271 -210 q 292 18 271 -75 z "},"Ě":{"ha":760,"x_min":83,"x_max":703,"o":"m 83 0 l 83 994 l 688 994 l 688 826 l 248 826 l 248 606 l 657 606 l 657 438 l 248 438 l 248 168 l 703 168 l 703 0 l 83 0 m 200 1263 l 327 1263 l 387 1162 l 451 1263 l 576 1263 l 461 1063 l 317 1063 l 200 1263 z "},"ě":{"ha":633,"x_min":37,"x_max":589,"o":"m 425 229 l 580 197 q 483 36 549 89 q 323 -16 417 -16 q 121 71 192 -16 q 37 356 37 173 q 121 645 37 536 q 307 736 193 736 q 506 643 434 736 q 589 327 589 536 l 588 305 l 197 305 q 235 173 198 220 q 324 126 272 126 q 425 229 399 126 m 433 422 q 397 548 431 506 q 317 591 363 591 q 233 547 267 591 q 199 422 199 502 l 433 422 m 132 1011 l 258 1011 l 318 910 l 382 1011 l 508 1011 l 393 811 l 248 811 l 132 1011 z "},"Ĺ":{"ha":696,"x_min":87,"x_max":661,"o":"m 87 0 l 87 986 l 252 986 l 252 168 l 661 168 l 661 0 l 87 0 m 239 1061 l 316 1263 l 492 1263 l 338 1061 l 239 1061 z "},"ĺ":{"ha":317,"x_min":68,"x_max":320,"o":"m 82 0 l 82 994 l 239 994 l 239 0 l 82 0 m 68 1045 l 144 1248 l 320 1248 l 167 1045 l 68 1045 z "},"Ľ":{"ha":696,"x_min":87,"x_max":661,"o":"m 87 0 l 87 986 l 252 986 l 252 168 l 661 168 l 661 0 l 87 0 m 468 1003 l 609 1003 l 609 880 q 486 678 609 733 l 458 749 q 536 831 520 773 l 468 831 l 468 1003 z "},"ľ":{"ha":439,"x_min":82,"x_max":451,"o":"m 82 0 l 82 994 l 239 994 l 239 0 l 82 0 m 295 994 l 451 994 l 451 857 q 424 685 451 742 q 313 581 391 616 l 282 661 q 349 712 328 680 q 370 804 369 745 l 295 804 l 295 994 z "},"Ŀ":{"ha":696,"x_min":87,"x_max":661,"o":"m 87 0 l 87 986 l 252 986 l 252 168 l 661 168 l 661 0 l 87 0 m 432 393 l 432 574 l 586 574 l 586 393 l 432 393 z "},"ŀ":{"ha":464,"x_min":82,"x_max":463,"o":"m 82 0 l 82 994 l 239 994 l 239 0 l 82 0 m 309 393 l 309 574 l 463 574 l 463 393 l 309 393 z "},"Ń":{"ha":822,"x_min":85,"x_max":732,"o":"m 85 0 l 85 994 l 245 994 l 578 330 l 578 994 l 732 994 l 732 0 l 566 0 l 238 648 l 238 0 l 85 0 m 315 1061 l 392 1263 l 568 1263 l 414 1061 l 315 1061 z "},"ń":{"ha":696,"x_min":81,"x_max":619,"o":"m 619 0 l 463 0 l 463 368 q 454 515 463 478 q 421 571 445 551 q 366 591 397 591 q 295 565 327 591 q 250 495 263 540 q 237 326 237 450 l 237 0 l 81 0 l 81 720 l 226 720 l 226 614 q 313 706 264 675 q 420 736 361 736 q 536 701 489 736 q 601 609 583 665 q 619 448 619 553 l 619 0 m 276 808 l 353 1011 l 528 1011 l 375 808 l 276 808 z "},"Ň":{"ha":822,"x_min":85,"x_max":732,"o":"m 85 0 l 85 994 l 245 994 l 578 330 l 578 994 l 732 994 l 732 0 l 566 0 l 238 648 l 238 0 l 85 0 m 221 1263 l 348 1263 l 408 1162 l 472 1263 l 597 1263 l 482 1063 l 338 1063 l 221 1263 z "},"ň":{"ha":696,"x_min":81,"x_max":619,"o":"m 619 0 l 463 0 l 463 368 q 454 515 463 478 q 421 571 445 551 q 366 591 397 591 q 295 565 327 591 q 250 495 263 540 q 237 326 237 450 l 237 0 l 81 0 l 81 720 l 226 720 l 226 614 q 313 706 264 675 q 420 736 361 736 q 536 701 489 736 q 601 609 583 665 q 619 448 619 553 l 619 0 m 162 1011 l 289 1011 l 349 910 l 413 1011 l 538 1011 l 423 811 l 279 811 l 162 1011 z "},"Ő":{"ha":886,"x_min":50,"x_max":841,"o":"m 50 491 q 103 784 50 669 q 240 955 155 899 q 446 1011 325 1011 q 731 878 621 1011 q 841 497 841 744 q 724 107 841 248 q 446 -17 622 -17 q 167 106 269 -17 q 50 491 50 246 m 220 498 q 285 240 220 326 q 446 155 350 155 q 607 240 543 155 q 671 501 671 325 q 609 757 671 674 q 446 840 547 840 q 283 756 346 840 q 220 498 220 673 m 309 1064 l 387 1266 l 550 1266 l 408 1064 l 309 1064 m 519 1064 l 597 1266 l 756 1266 l 618 1064 l 519 1064 z "},"ő":{"ha":696,"x_min":45,"x_max":655,"o":"m 45 370 q 87 563 45 476 q 197 693 130 650 q 350 736 265 736 q 574 625 492 736 q 655 364 655 513 q 613 163 655 253 q 502 29 570 74 q 351 -16 433 -16 q 132 84 219 -16 q 45 370 45 184 m 205 360 q 248 195 205 251 q 351 139 291 139 q 452 195 410 139 q 494 361 494 252 q 452 525 494 469 q 349 581 409 581 q 248 525 290 581 q 205 360 205 469 m 183 812 l 260 1014 l 424 1014 l 281 812 l 183 812 m 393 812 l 471 1014 l 630 1014 l 492 812 l 393 812 z "},"Ŕ":{"ha":822,"x_min":83,"x_max":816,"o":"m 83 0 l 83 994 l 430 994 q 620 967 563 994 q 713 874 677 941 q 750 716 750 808 q 694 528 750 600 q 535 439 638 457 q 623 356 588 401 q 717 194 657 311 l 816 0 l 620 0 l 500 216 q 413 363 436 334 q 364 404 390 393 q 281 415 338 415 l 248 415 l 248 0 l 83 0 m 248 574 l 370 574 q 512 584 481 574 q 562 623 543 593 q 581 703 581 653 q 562 779 581 750 q 510 819 543 808 q 376 826 487 826 l 248 826 l 248 574 m 283 1061 l 359 1263 l 535 1263 l 382 1061 l 283 1061 z "},"ŕ":{"ha":443,"x_min":75,"x_max":458,"o":"m 232 0 l 75 0 l 75 720 l 220 720 l 220 618 q 287 713 258 690 q 355 736 317 736 q 458 701 409 736 l 409 534 q 336 566 370 566 q 278 542 303 566 q 243 454 254 517 q 232 222 232 391 l 232 0 m 166 808 l 243 1011 l 418 1011 l 265 808 l 166 808 z "},"Ř":{"ha":822,"x_min":83,"x_max":816,"o":"m 83 0 l 83 994 l 430 994 q 620 967 563 994 q 713 874 677 941 q 750 716 750 808 q 694 528 750 600 q 535 439 638 457 q 623 356 588 401 q 717 194 657 311 l 816 0 l 620 0 l 500 216 q 413 363 436 334 q 364 404 390 393 q 281 415 338 415 l 248 415 l 248 0 l 83 0 m 248 574 l 370 574 q 512 584 481 574 q 562 623 543 593 q 581 703 581 653 q 562 779 581 750 q 510 819 543 808 q 376 826 487 826 l 248 826 l 248 574 m 189 1263 l 315 1263 l 375 1162 l 439 1263 l 565 1263 l 450 1063 l 305 1063 l 189 1263 z "},"ř":{"ha":443,"x_min":57,"x_max":458,"o":"m 232 0 l 75 0 l 75 720 l 220 720 l 220 618 q 287 713 258 690 q 355 736 317 736 q 458 701 409 736 l 409 534 q 336 566 370 566 q 278 542 303 566 q 243 454 254 517 q 232 222 232 391 l 232 0 m 57 1011 l 184 1011 l 243 910 l 308 1011 l 433 1011 l 318 811 l 174 811 l 57 1011 z "},"Ś":{"ha":760,"x_min":41,"x_max":704,"o":"m 41 323 l 202 342 q 380 152 229 152 q 497 191 454 152 q 540 288 540 230 q 525 345 540 321 q 479 384 510 369 q 332 435 449 399 q 178 505 227 467 q 100 603 129 542 q 71 733 71 663 q 108 880 71 814 q 210 978 145 945 q 371 1011 275 1011 q 595 933 515 1011 q 681 710 676 855 l 516 701 q 469 813 505 781 q 367 845 433 845 q 264 817 300 845 q 229 748 229 789 q 261 680 229 707 q 411 618 294 652 q 590 543 535 583 q 675 440 646 503 q 704 288 704 378 q 624 71 704 159 q 375 -18 545 -18 q 41 323 75 -18 m 318 1061 l 395 1263 l 570 1263 l 417 1061 l 318 1061 z "},"ś":{"ha":633,"x_min":27,"x_max":579,"o":"m 27 205 l 184 235 q 310 121 204 121 q 394 143 366 121 q 422 199 422 165 q 410 237 422 223 q 359 260 397 250 q 114 357 166 311 q 49 515 49 415 q 113 676 49 616 q 298 736 176 736 q 474 691 414 736 q 559 546 534 646 l 412 513 q 300 600 392 600 q 218 583 243 600 q 194 540 194 566 q 216 500 194 516 q 355 452 239 484 q 533 363 486 415 q 579 224 579 311 q 508 52 579 119 q 310 -16 436 -16 q 123 40 195 -16 q 27 205 50 97 m 214 808 l 290 1011 l 466 1011 l 313 808 l 214 808 z "},"Ţ":{"ha":696,"x_min":24,"x_max":672,"o":"m 267 0 l 267 826 l 24 826 l 24 994 l 672 994 l 672 826 l 431 826 l 431 0 l 267 0 m 197 -273 l 197 -193 q 302 -201 254 -201 q 372 -183 349 -201 q 395 -137 395 -165 q 376 -96 395 -112 q 323 -80 357 -80 q 251 -94 288 -80 l 265 -26 q 360 -8 309 -8 q 462 -44 424 -8 q 500 -136 500 -79 q 450 -243 500 -201 q 306 -284 399 -284 q 197 -273 234 -284 z "},"ţ":{"ha":379,"x_min":17,"x_max":372,"o":"m 352 720 l 352 568 l 245 568 l 245 278 q 250 169 245 184 q 289 142 260 142 q 351 160 311 142 l 365 12 q 242 -16 311 -16 q 146 12 182 -16 q 98 94 111 41 q 89 254 89 134 l 89 568 l 17 568 l 17 720 l 89 720 l 89 863 l 245 975 l 245 720 l 352 720 m 68 -273 l 68 -193 q 174 -201 125 -201 q 243 -183 220 -201 q 266 -137 266 -165 q 247 -96 266 -112 q 195 -80 229 -80 q 122 -94 159 -80 l 136 -26 q 231 -8 180 -8 q 333 -44 295 -8 q 372 -136 372 -79 q 321 -243 372 -201 q 177 -284 270 -284 q 68 -273 105 -284 z "},"Ť":{"ha":696,"x_min":24,"x_max":672,"o":"m 267 0 l 267 826 l 24 826 l 24 994 l 672 994 l 672 826 l 431 826 l 431 0 l 267 0 m 158 1263 l 285 1263 l 345 1162 l 409 1263 l 534 1263 l 419 1063 l 275 1063 l 158 1263 z "},"ť":{"ha":546,"x_min":17,"x_max":547,"o":"m 352 720 l 352 568 l 245 568 l 245 278 q 250 169 245 184 q 289 142 260 142 q 351 160 311 142 l 365 12 q 242 -16 311 -16 q 146 12 182 -16 q 98 94 111 41 q 89 254 89 134 l 89 568 l 17 568 l 17 720 l 89 720 l 89 863 l 245 975 l 245 720 l 352 720 m 406 1003 l 547 1003 l 547 880 q 424 678 547 733 l 396 749 q 474 831 458 773 l 406 831 l 406 1003 z "},"Ů":{"ha":822,"x_min":81,"x_max":732,"o":"m 81 994 l 245 994 l 245 456 q 252 292 245 330 q 303 191 262 227 q 412 155 345 155 q 505 180 469 155 q 554 251 541 205 q 567 444 567 296 l 567 994 l 732 994 l 732 472 q 710 183 732 272 q 614 38 689 94 q 416 -17 539 -17 q 217 29 289 -17 q 114 158 146 75 q 81 464 81 241 l 81 994 m 516 1209 q 483 1114 516 1152 q 407 1076 450 1076 q 331 1114 363 1076 q 298 1209 298 1152 q 330 1304 298 1267 q 407 1342 363 1342 q 483 1304 450 1342 q 516 1209 516 1267 m 456 1209 q 441 1253 456 1236 q 407 1270 427 1270 q 372 1253 387 1270 q 357 1209 357 1236 q 372 1166 357 1183 q 407 1149 387 1149 q 441 1166 427 1149 q 456 1209 456 1183 z "},"ů":{"ha":696,"x_min":78,"x_max":615,"o":"m 470 0 l 470 108 q 385 17 437 50 q 274 -16 332 -16 q 170 14 216 -16 q 101 101 123 45 q 78 264 78 157 l 78 720 l 235 720 l 235 389 q 242 209 235 248 q 273 150 249 171 q 332 129 298 129 q 405 156 372 129 q 449 227 438 184 q 459 416 459 270 l 459 720 l 615 720 l 615 0 l 470 0 m 456 910 q 423 815 456 853 q 347 777 390 777 q 270 815 303 777 q 237 910 237 853 q 270 1005 237 968 q 347 1043 302 1043 q 423 1005 390 1043 q 456 910 456 968 m 396 910 q 381 954 396 937 q 347 970 366 970 q 312 954 327 970 q 297 910 297 937 q 312 867 297 884 q 347 850 327 850 q 381 867 366 850 q 396 910 396 884 z "},"Ű":{"ha":822,"x_min":81,"x_max":732,"o":"m 81 994 l 245 994 l 245 456 q 252 292 245 330 q 303 191 262 227 q 412 155 345 155 q 505 180 469 155 q 554 251 541 205 q 567 444 567 296 l 567 994 l 732 994 l 732 472 q 710 183 732 272 q 614 38 689 94 q 416 -17 539 -17 q 217 29 289 -17 q 114 158 146 75 q 81 464 81 241 l 81 994 m 240 1064 l 317 1266 l 481 1266 l 338 1064 l 240 1064 m 450 1064 l 528 1266 l 687 1266 l 549 1064 l 450 1064 z "},"ű":{"ha":696,"x_min":78,"x_max":643,"o":"m 470 0 l 470 108 q 385 17 437 50 q 274 -16 332 -16 q 170 14 216 -16 q 101 101 123 45 q 78 264 78 157 l 78 720 l 235 720 l 235 389 q 242 209 235 248 q 273 150 249 171 q 332 129 298 129 q 405 156 372 129 q 449 227 438 184 q 459 416 459 270 l 459 720 l 615 720 l 615 0 l 470 0 m 196 812 l 273 1014 l 437 1014 l 294 812 l 196 812 m 406 812 l 484 1014 l 643 1014 l 505 812 l 406 812 z "},"Ź":{"ha":696,"x_min":12,"x_max":675,"o":"m 12 0 l 12 181 l 441 826 l 60 826 l 60 994 l 657 994 l 657 838 l 211 168 l 675 168 l 675 0 l 12 0 m 289 1061 l 366 1263 l 541 1263 l 388 1061 l 289 1061 z "},"ź":{"ha":570,"x_min":19,"x_max":547,"o":"m 19 0 l 19 149 l 241 458 q 321 566 295 534 q 249 564 294 564 l 41 562 l 41 720 l 529 720 l 529 585 l 303 268 l 224 163 q 304 168 289 168 l 547 168 l 547 0 l 19 0 m 193 808 l 270 1011 l 446 1011 l 292 808 l 193 808 z "},"Ż":{"ha":696,"x_min":12,"x_max":675,"o":"m 12 0 l 12 181 l 441 826 l 60 826 l 60 994 l 657 994 l 657 838 l 211 168 l 675 168 l 675 0 l 12 0 m 275 1101 l 275 1281 l 429 1281 l 429 1101 l 275 1101 z "},"ż":{"ha":570,"x_min":19,"x_max":547,"o":"m 19 0 l 19 149 l 241 458 q 321 566 295 534 q 249 564 294 564 l 41 562 l 41 720 l 529 720 l 529 585 l 303 268 l 224 163 q 304 168 289 168 l 547 168 l 547 0 l 19 0 m 216 847 l 216 1027 l 370 1027 l 370 847 l 216 847 z "},"Γ":{"ha":685,"x_min":86,"x_max":660,"o":"m 86 0 l 86 986 l 660 986 l 660 818 l 250 818 l 250 0 l 86 0 z "},"Θ":{"ha":886,"x_min":50,"x_max":840,"o":"m 451 -17 q 151 126 251 -17 q 50 492 50 269 q 155 873 50 736 q 444 1011 260 1011 q 732 874 625 1011 q 840 514 840 738 q 737 122 840 262 q 451 -17 633 -17 m 446 840 q 279 751 338 840 q 219 497 219 662 q 281 244 219 335 q 450 154 342 154 q 610 245 549 154 q 671 500 671 336 q 612 752 671 664 q 446 840 553 840 m 578 414 l 313 414 l 313 582 l 578 582 l 578 414 z "},"Φ":{"ha":932,"x_min":46,"x_max":885,"o":"m 383 930 l 383 1019 l 547 1019 l 547 930 q 795 806 705 922 q 885 509 885 690 q 796 213 885 332 q 547 79 707 94 l 547 -40 l 383 -40 l 383 79 q 135 213 224 94 q 46 509 46 332 q 136 806 46 690 q 383 930 225 922 m 383 257 l 383 761 q 259 682 303 750 q 215 509 215 614 q 259 335 215 401 q 383 257 302 268 m 547 761 l 547 257 q 672 335 628 268 q 715 509 715 403 q 672 683 715 614 q 547 761 628 751 z "},"α":{"ha":700,"x_min":43,"x_max":663,"o":"m 496 119 q 300 -17 425 -17 q 115 95 187 -17 q 43 379 43 207 q 115 637 43 538 q 301 737 186 737 q 496 596 420 737 q 528 720 509 658 l 663 720 q 591 339 591 536 q 657 0 591 180 l 525 0 q 496 119 502 89 m 328 586 q 238 526 272 586 q 204 364 204 467 q 239 196 204 258 q 328 135 274 135 q 417 193 385 135 q 450 358 450 251 q 415 525 450 465 q 328 586 379 586 z "},"δ":{"ha":690,"x_min":43,"x_max":648,"o":"m 98 860 l 98 994 l 597 994 l 597 836 l 318 836 q 441 722 361 789 q 561 614 522 655 q 624 509 599 572 q 648 354 648 446 q 565 85 648 187 q 342 -17 482 -17 q 118 101 193 -17 q 43 354 43 219 q 102 588 43 490 q 262 710 161 686 l 178 783 l 98 860 m 347 566 q 237 505 279 566 q 196 340 196 444 q 237 186 196 243 q 345 129 279 129 q 453 189 410 129 q 496 347 496 249 q 453 506 496 446 q 347 566 411 566 z "},"ε":{"ha":541,"x_min":43,"x_max":526,"o":"m 367 297 l 351 297 q 236 276 267 297 q 204 212 204 256 q 227 157 204 178 q 285 135 250 135 q 424 201 343 135 l 526 78 q 283 -17 395 -17 q 109 43 175 -17 q 43 196 43 102 q 149 374 43 319 q 66 530 66 429 q 125 682 66 626 q 288 737 184 737 q 503 664 418 737 l 410 543 q 301 582 350 582 q 220 518 220 582 q 367 444 220 442 l 367 297 z "},"σ":{"ha":779,"x_min":43,"x_max":753,"o":"m 446 720 l 753 720 l 753 561 l 610 561 q 653 363 653 469 q 566 91 653 199 q 346 -17 479 -17 q 127 86 212 -17 q 43 357 43 189 q 127 633 43 528 q 350 737 212 737 q 415 728 382 737 l 446 720 m 347 582 q 244 522 283 582 q 204 359 204 463 q 244 198 204 258 q 347 139 283 139 q 452 199 412 139 q 492 364 492 259 q 451 523 492 463 q 347 582 411 582 z "},"τ":{"ha":509,"x_min":26,"x_max":481,"o":"m 26 561 l 26 720 l 481 720 l 481 561 l 338 561 l 338 0 l 180 0 l 180 561 l 26 561 z "},"φ":{"ha":815,"x_min":43,"x_max":772,"o":"m 292 736 l 317 736 l 282 568 q 204 383 204 532 q 330 140 204 198 l 330 481 q 370 678 330 619 q 498 737 410 737 q 695 634 618 737 q 772 378 772 532 q 697 120 772 229 q 488 -20 622 12 l 488 -273 l 330 -273 l 330 -20 q 118 114 193 8 q 43 372 43 220 q 113 634 43 533 q 292 736 183 736 m 488 449 l 488 131 q 583 218 554 161 q 611 403 611 274 q 584 529 611 475 q 526 582 557 582 q 496 558 504 582 q 488 449 488 534 z "},"‗":{"ha":694,"x_min":-12,"x_max":707,"o":"m 707 -193 l -12 -193 l -12 -136 l 707 -136 l 707 -193 m 707 -300 l -12 -300 l -12 -243 l 707 -243 l 707 -300 z "},"‼":{"ha":758,"x_min":102,"x_max":650,"o":"m 522 256 l 481 761 l 481 994 l 650 994 l 650 761 l 610 256 l 522 256 m 488 0 l 488 191 l 644 191 l 644 0 l 488 0 m 142 256 l 102 761 l 102 994 l 271 994 l 271 761 l 231 256 l 142 256 m 109 0 l 109 191 l 264 191 l 264 0 l 109 0 z "},"ⁿ":{"ha":452,"x_min":44,"x_max":408,"o":"m 408 545 l 292 545 l 292 776 q 281 876 292 852 q 236 900 270 900 q 177 869 195 900 q 159 751 159 838 l 159 545 l 44 545 l 44 996 l 152 996 l 152 946 l 161 957 q 272 1006 205 1006 q 374 963 340 1006 q 408 823 408 920 l 408 545 z "},"₧":{"ha":1334,"x_min":83,"x_max":1284,"o":"m 83 994 l 317 994 q 501 920 435 994 q 578 723 567 845 l 625 723 l 625 938 l 785 938 l 785 723 l 940 723 q 1048 742 991 742 q 1210 680 1148 742 q 1276 505 1272 617 l 1128 505 q 1103 580 1126 552 q 1046 608 1079 608 q 999 589 1019 608 q 980 547 980 570 q 1005 494 980 515 q 1103 444 1031 473 q 1255 344 1225 393 q 1284 225 1284 295 q 1221 49 1284 115 q 1046 -18 1158 -18 q 933 8 981 -18 q 855 106 886 35 l 855 -13 q 788 -18 819 -18 q 686 6 725 -18 q 635 65 646 29 q 625 189 625 102 l 625 582 l 573 582 q 483 402 543 458 q 307 347 422 347 l 256 347 l 256 0 l 83 0 l 83 994 m 256 819 l 256 522 l 276 522 q 370 558 332 522 q 408 673 408 595 q 391 753 408 722 q 346 802 374 785 q 256 819 319 819 m 785 582 l 785 211 q 796 149 785 162 q 846 136 807 136 q 835 205 835 177 q 836 227 835 213 l 972 227 q 1054 125 983 125 q 1108 149 1084 125 q 1132 201 1132 172 q 1044 277 1132 245 q 886 374 931 318 q 842 511 842 431 q 855 582 842 547 l 785 582 z "},"←":{"ha":1389,"x_min":54,"x_max":1335,"o":"m 334 594 l 385 594 q 325 482 345 514 q 253 385 305 450 l 1335 385 l 1335 316 l 253 316 q 387 106 323 243 l 334 106 q 184 255 247 204 q 54 338 121 305 l 54 368 q 178 445 113 393 q 334 594 244 496 z "},"↑":{"ha":694,"x_min":104,"x_max":591,"o":"m 104 628 q 253 784 202 718 q 330 908 304 850 l 361 908 q 443 778 393 841 q 591 627 494 715 l 591 575 q 382 709 455 639 l 382 -291 l 313 -291 l 313 709 q 216 637 248 657 q 104 576 184 616 l 104 628 z "},"→":{"ha":1389,"x_min":54,"x_max":1335,"o":"m 1055 594 q 1211 445 1145 496 q 1335 368 1276 393 l 1335 338 q 1204 255 1267 305 q 1054 106 1141 204 l 1002 106 q 1135 316 1065 243 l 54 316 l 54 385 l 1135 385 q 1063 482 1084 450 q 1003 594 1043 514 l 1055 594 z "},"↓":{"ha":694,"x_min":104,"x_max":591,"o":"m 104 -11 l 104 41 q 216 -20 184 1 q 313 -92 248 -40 l 313 908 l 382 908 l 382 -92 q 591 42 455 -22 l 591 -10 q 443 -161 494 -98 q 361 -291 393 -224 l 330 -291 q 253 -167 304 -233 q 104 -11 202 -101 z "},"↔":{"ha":1389,"x_min":54,"x_max":1335,"o":"m 1335 366 l 1335 336 q 1209 257 1271 307 q 1059 107 1147 208 l 1005 107 q 1137 318 1052 224 l 252 318 q 383 107 336 224 l 329 107 q 179 257 241 208 q 54 336 117 307 l 54 366 q 179 445 117 396 q 329 595 241 494 l 383 595 q 252 385 336 479 l 1137 385 q 1005 595 1052 479 l 1059 595 q 1209 445 1147 494 q 1335 366 1271 396 z "},"↕":{"ha":694,"x_min":103,"x_max":591,"o":"m 332 992 l 362 992 q 441 866 392 928 q 591 716 490 804 l 591 662 q 380 794 475 709 l 380 -92 q 591 40 475 -6 l 591 -14 q 441 -164 490 -102 q 362 -290 392 -226 l 332 -290 q 253 -164 302 -226 q 103 -14 203 -102 l 103 40 q 314 -92 219 -6 l 314 794 q 103 662 219 709 l 103 716 q 253 866 203 804 q 332 992 302 928 z "},"↨":{"ha":694,"x_min":103,"x_max":591,"o":"m 332 992 l 362 992 q 441 866 392 928 q 591 716 490 804 l 591 662 q 380 794 475 709 l 380 -92 q 591 40 475 -6 l 591 -14 q 441 -164 490 -102 q 362 -290 392 -226 l 332 -290 q 253 -164 302 -226 q 103 -14 203 -102 l 103 40 q 314 -92 219 -6 l 314 794 q 103 662 219 709 l 103 716 q 253 866 203 804 q 332 992 302 928 m 104 -354 l 591 -354 l 591 -420 l 104 -420 l 104 -354 z "},"∟":{"ha":1360,"x_min":245,"x_max":1114,"o":"m 245 867 l 313 867 l 313 68 l 1114 68 l 1114 0 l 245 0 l 245 867 z "},"∩":{"ha":1003,"x_min":130,"x_max":869,"o":"m 205 0 l 130 0 l 130 380 q 134 593 130 548 q 164 725 142 673 q 233 826 186 777 q 351 907 281 876 q 500 939 421 939 q 645 909 576 939 q 765 828 714 879 q 838 719 816 777 q 866 575 859 661 q 869 380 869 541 l 869 0 l 795 0 l 795 384 q 791 574 795 532 q 766 694 783 650 q 712 778 749 739 q 617 842 675 817 q 499 867 560 867 q 402 849 449 867 q 321 807 355 832 q 267 754 288 781 q 237 704 246 728 q 212 605 220 663 q 205 384 205 546 l 205 0 z "},"≡":{"ha":664,"x_min":47,"x_max":617,"o":"m 47 703 l 47 879 l 617 879 l 617 703 l 47 703 m 47 403 l 47 578 l 617 578 l 617 403 l 47 403 m 47 102 l 47 277 l 617 277 l 617 102 l 47 102 z "},"⌂":{"ha":833,"x_min":104,"x_max":730,"o":"m 104 0 l 104 430 l 416 782 l 730 430 l 730 0 l 104 0 m 159 55 l 675 55 l 675 407 l 416 696 l 159 407 l 159 55 z "},"⌐":{"ha":665,"x_min":48,"x_max":618,"o":"m 191 255 l 191 554 l 618 554 l 618 728 l 48 728 l 48 255 l 191 255 z "},"⌠":{"ha":839,"x_min":370,"x_max":662,"o":"m 469 -349 l 370 -349 l 370 879 q 431 1103 370 1027 q 568 1178 492 1178 q 638 1156 614 1178 q 662 1104 662 1134 q 645 1059 662 1077 q 602 1042 627 1042 q 564 1052 582 1042 q 535 1083 551 1059 q 504 1108 519 1108 q 483 1100 492 1108 q 473 1082 476 1095 q 469 987 469 1059 l 469 -349 z "},"⌡":{"ha":839,"x_min":177,"x_max":469,"o":"m 370 1178 l 469 1178 l 469 -50 q 408 -274 469 -199 q 271 -349 347 -349 q 201 -327 225 -349 q 177 -275 177 -305 q 194 -231 177 -248 q 236 -213 212 -213 q 276 -224 257 -213 q 304 -255 288 -231 q 335 -279 319 -279 q 356 -272 347 -279 q 366 -252 363 -267 q 370 -159 370 -231 l 370 1178 z "},"─":{"ha":984,"x_min":-16,"x_max":999,"o":"m 999 362 l -16 362 l -16 481 l 999 481 l 999 362 z "},"│":{"ha":855,"x_min":304,"x_max":422,"o":"m 304 -421 l 304 1264 l 422 1264 l 422 -421 l 304 -421 z "},"┌":{"ha":984,"x_min":433,"x_max":1000,"o":"m 1000 481 l 1000 362 l 551 362 l 551 -421 l 433 -421 l 433 481 l 1000 481 z "},"┐":{"ha":984,"x_min":-16,"x_max":551,"o":"m 432 362 l -16 362 l -16 481 l 551 481 l 551 -421 l 432 -421 l 432 362 z "},"└":{"ha":984,"x_min":433,"x_max":1000,"o":"m 433 362 l 433 1264 l 551 1264 l 551 481 l 1000 481 l 1000 362 l 433 362 z "},"┘":{"ha":984,"x_min":-16,"x_max":551,"o":"m 551 362 l -16 362 l -16 481 l 432 481 l 432 1264 l 551 1264 l 551 362 z "},"├":{"ha":984,"x_min":433,"x_max":1000,"o":"m 433 -421 l 433 1264 l 551 1264 l 551 481 l 1000 481 l 1000 362 l 551 362 l 551 -421 l 433 -421 z "},"┤":{"ha":984,"x_min":-16,"x_max":551,"o":"m 432 -421 l 432 362 l -16 362 l -16 481 l 432 481 l 432 1264 l 551 1264 l 551 -421 l 432 -421 z "},"┬":{"ha":984,"x_min":-16,"x_max":999,"o":"m 432 362 l -16 362 l -16 481 l 999 481 l 999 362 l 551 362 l 551 -421 l 432 -421 l 432 362 z "},"┴":{"ha":984,"x_min":-16,"x_max":999,"o":"m 999 362 l -16 362 l -16 481 l 432 481 l 432 1264 l 551 1264 l 551 481 l 999 481 l 999 362 z "},"┼":{"ha":984,"x_min":-16,"x_max":999,"o":"m 432 362 l -16 362 l -16 481 l 432 481 l 432 1264 l 551 1264 l 551 481 l 999 481 l 999 362 l 551 362 l 551 -421 l 432 -421 l 432 362 z "},"═":{"ha":984,"x_min":0,"x_max":1015,"o":"m 1015 491 l 0 491 l 0 610 l 1015 610 l 1015 491 m 1015 233 l 0 233 l 0 352 l 1015 352 l 1015 233 z "},"║":{"ha":984,"x_min":0,"x_max":376,"o":"m 258 -421 l 258 1264 l 376 1264 l 376 -421 l 258 -421 m 0 -421 l 0 1264 l 119 1264 l 119 -421 l 0 -421 z "},"╒":{"ha":984,"x_min":0,"x_max":567,"o":"m 0 -421 l 0 610 l 567 610 l 567 491 l 119 491 l 119 352 l 567 352 l 567 233 l 119 233 l 119 -421 l 0 -421 z "},"╓":{"ha":984,"x_min":0,"x_max":696,"o":"m 0 -421 l 0 481 l 696 481 l 696 362 l 376 362 l 376 -421 l 258 -421 l 258 352 l 119 352 l 119 -421 l 0 -421 z "},"╔":{"ha":984,"x_min":0,"x_max":695,"o":"m 119 -421 l 0 -421 l 0 610 l 695 610 l 695 491 l 119 491 l 119 -421 m 376 233 l 376 -421 l 258 -421 l 258 352 l 695 352 l 695 233 l 376 233 z "},"╕":{"ha":984,"x_min":0,"x_max":566,"o":"m 448 233 l 0 233 l 0 352 l 448 352 l 448 491 l 0 491 l 0 610 l 566 610 l 566 -421 l 448 -421 l 448 233 z "},"╖":{"ha":984,"x_min":0,"x_max":695,"o":"m 319 -421 l 319 362 l 0 362 l 0 481 l 695 481 l 695 -421 l 576 -421 l 576 362 l 437 362 l 437 -421 l 319 -421 z "},"╗":{"ha":984,"x_min":0,"x_max":695,"o":"m 576 -421 l 576 491 l 0 491 l 0 610 l 695 610 l 695 -421 l 576 -421 m 319 233 l 0 233 l 0 352 l 437 352 l 437 -421 l 319 -421 l 319 233 z "},"╘":{"ha":984,"x_min":0,"x_max":567,"o":"m 0 233 l 0 1264 l 119 1264 l 119 610 l 567 610 l 567 491 l 119 491 l 119 352 l 567 352 l 567 233 l 0 233 z "},"╙":{"ha":984,"x_min":0,"x_max":696,"o":"m 696 362 l 0 362 l 0 1264 l 119 1264 l 119 481 l 258 481 l 258 1264 l 376 1264 l 376 481 l 696 481 l 696 362 z "},"╚":{"ha":984,"x_min":0,"x_max":695,"o":"m 119 1264 l 119 352 l 695 352 l 695 233 l 0 233 l 0 1264 l 119 1264 m 376 610 l 695 610 l 695 491 l 258 491 l 258 1264 l 376 1264 l 376 610 z "},"╛":{"ha":984,"x_min":0,"x_max":566,"o":"m 566 233 l 0 233 l 0 352 l 448 352 l 448 491 l 0 491 l 0 610 l 448 610 l 448 1264 l 566 1264 l 566 233 z "},"╜":{"ha":984,"x_min":0,"x_max":695,"o":"m 695 362 l 0 362 l 0 481 l 319 481 l 319 1264 l 437 1264 l 437 481 l 576 481 l 576 1264 l 695 1264 l 695 362 z "},"╝":{"ha":984,"x_min":0,"x_max":695,"o":"m 576 1264 l 695 1264 l 695 233 l 0 233 l 0 352 l 576 352 l 576 1264 m 319 610 l 319 1264 l 437 1264 l 437 491 l 0 491 l 0 610 l 319 610 z "},"╞":{"ha":984,"x_min":0,"x_max":567,"o":"m 0 -421 l 0 1264 l 119 1264 l 119 610 l 567 610 l 567 491 l 119 491 l 119 352 l 567 352 l 567 233 l 119 233 l 119 -421 l 0 -421 z "},"╟":{"ha":984,"x_min":0,"x_max":696,"o":"m 258 -421 l 258 1264 l 376 1264 l 376 481 l 696 481 l 696 362 l 376 362 l 376 -421 l 258 -421 m 0 -421 l 0 1264 l 119 1264 l 119 -421 l 0 -421 z "},"╠":{"ha":984,"x_min":0,"x_max":696,"o":"m 0 -421 l 0 1264 l 119 1264 l 119 -421 l 0 -421 m 258 491 l 258 1264 l 376 1264 l 376 610 l 696 610 l 696 491 l 258 491 m 258 -421 l 258 352 l 696 352 l 696 233 l 376 233 l 376 -421 l 258 -421 z "},"╡":{"ha":984,"x_min":0,"x_max":566,"o":"m 448 233 l 0 233 l 0 352 l 448 352 l 448 491 l 0 491 l 0 610 l 448 610 l 448 1264 l 566 1264 l 566 -421 l 448 -421 l 448 233 z "},"╢":{"ha":984,"x_min":0,"x_max":695,"o":"m 319 -421 l 319 362 l 0 362 l 0 481 l 319 481 l 319 1264 l 437 1264 l 437 -421 l 319 -421 m 576 -421 l 576 1264 l 695 1264 l 695 -421 l 576 -421 z "},"╣":{"ha":984,"x_min":0,"x_max":695,"o":"m 576 -421 l 576 1264 l 695 1264 l 695 -421 l 576 -421 m 437 1264 l 437 491 l 0 491 l 0 610 l 319 610 l 319 1264 l 437 1264 m 319 233 l 0 233 l 0 352 l 437 352 l 437 -421 l 319 -421 l 319 233 z "},"╤":{"ha":984,"x_min":0,"x_max":1015,"o":"m 1015 491 l 0 491 l 0 610 l 1015 610 l 1015 491 m 448 233 l 0 233 l 0 352 l 1015 352 l 1015 233 l 566 233 l 566 -421 l 448 -421 l 448 233 z "},"╥":{"ha":984,"x_min":0,"x_max":1015,"o":"m 319 -421 l 319 362 l 0 362 l 0 481 l 1015 481 l 1015 362 l 695 362 l 695 -421 l 576 -421 l 576 352 l 437 352 l 437 -421 l 319 -421 z "},"╦":{"ha":984,"x_min":0,"x_max":1015,"o":"m 1015 491 l 0 491 l 0 610 l 1015 610 l 1015 491 m 319 233 l 0 233 l 0 352 l 437 352 l 437 -421 l 319 -421 l 319 233 m 576 -421 l 576 352 l 1015 352 l 1015 233 l 695 233 l 695 -421 l 576 -421 z "},"╧":{"ha":984,"x_min":0,"x_max":1015,"o":"m 1015 491 l 0 491 l 0 610 l 448 610 l 448 1264 l 566 1264 l 566 610 l 1015 610 l 1015 491 m 1015 233 l 0 233 l 0 352 l 1015 352 l 1015 233 z "},"╨":{"ha":984,"x_min":0,"x_max":1015,"o":"m 1015 362 l 0 362 l 0 481 l 319 481 l 319 1264 l 437 1264 l 437 481 l 576 481 l 576 1264 l 695 1264 l 695 481 l 1015 481 l 1015 362 z "},"╩":{"ha":984,"x_min":0,"x_max":1015,"o":"m 437 491 l 0 491 l 0 610 l 319 610 l 319 1264 l 437 1264 l 437 491 m 1015 491 l 576 491 l 576 1264 l 695 1264 l 695 610 l 1015 610 l 1015 491 m 1015 233 l 0 233 l 0 352 l 1015 352 l 1015 233 z "},"╪":{"ha":984,"x_min":0,"x_max":1015,"o":"m 448 233 l 0 233 l 0 352 l 448 352 l 448 491 l 0 491 l 0 610 l 448 610 l 448 1264 l 566 1264 l 566 610 l 1015 610 l 1015 491 l 566 491 l 566 352 l 1015 352 l 1015 233 l 566 233 l 566 -421 l 448 -421 l 448 233 z "},"╫":{"ha":984,"x_min":0,"x_max":1015,"o":"m 319 -421 l 319 362 l 0 362 l 0 481 l 319 481 l 319 1264 l 437 1264 l 437 481 l 576 481 l 576 1264 l 695 1264 l 695 481 l 1015 481 l 1015 362 l 695 362 l 695 -421 l 576 -421 l 576 362 l 437 362 l 437 -421 l 319 -421 z "},"╬":{"ha":984,"x_min":0,"x_max":1015,"o":"m 696 610 l 1015 610 l 1015 491 l 577 491 l 577 1264 l 696 1264 l 696 610 m 319 610 l 319 1264 l 437 1264 l 437 491 l 0 491 l 0 610 l 319 610 m 319 233 l 0 233 l 0 352 l 437 352 l 437 -421 l 319 -421 l 319 233 m 696 233 l 696 -421 l 577 -421 l 577 352 l 1015 352 l 1015 233 l 696 233 z "},"▀":{"ha":984,"x_min":0,"x_max":1015,"o":"m 1015 421 l 0 421 l 0 1264 l 1015 1264 l 1015 421 z "},"▄":{"ha":984,"x_min":0,"x_max":1015,"o":"m 1015 -421 l 0 -421 l 0 421 l 1015 421 l 1015 -421 z "},"█":{"ha":984,"x_min":0,"x_max":1015,"o":"m 0 -421 l 0 1264 l 1015 1264 l 1015 -421 l 0 -421 z "},"▌":{"ha":984,"x_min":0,"x_max":507,"o":"m 0 -421 l 0 1264 l 507 1264 l 507 -421 l 0 -421 z "},"▐":{"ha":984,"x_min":0,"x_max":507,"o":"m 0 -421 l 0 1264 l 507 1264 l 507 -421 l 0 -421 z "},"░":{"ha":984,"x_min":69,"x_max":999,"o":"m 69 1264 l 154 1264 l 154 1179 l 69 1179 l 69 1264 m 407 1264 l 492 1264 l 492 1179 l 407 1179 l 407 1264 m 745 1264 l 830 1264 l 830 1179 l 745 1179 l 745 1264 m 238 1095 l 323 1095 l 323 1010 l 238 1010 l 238 1095 m 576 1095 l 661 1095 l 661 1010 l 576 1010 l 576 1095 m 914 1095 l 999 1095 l 999 1010 l 914 1010 l 914 1095 m 745 926 l 830 926 l 830 842 l 745 842 l 745 926 m 407 926 l 492 926 l 492 842 l 407 842 l 407 926 m 69 926 l 154 926 l 154 842 l 69 842 l 69 926 m 914 757 l 999 757 l 999 673 l 914 673 l 914 757 m 576 757 l 661 757 l 661 673 l 576 673 l 576 757 m 238 757 l 323 757 l 323 673 l 238 673 l 238 757 m 69 588 l 154 588 l 154 503 l 69 503 l 69 588 m 407 588 l 492 588 l 492 503 l 407 503 l 407 588 m 745 588 l 830 588 l 830 503 l 745 503 l 745 588 m 914 419 l 999 419 l 999 334 l 914 334 l 914 419 m 576 419 l 661 419 l 661 334 l 576 334 l 576 419 m 238 419 l 323 419 l 323 334 l 238 334 l 238 419 m 69 250 l 154 250 l 154 165 l 69 165 l 69 250 m 407 250 l 492 250 l 492 165 l 407 165 l 407 250 m 745 250 l 830 250 l 830 165 l 745 165 l 745 250 m 238 81 l 323 81 l 323 -3 l 238 -3 l 238 81 m 576 81 l 661 81 l 661 -3 l 576 -3 l 576 81 m 914 81 l 999 81 l 999 -3 l 914 -3 l 914 81 m 745 -88 l 830 -88 l 830 -173 l 745 -173 l 745 -88 m 407 -88 l 492 -88 l 492 -173 l 407 -173 l 407 -88 m 69 -88 l 154 -88 l 154 -173 l 69 -173 l 69 -88 m 238 -257 l 323 -257 l 323 -342 l 238 -342 l 238 -257 m 576 -257 l 661 -257 l 661 -342 l 576 -342 l 576 -257 m 914 -257 l 999 -257 l 999 -342 l 914 -342 l 914 -257 z "},"▒":{"ha":984,"x_min":-15,"x_max":999,"o":"m 70 1264 l 154 1264 l 154 1179 l 70 1179 l 70 1264 m 239 1264 l 323 1264 l 323 1179 l 239 1179 l 239 1264 m 408 1264 l 492 1264 l 492 1179 l 408 1179 l 408 1264 m 576 1264 l 661 1264 l 661 1179 l 576 1179 l 576 1264 m 746 1264 l 830 1264 l 830 1179 l 746 1179 l 746 1264 m 915 1264 l 999 1264 l 999 1179 l 915 1179 l 915 1264 m -15 1095 l 70 1095 l 70 1010 l -15 1010 l -15 1095 m 154 1095 l 239 1095 l 239 1010 l 154 1010 l 154 1095 m 323 1095 l 408 1095 l 408 1010 l 323 1010 l 323 1095 m 492 1095 l 576 1095 l 576 1010 l 492 1010 l 492 1095 m 661 1095 l 746 1095 l 746 1010 l 661 1010 l 661 1095 m 830 1095 l 915 1095 l 915 1010 l 830 1010 l 830 1095 m 70 926 l 154 926 l 154 842 l 70 842 l 70 926 m 239 926 l 323 926 l 323 842 l 239 842 l 239 926 m 408 926 l 492 926 l 492 842 l 408 842 l 408 926 m 576 926 l 661 926 l 661 842 l 576 842 l 576 926 m 746 926 l 830 926 l 830 842 l 746 842 l 746 926 m 915 926 l 999 926 l 999 842 l 915 842 l 915 926 m 154 757 l 239 757 l 239 673 l 154 673 l 154 757 m 323 757 l 408 757 l 408 673 l 323 673 l 323 757 m 492 757 l 576 757 l 576 673 l 492 673 l 492 757 m 661 757 l 746 757 l 746 673 l 661 673 l 661 757 m 830 757 l 915 757 l 915 673 l 830 673 l 830 757 m -15 757 l 70 757 l 70 673 l -15 673 l -15 757 m 70 588 l 154 588 l 154 503 l 70 503 l 70 588 m 239 588 l 323 588 l 323 503 l 239 503 l 239 588 m 408 588 l 492 588 l 492 503 l 408 503 l 408 588 m 576 588 l 661 588 l 661 503 l 576 503 l 576 588 m 746 588 l 830 588 l 830 503 l 746 503 l 746 588 m 915 588 l 999 588 l 999 503 l 915 503 l 915 588 m -15 419 l 70 419 l 70 334 l -15 334 l -15 419 m 323 419 l 408 419 l 408 334 l 323 334 l 323 419 m 492 419 l 576 419 l 576 334 l 492 334 l 492 419 m 661 419 l 746 419 l 746 334 l 661 334 l 661 419 m 830 419 l 915 419 l 915 334 l 830 334 l 830 419 m 154 419 l 239 419 l 239 334 l 154 334 l 154 419 m 915 250 l 999 250 l 999 165 l 915 165 l 915 250 m 746 250 l 830 250 l 830 165 l 746 165 l 746 250 m 576 250 l 661 250 l 661 165 l 576 165 l 576 250 m 408 250 l 492 250 l 492 165 l 408 165 l 408 250 m 239 250 l 323 250 l 323 165 l 239 165 l 239 250 m 70 250 l 154 250 l 154 165 l 70 165 l 70 250 m -15 81 l 70 81 l 70 -3 l -15 -3 l -15 81 m 154 81 l 239 81 l 239 -3 l 154 -3 l 154 81 m 323 81 l 408 81 l 408 -3 l 323 -3 l 323 81 m 492 81 l 576 81 l 576 -3 l 492 -3 l 492 81 m 661 81 l 746 81 l 746 -3 l 661 -3 l 661 81 m 830 81 l 915 81 l 915 -3 l 830 -3 l 830 81 m 915 -88 l 999 -88 l 999 -173 l 915 -173 l 915 -88 m 746 -88 l 830 -88 l 830 -173 l 746 -173 l 746 -88 m 576 -88 l 661 -88 l 661 -173 l 576 -173 l 576 -88 m 408 -88 l 492 -88 l 492 -173 l 408 -173 l 408 -88 m 239 -88 l 323 -88 l 323 -173 l 239 -173 l 239 -88 m 70 -88 l 154 -88 l 154 -173 l 70 -173 l 70 -88 m -15 -257 l 70 -257 l 70 -342 l -15 -342 l -15 -257 m 154 -257 l 239 -257 l 239 -342 l 154 -342 l 154 -257 m 323 -257 l 408 -257 l 408 -342 l 323 -342 l 323 -257 m 492 -257 l 576 -257 l 576 -342 l 492 -342 l 492 -257 m 661 -257 l 746 -257 l 746 -342 l 661 -342 l 661 -257 m 830 -257 l 915 -257 l 915 -342 l 830 -342 l 830 -257 z "},"▓":{"ha":1013,"x_min":-1,"x_max":1013,"o":"m 1013 1010 l 1013 757 l 929 757 l 929 673 l 1013 673 l 1013 419 l 929 419 l 929 334 l 1013 334 l 1013 81 l 929 81 l 929 -3 l 1013 -3 l 1013 -257 l 929 -257 l 929 -342 l 1013 -342 l 1013 -426 l -1 -426 l -1 -173 l 84 -173 l 84 -88 l -1 -88 l -1 165 l 84 165 l 84 250 l -1 250 l -1 503 l 84 503 l 84 588 l -1 588 l -1 842 l 84 842 l 84 926 l -1 926 l -1 1179 l 84 1179 l 84 1264 l 168 1264 l 168 1179 l 253 1179 l 253 1264 l 337 1264 l 337 1179 l 422 1179 l 422 1264 l 507 1264 l 507 1179 l 591 1179 l 591 1264 l 675 1264 l 675 1179 l 760 1179 l 760 1264 l 844 1264 l 844 1179 l 929 1179 l 929 1264 l 1013 1264 l 1013 1095 l 929 1095 l 929 1010 l 1013 1010 m 84 1095 l 84 1010 l 168 1010 l 168 1095 l 84 1095 m 253 1095 l 253 1010 l 337 1010 l 337 1095 l 253 1095 m 422 1095 l 422 1010 l 507 1010 l 507 1095 l 422 1095 m 591 1095 l 591 1010 l 675 1010 l 675 1095 l 591 1095 m 760 1095 l 760 1010 l 844 1010 l 844 1095 l 760 1095 m 929 926 l 844 926 l 844 842 l 929 842 l 929 926 m 760 926 l 675 926 l 675 842 l 760 842 l 760 926 m 591 926 l 507 926 l 507 842 l 591 842 l 591 926 m 422 926 l 337 926 l 337 842 l 422 842 l 422 926 m 253 926 l 168 926 l 168 842 l 253 842 l 253 926 m 84 757 l 84 673 l 168 673 l 168 757 l 84 757 m 253 757 l 253 673 l 337 673 l 337 757 l 253 757 m 422 757 l 422 673 l 507 673 l 507 757 l 422 757 m 591 757 l 591 673 l 675 673 l 675 757 l 591 757 m 760 757 l 760 673 l 844 673 l 844 757 l 760 757 m 253 588 l 168 588 l 168 503 l 253 503 l 253 588 m 337 588 l 337 503 l 422 503 l 422 588 l 337 588 m 507 588 l 507 503 l 591 503 l 591 588 l 507 588 m 675 588 l 675 503 l 760 503 l 760 588 l 675 588 m 844 588 l 844 503 l 929 503 l 929 588 l 844 588 m 84 419 l 84 334 l 168 334 l 168 419 l 84 419 m 422 419 l 422 334 l 507 334 l 507 419 l 422 419 m 337 334 l 337 419 l 253 419 l 253 334 l 337 334 m 591 419 l 591 334 l 675 334 l 675 419 l 591 419 m 760 419 l 760 334 l 844 334 l 844 419 l 760 419 m 929 165 l 929 250 l 844 250 l 844 165 l 929 165 m 760 165 l 760 250 l 675 250 l 675 165 l 760 165 m 591 165 l 591 250 l 507 250 l 507 165 l 591 165 m 422 165 l 422 250 l 337 250 l 337 165 l 422 165 m 253 165 l 253 250 l 168 250 l 168 165 l 253 165 m 84 81 l 84 -3 l 168 -3 l 168 81 l 84 81 m 253 81 l 253 -3 l 337 -3 l 337 81 l 253 81 m 422 81 l 422 -3 l 507 -3 l 507 81 l 422 81 m 591 81 l 591 -3 l 675 -3 l 675 81 l 591 81 m 760 81 l 760 -3 l 844 -3 l 844 81 l 760 81 m 929 -173 l 929 -88 l 844 -88 l 844 -173 l 929 -173 m 760 -173 l 760 -88 l 675 -88 l 675 -173 l 760 -173 m 591 -173 l 591 -88 l 507 -88 l 507 -173 l 591 -173 m 422 -173 l 422 -88 l 337 -88 l 337 -173 l 422 -173 m 253 -173 l 253 -88 l 168 -88 l 168 -173 l 253 -173 m 84 -257 l 84 -342 l 168 -342 l 168 -257 l 84 -257 m 253 -257 l 253 -342 l 337 -342 l 337 -257 l 253 -257 m 422 -257 l 422 -342 l 507 -342 l 507 -257 l 422 -257 m 591 -257 l 591 -342 l 675 -342 l 675 -257 l 591 -257 m 760 -257 l 760 -342 l 844 -342 l 844 -257 l 760 -257 z "},"■":{"ha":839,"x_min":0,"x_max":640,"o":"m 0 640 l 640 640 l 640 0 l 0 0 l 0 640 z "},"▬":{"ha":1389,"x_min":0,"x_max":1388,"o":"m 0 477 l 1388 477 l 1388 215 l 0 215 l 0 477 z "},"▲":{"ha":1375,"x_min":0,"x_max":963,"o":"m 0 0 l 481 962 l 963 0 l 0 0 z "},"►":{"ha":1375,"x_min":0,"x_max":984,"o":"m 0 961 l 984 470 l 0 -21 l 0 961 z "},"▼":{"ha":1375,"x_min":0,"x_max":963,"o":"m 963 941 l 481 -21 l 0 941 l 963 941 z "},"◄":{"ha":1375,"x_min":195,"x_max":1179,"o":"m 1179 961 l 1179 -21 l 195 470 l 1179 961 z "},"○":{"ha":839,"x_min":0,"x_max":597,"o":"m 299 690 q 446 652 374 690 q 557 541 517 613 q 597 392 597 469 q 510 180 597 268 q 299 93 422 93 q 87 180 175 93 q 0 392 0 268 q 40 542 0 470 q 152 652 80 613 q 299 690 224 690 m 299 639 q 177 607 236 639 q 85 515 118 575 q 52 392 52 456 q 124 217 52 290 q 299 144 197 144 q 474 217 401 144 q 546 392 546 290 q 513 515 546 456 q 420 607 479 575 q 299 639 361 639 z "},"◘":{"ha":839,"x_min":0,"x_max":665,"o":"m 0 0 l 0 665 l 665 665 l 665 0 l 0 0 m 332 469 q 235 429 275 469 q 195 332 195 389 q 236 236 195 276 q 332 195 276 195 q 429 236 389 195 q 469 332 469 276 q 429 429 469 389 q 332 469 389 469 z "},"◙":{"ha":839,"x_min":0,"x_max":783,"o":"m 0 0 l 0 783 l 783 783 l 783 0 l 0 0 m 391 690 q 244 652 316 690 q 133 541 173 613 q 93 391 93 469 q 180 180 93 268 q 391 93 268 93 q 603 180 515 93 q 690 391 690 268 q 650 541 690 469 q 539 652 610 613 q 391 690 467 690 m 392 639 q 513 607 454 639 q 606 516 572 575 q 639 391 639 456 q 567 217 639 289 q 392 144 494 144 q 217 217 289 144 q 144 391 144 289 q 178 516 144 456 q 270 607 211 575 q 392 639 330 639 z "},"☺":{"ha":1418,"x_min":277,"x_max":1142,"o":"m 709 784 q 922 728 818 784 q 1084 568 1025 672 q 1142 351 1142 464 q 1085 137 1142 239 q 924 -23 1027 34 q 709 -81 821 -81 q 494 -23 597 -81 q 334 137 391 34 q 277 351 277 239 q 335 568 277 464 q 496 728 393 672 q 709 784 600 784 m 709 721 q 528 673 616 721 q 390 536 439 625 q 340 351 340 448 q 389 168 340 256 q 526 31 437 80 q 709 -18 614 -18 q 893 31 805 -18 q 1030 168 981 80 q 1079 351 1079 256 q 1029 536 1079 448 q 891 673 979 625 q 709 721 802 721 m 543 496 q 582 480 566 496 q 598 441 598 464 q 582 402 598 418 q 543 386 566 386 q 505 402 521 386 q 488 441 488 418 q 505 480 488 464 q 543 496 521 496 m 875 496 q 914 480 898 496 q 930 441 930 464 q 914 402 930 418 q 875 386 898 386 q 836 402 852 386 q 820 441 820 418 q 836 480 820 464 q 875 496 852 496 m 510 212 l 552 237 q 709 139 606 139 q 866 237 813 139 l 909 212 q 825 114 875 148 q 709 80 775 80 q 593 114 643 80 q 510 212 544 148 z "},"☻":{"ha":1461,"x_min":298,"x_max":1164,"o":"m 731 784 q 943 728 840 784 q 1105 568 1047 672 q 1164 351 1164 464 q 1106 137 1164 239 q 946 -23 1049 34 q 731 -81 843 -81 q 516 -23 618 -81 q 356 137 413 34 q 298 351 298 239 q 356 568 298 464 q 518 728 414 672 q 731 784 622 784 m 565 496 q 526 480 543 496 q 510 441 510 464 q 526 402 510 418 q 565 386 543 386 q 604 402 588 386 q 620 441 620 418 q 604 480 620 464 q 565 496 588 496 m 897 496 q 858 480 873 496 q 842 441 842 464 q 858 402 842 418 q 897 386 874 386 q 936 402 920 386 q 951 441 951 418 q 936 480 951 464 q 897 496 920 496 m 532 212 q 615 114 566 148 q 731 80 665 80 q 847 114 797 80 q 930 212 897 148 l 888 237 q 731 139 835 139 q 574 237 627 139 l 532 212 z "},"☼":{"ha":1273,"x_min":0,"x_max":1252,"o":"m 601 1099 l 652 1099 l 652 871 q 775 845 722 866 q 889 775 829 823 l 1086 968 l 1121 932 l 927 738 q 997 623 977 673 q 1024 495 1023 558 l 1252 495 l 1252 448 l 1025 448 q 928 213 1012 320 l 1121 16 l 1082 -18 l 890 173 q 774 105 824 124 q 652 77 725 85 l 652 -151 l 601 -151 l 601 77 q 473 109 525 87 q 367 171 421 130 l 168 -18 l 133 17 l 326 211 q 258 323 281 268 q 228 451 235 379 l 0 451 l 0 498 l 228 498 q 256 624 234 570 q 326 734 279 677 l 133 929 l 165 968 l 363 777 q 485 845 432 824 q 601 871 538 865 l 601 1099 m 625 821 q 454 777 537 821 q 324 648 370 732 q 277 474 277 564 q 323 301 277 384 q 452 172 369 218 q 625 126 534 126 q 798 172 715 126 q 926 301 880 218 q 972 474 972 384 q 926 648 972 564 q 795 777 879 732 q 625 821 712 821 z "},"♀":{"ha":1042,"x_min":165,"x_max":876,"o":"m 540 313 l 540 40 l 851 40 l 851 0 l 540 0 l 540 -298 l 500 -298 l 500 0 l 188 0 l 188 40 l 500 40 l 500 313 q 347 357 430 313 q 215 487 264 401 q 165 667 165 572 q 213 844 165 759 q 344 975 260 928 q 521 1022 428 1022 q 697 975 613 1022 q 829 843 782 928 q 876 667 876 759 q 778 422 876 525 q 540 313 681 319 m 520 984 q 364 943 440 984 q 245 825 288 902 q 202 666 202 749 q 295 440 202 534 q 520 347 389 347 q 746 440 652 347 q 839 666 839 534 q 796 825 839 749 q 677 943 753 902 q 520 984 601 984 z "},"♂":{"ha":1042,"x_min":75,"x_max":960,"o":"m 825 1099 l 849 1088 l 960 636 l 921 626 l 825 1020 l 582 499 q 734 362 682 448 q 785 178 785 276 q 739 1 785 85 q 607 -131 692 -83 q 430 -178 523 -178 q 253 -131 338 -178 q 122 1 169 -83 q 75 178 75 85 q 179 429 75 325 q 432 532 283 532 q 545 514 485 532 l 789 1037 l 425 857 l 408 893 l 825 1099 m 430 496 q 274 455 350 496 q 155 337 197 414 q 112 178 112 260 q 205 -48 112 45 q 430 -141 298 -141 q 655 -48 562 -141 q 749 178 749 45 q 706 337 749 260 q 587 455 663 414 q 430 496 511 496 z "},"♠":{"ha":738,"x_min":0,"x_max":659,"o":"m 330 835 q 385 704 348 762 q 515 561 421 646 q 634 430 609 476 q 659 338 659 385 q 616 230 659 273 q 511 186 572 186 q 338 315 406 186 q 365 157 339 216 q 446 65 390 98 q 594 25 501 31 l 599 0 l 62 0 l 66 25 q 260 98 191 25 q 326 315 329 171 q 251 219 296 251 q 149 186 205 186 q 44 231 88 186 q 0 335 0 275 q 22 425 0 385 q 128 543 52 481 q 275 699 223 621 q 330 835 313 755 z "},"♣":{"ha":911,"x_min":37,"x_max":873,"o":"m 745 0 l 170 0 l 175 23 q 323 70 287 47 q 413 172 378 104 q 448 315 448 240 l 448 347 q 347 224 406 262 q 226 185 288 185 q 92 240 147 185 q 37 375 37 295 q 87 508 37 454 q 201 562 138 562 q 312 527 242 562 q 275 598 283 574 q 267 650 267 623 q 320 782 267 728 q 454 835 374 835 q 588 782 534 835 q 643 653 643 728 q 596 527 643 593 q 665 557 653 554 q 706 563 683 563 q 824 510 774 563 q 873 378 873 456 q 819 241 873 296 q 688 186 764 186 q 601 207 646 186 q 522 262 555 227 q 463 347 498 287 q 495 176 465 239 q 588 72 526 113 q 739 23 630 44 l 745 0 z "},"♥":{"ha":825,"x_min":0,"x_max":739,"o":"m 371 -16 q 311 134 350 64 q 160 352 272 204 q 59 490 78 460 q 14 577 28 537 q 0 657 0 616 q 50 783 0 732 q 175 834 100 834 q 304 781 249 834 q 371 664 345 742 q 448 792 395 750 q 563 835 500 835 q 688 785 637 835 q 739 665 739 734 q 710 538 739 604 q 594 363 680 472 q 437 142 483 223 q 371 -16 392 62 z "},"♦":{"ha":709,"x_min":0,"x_max":623,"o":"m 310 835 q 465 606 370 732 q 623 410 560 479 q 458 205 572 357 q 311 -16 366 81 q 190 166 281 39 q 0 410 127 254 q 176 632 68 488 q 310 835 256 739 z "},"♪":{"ha":694,"x_min":25,"x_max":669,"o":"m 330 924 l 355 924 q 509 915 472 924 q 604 863 563 901 q 652 782 634 834 q 669 661 669 730 l 669 591 l 602 591 l 602 621 q 583 699 602 667 q 526 748 564 731 q 416 770 476 770 l 397 770 l 397 203 q 375 76 397 121 q 300 2 353 30 q 185 -25 248 -25 q 68 17 111 -25 q 25 126 25 58 q 77 246 25 197 q 212 294 128 294 q 330 263 264 294 l 330 924 z "},"♫":{"ha":1042,"x_min":58,"x_max":902,"o":"m 362 862 l 902 1030 l 902 279 q 881 152 902 195 q 808 81 859 109 q 692 54 757 54 q 574 96 618 54 q 530 205 530 138 q 583 322 530 273 q 718 372 635 372 q 765 367 745 372 q 833 342 786 362 l 833 833 l 429 708 l 429 141 q 408 13 429 59 q 333 -60 386 -33 q 218 -87 280 -87 q 101 -45 144 -87 q 58 64 58 -3 q 109 183 58 135 q 244 232 161 232 q 362 201 297 232 l 362 862 z "},"Ĳ":{"ha":950,"x_min":78,"x_max":859,"o":"m 78 0 l 78 994 l 242 994 l 242 0 l 78 0 m 694 994 l 859 994 l 859 365 q 829 138 859 212 q 738 23 798 63 q 588 -17 677 -17 q 404 64 471 -17 q 337 307 338 144 l 492 329 q 515 205 495 241 q 594 155 541 155 q 670 191 646 155 q 694 352 694 227 l 694 994 z "},"ĳ":{"ha":633,"x_min":82,"x_max":553,"o":"m 82 818 l 82 994 l 239 994 l 239 818 l 82 818 m 82 0 l 82 720 l 239 720 l 239 0 l 82 0 m 396 818 l 396 994 l 553 994 l 553 818 l 396 818 m 553 720 l 553 22 q 536 -179 553 -125 q 478 -263 520 -233 q 374 -292 436 -292 q 266 -272 328 -292 l 293 -109 q 332 -115 315 -115 q 388 -83 372 -115 q 396 33 396 -65 l 396 720 l 553 720 z "},"ŉ":{"ha":939,"x_min":39,"x_max":858,"o":"m 858 0 l 701 0 l 701 368 q 692 515 701 478 q 660 571 684 551 q 605 591 635 591 q 534 565 566 591 q 489 495 502 540 q 476 326 476 450 l 476 0 l 319 0 l 319 720 l 465 720 l 465 614 q 552 706 503 675 q 659 736 600 736 q 775 701 728 736 q 840 609 822 665 q 858 448 858 553 l 858 0 m 52 994 l 208 994 l 208 857 q 180 685 208 742 q 69 581 147 616 l 39 661 q 105 712 85 680 q 127 804 125 745 l 52 804 l 52 994 z "},"′":{"ha":271,"x_min":51,"x_max":221,"o":"m 80 641 l 51 826 l 51 994 l 221 994 l 221 826 l 195 641 l 80 641 z "},"″":{"ha":541,"x_min":62,"x_max":484,"o":"m 92 641 l 62 826 l 62 994 l 233 994 l 233 826 l 207 641 l 92 641 m 343 641 l 313 826 l 313 994 l 484 994 l 484 826 l 458 641 l 343 641 z "},"℅":{"ha":1097,"x_min":50,"x_max":1048,"o":"m 418 846 l 304 819 q 241 899 294 899 q 169 756 169 899 q 244 599 169 599 q 309 695 297 599 l 423 670 q 239 483 393 483 q 97 558 144 483 q 50 748 50 634 q 99 938 50 865 q 240 1011 148 1011 q 418 846 385 1011 m 328 -37 l 239 -37 l 723 1006 l 811 1006 l 328 -37 m 641 260 q 695 442 641 368 q 844 517 750 517 q 994 439 940 517 q 1048 254 1048 361 q 990 65 1048 141 q 846 -12 933 -12 q 699 58 757 -12 q 641 260 641 128 m 760 253 q 784 145 760 184 q 844 105 808 105 q 904 144 880 105 q 928 255 928 183 q 906 358 928 316 q 844 401 884 401 q 784 360 807 401 q 760 253 760 320 z "},"ℓ":{"ha":681,"x_min":22,"x_max":635,"o":"m 52 252 l 22 426 l 123 475 q 150 794 123 700 q 247 950 178 888 q 412 1011 317 1011 q 574 944 513 1011 q 635 776 635 876 q 570 590 635 678 q 314 381 505 503 q 343 179 313 227 q 433 131 373 131 q 614 214 505 131 l 614 51 q 414 -16 517 -16 q 129 287 165 -16 q 52 252 92 268 m 314 583 q 440 694 406 650 q 473 783 473 738 q 455 836 473 816 q 410 856 437 856 q 345 815 373 856 q 315 639 317 774 l 314 583 z "},"□":{"ha":839,"x_min":99,"x_max":739,"o":"m 99 640 l 739 640 l 739 0 l 99 0 l 99 640 m 151 589 l 151 52 l 688 52 l 688 589 l 151 589 z "},"▪":{"ha":492,"x_min":89,"x_max":403,"o":"m 403 616 l 403 302 l 89 302 l 89 616 l 403 616 z "},"▫":{"ha":492,"x_min":89,"x_max":403,"o":"m 403 616 l 403 302 l 89 302 l 89 616 l 403 616 m 351 565 l 140 564 l 140 353 l 351 353 l 351 565 z "},"●":{"ha":839,"x_min":121,"x_max":718,"o":"m 420 690 q 566 652 494 690 q 678 541 638 613 q 718 392 718 469 q 631 180 718 268 q 420 93 543 93 q 208 180 296 93 q 121 392 121 268 q 161 542 121 470 q 273 652 201 613 q 420 690 345 690 z "},"◦":{"ha":492,"x_min":76,"x_max":416,"o":"m 246 629 q 367 579 317 629 q 416 459 416 530 q 367 339 416 389 q 246 289 317 289 q 126 339 176 289 q 76 459 76 389 q 125 579 76 530 q 246 629 175 629 m 246 578 q 162 543 197 578 q 127 459 127 508 q 162 375 127 410 q 246 340 197 340 q 330 375 295 340 q 365 459 365 410 q 330 543 365 508 q 246 578 296 578 z "},"Ā":{"ha":822,"x_min":0,"x_max":818,"o":"m 818 0 l 639 0 l 568 226 l 242 226 l 175 0 l 0 0 l 317 994 l 492 994 l 818 0 m 515 393 l 403 762 l 292 393 l 515 393 m 222 1099 l 222 1225 l 581 1225 l 581 1099 l 222 1099 z "},"ā":{"ha":633,"x_min":41,"x_max":595,"o":"m 199 500 l 57 532 q 142 689 83 641 q 313 736 201 736 q 464 709 412 736 q 538 633 516 681 q 561 459 561 585 l 559 237 q 567 97 559 143 q 595 0 574 52 l 440 0 l 420 79 q 334 7 380 31 q 237 -16 288 -16 q 96 42 151 -16 q 41 196 41 100 q 63 302 41 257 q 126 375 85 348 q 256 423 167 402 q 408 470 365 448 q 399 548 408 530 q 368 579 391 567 q 304 591 345 591 q 238 572 262 591 q 199 500 214 553 m 408 346 q 315 317 378 334 q 220 275 242 298 q 197 216 197 252 q 222 146 197 174 q 284 118 247 118 q 350 141 317 118 q 395 195 382 163 q 408 308 408 226 l 408 346 m 147 848 l 147 973 l 505 973 l 505 848 l 147 848 z "},"Ĉ":{"ha":822,"x_min":54,"x_max":764,"o":"m 605 366 l 764 304 q 640 60 727 137 q 427 -17 553 -17 q 168 106 267 -17 q 54 488 54 248 q 169 886 54 743 q 437 1011 269 1011 q 666 918 574 1011 q 762 720 732 851 l 600 673 q 537 797 584 753 q 428 840 491 840 q 281 761 338 840 q 224 501 224 682 q 279 234 224 313 q 424 155 335 155 q 536 205 489 155 q 605 366 584 256 m 225 1061 l 342 1261 l 486 1261 l 602 1061 l 476 1061 l 412 1162 l 352 1061 l 225 1061 z "},"ĉ":{"ha":633,"x_min":47,"x_max":605,"o":"m 597 507 l 443 473 q 336 587 426 587 q 243 538 279 587 q 208 373 208 489 q 243 192 208 245 q 338 139 279 139 q 410 169 382 139 q 451 276 439 199 l 605 244 q 332 -16 557 -16 q 117 94 187 -16 q 47 358 47 203 q 126 640 47 543 q 334 736 205 736 q 503 682 437 736 q 597 507 568 627 m 135 808 l 252 1008 l 396 1008 l 511 808 l 386 808 l 321 909 l 262 808 l 135 808 z "},"Ċ":{"ha":822,"x_min":54,"x_max":764,"o":"m 605 366 l 764 304 q 640 60 727 137 q 427 -17 553 -17 q 168 106 267 -17 q 54 488 54 248 q 169 886 54 743 q 437 1011 269 1011 q 666 918 574 1011 q 762 720 732 851 l 600 673 q 537 797 584 753 q 428 840 491 840 q 281 761 338 840 q 224 501 224 682 q 279 234 224 313 q 424 155 335 155 q 536 205 489 155 q 605 366 584 256 m 338 1100 l 338 1280 l 492 1280 l 492 1100 l 338 1100 z "},"ċ":{"ha":633,"x_min":47,"x_max":605,"o":"m 597 507 l 443 473 q 336 587 426 587 q 243 538 279 587 q 208 373 208 489 q 243 192 208 245 q 338 139 279 139 q 410 169 382 139 q 451 276 439 199 l 605 244 q 332 -16 557 -16 q 117 94 187 -16 q 47 358 47 203 q 126 640 47 543 q 334 736 205 736 q 503 682 437 736 q 597 507 568 627 m 254 848 l 254 1029 l 408 1029 l 408 848 l 254 848 z "},"Ē":{"ha":760,"x_min":83,"x_max":703,"o":"m 83 0 l 83 994 l 688 994 l 688 826 l 248 826 l 248 606 l 657 606 l 657 438 l 248 438 l 248 168 l 703 168 l 703 0 l 83 0 m 214 1100 l 214 1225 l 572 1225 l 572 1100 l 214 1100 z "},"ē":{"ha":633,"x_min":37,"x_max":589,"o":"m 425 229 l 580 197 q 483 36 549 89 q 323 -16 417 -16 q 121 71 192 -16 q 37 356 37 173 q 121 645 37 536 q 307 736 193 736 q 506 643 434 736 q 589 327 589 536 l 588 305 l 197 305 q 235 173 198 220 q 324 126 272 126 q 425 229 399 126 m 433 422 q 397 548 431 506 q 317 591 363 591 q 233 547 267 591 q 199 422 199 502 l 433 422 m 137 848 l 137 973 l 495 973 l 495 848 l 137 848 z "},"Ĕ":{"ha":760,"x_min":83,"x_max":703,"o":"m 83 0 l 83 994 l 688 994 l 688 826 l 248 826 l 248 606 l 657 606 l 657 438 l 248 438 l 248 168 l 703 168 l 703 0 l 83 0 m 499 1259 l 575 1259 q 521 1113 569 1164 q 402 1061 473 1061 q 283 1113 331 1061 q 229 1259 235 1164 l 304 1259 q 402 1161 313 1161 q 499 1259 491 1161 z "},"ĕ":{"ha":633,"x_min":37,"x_max":589,"o":"m 425 229 l 580 197 q 483 36 549 89 q 323 -16 417 -16 q 121 71 192 -16 q 37 356 37 173 q 121 645 37 536 q 307 736 193 736 q 506 643 434 736 q 589 327 589 536 l 588 305 l 197 305 q 235 173 198 220 q 324 126 272 126 q 425 229 399 126 m 433 422 q 397 548 431 506 q 317 591 363 591 q 233 547 267 591 q 199 422 199 502 l 433 422 m 419 1011 l 495 1011 q 441 865 489 916 q 322 814 393 814 q 203 865 251 814 q 149 1011 155 916 l 224 1011 q 322 913 233 913 q 419 1011 411 913 z "},"Ė":{"ha":760,"x_min":83,"x_max":703,"o":"m 83 0 l 83 994 l 688 994 l 688 826 l 248 826 l 248 606 l 657 606 l 657 438 l 248 438 l 248 168 l 703 168 l 703 0 l 83 0 m 323 1100 l 323 1280 l 477 1280 l 477 1100 l 323 1100 z "},"ė":{"ha":633,"x_min":37,"x_max":589,"o":"m 425 229 l 580 197 q 483 36 549 89 q 323 -16 417 -16 q 121 71 192 -16 q 37 356 37 173 q 121 645 37 536 q 307 736 193 736 q 506 643 434 736 q 589 327 589 536 l 588 305 l 197 305 q 235 173 198 220 q 324 126 272 126 q 425 229 399 126 m 433 422 q 397 548 431 506 q 317 591 363 591 q 233 547 267 591 q 199 422 199 502 l 433 422 m 229 847 l 229 1027 l 383 1027 l 383 847 l 229 847 z "},"Ĝ":{"ha":886,"x_min":55,"x_max":817,"o":"m 463 366 l 463 533 l 817 533 l 817 137 q 665 28 764 74 q 468 -17 567 -17 q 255 42 347 -17 q 109 220 163 102 q 55 498 55 338 q 110 779 55 663 q 251 954 164 896 q 460 1011 338 1011 q 693 937 606 1011 q 806 719 781 863 l 644 682 q 576 799 625 758 q 460 840 528 840 q 290 758 355 840 q 224 509 224 676 q 295 235 224 329 q 458 155 355 155 q 558 177 507 155 q 651 239 610 200 l 651 366 l 463 366 m 267 1061 l 384 1261 l 528 1261 l 644 1061 l 518 1061 l 454 1162 l 394 1061 l 267 1061 z "},"ĝ":{"ha":696,"x_min":47,"x_max":623,"o":"m 67 -47 l 246 -74 q 271 -130 250 -113 q 336 -146 292 -146 q 420 -130 388 -146 q 454 -89 442 -117 q 467 12 467 -60 l 467 117 q 387 29 431 58 q 290 0 343 0 q 124 89 191 0 q 47 364 47 191 q 120 643 47 549 q 296 736 193 736 q 396 707 351 736 q 477 619 441 678 l 477 720 l 623 720 l 623 74 q 595 -151 623 -81 q 507 -257 566 -221 q 342 -292 448 -292 q 187 -267 245 -292 q 98 -190 129 -241 q 67 -71 67 -138 l 67 -47 m 207 375 q 244 207 207 260 q 333 154 281 154 q 429 208 389 154 q 469 370 469 261 q 431 537 469 483 q 336 591 393 591 q 244 538 281 591 q 207 375 207 485 m 164 811 l 281 1011 l 425 1011 l 541 811 l 415 811 l 351 912 l 291 811 l 164 811 z "},"Ġ":{"ha":886,"x_min":55,"x_max":817,"o":"m 463 366 l 463 533 l 817 533 l 817 137 q 665 28 764 74 q 468 -17 567 -17 q 255 42 347 -17 q 109 220 163 102 q 55 498 55 338 q 110 779 55 663 q 251 954 164 896 q 460 1011 338 1011 q 693 937 606 1011 q 806 719 781 863 l 644 682 q 576 799 625 758 q 460 840 528 840 q 290 758 355 840 q 224 509 224 676 q 295 235 224 329 q 458 155 355 155 q 558 177 507 155 q 651 239 610 200 l 651 366 l 463 366 m 368 1103 l 368 1283 l 522 1283 l 522 1103 l 368 1103 z "},"ġ":{"ha":696,"x_min":47,"x_max":623,"o":"m 67 -47 l 246 -74 q 271 -130 250 -113 q 336 -146 292 -146 q 420 -130 388 -146 q 454 -89 442 -117 q 467 12 467 -60 l 467 117 q 387 29 431 58 q 290 0 343 0 q 124 89 191 0 q 47 364 47 191 q 120 643 47 549 q 296 736 193 736 q 396 707 351 736 q 477 619 441 678 l 477 720 l 623 720 l 623 74 q 595 -151 623 -81 q 507 -257 566 -221 q 342 -292 448 -292 q 187 -267 245 -292 q 98 -190 129 -241 q 67 -71 67 -138 l 67 -47 m 207 375 q 244 207 207 260 q 333 154 281 154 q 429 208 389 154 q 469 370 469 261 q 431 537 469 483 q 336 591 393 591 q 244 538 281 591 q 207 375 207 485 m 261 847 l 261 1027 l 415 1027 l 415 847 l 261 847 z "},"Ģ":{"ha":886,"x_min":55,"x_max":817,"o":"m 463 366 l 463 533 l 817 533 l 817 137 q 665 28 764 74 q 468 -17 567 -17 q 255 42 347 -17 q 109 220 163 102 q 55 498 55 338 q 110 779 55 663 q 251 954 164 896 q 460 1011 338 1011 q 693 937 606 1011 q 806 719 781 863 l 644 682 q 576 799 625 758 q 460 840 528 840 q 290 758 355 840 q 224 509 224 676 q 295 235 224 329 q 458 155 355 155 q 558 177 507 155 q 651 239 610 200 l 651 366 l 463 366 m 290 -273 l 290 -193 q 395 -201 347 -201 q 464 -183 441 -201 q 487 -137 487 -165 q 468 -96 487 -112 q 416 -80 450 -80 q 343 -94 380 -80 l 357 -26 q 452 -8 401 -8 q 554 -44 516 -8 q 593 -136 593 -79 q 542 -243 593 -201 q 398 -284 491 -284 q 290 -273 326 -284 z "},"ģ":{"ha":696,"x_min":47,"x_max":623,"o":"m 67 -47 l 246 -74 q 271 -130 250 -113 q 336 -146 292 -146 q 420 -130 388 -146 q 454 -89 442 -117 q 467 12 467 -60 l 467 117 q 387 29 431 58 q 290 0 343 0 q 124 89 191 0 q 47 364 47 191 q 120 643 47 549 q 296 736 193 736 q 396 707 351 736 q 477 619 441 678 l 477 720 l 623 720 l 623 74 q 595 -151 623 -81 q 507 -257 566 -221 q 342 -292 448 -292 q 187 -267 245 -292 q 98 -190 129 -241 q 67 -71 67 -138 l 67 -47 m 207 375 q 244 207 207 260 q 333 154 281 154 q 429 208 389 154 q 469 370 469 261 q 431 537 469 483 q 336 591 393 591 q 244 538 281 591 q 207 375 207 485 m 439 781 l 298 781 l 298 903 q 420 1105 298 1050 l 448 1034 q 370 952 387 1010 l 439 952 l 439 781 z "},"Ĥ":{"ha":822,"x_min":83,"x_max":735,"o":"m 83 0 l 83 994 l 248 994 l 248 603 l 570 603 l 570 994 l 735 994 l 735 0 l 570 0 l 570 435 l 248 435 l 248 0 l 83 0 m 222 1061 l 339 1261 l 484 1261 l 599 1061 l 473 1061 l 409 1162 l 349 1061 l 222 1061 z "},"ĥ":{"ha":696,"x_min":81,"x_max":619,"o":"m 238 994 l 238 629 q 320 710 275 683 q 418 736 366 736 q 536 699 489 736 q 604 593 584 662 q 619 422 619 543 l 619 0 l 463 0 l 463 380 q 446 546 463 513 q 366 591 422 591 q 272 542 305 591 q 238 361 238 494 l 238 0 l 81 0 l 81 994 l 238 994 m 192 1064 l 309 1264 l 453 1264 l 568 1064 l 443 1064 l 378 1165 l 319 1064 l 192 1064 z "},"Ħ":{"ha":822,"x_min":3,"x_max":815,"o":"m 83 734 l 3 734 l 3 861 l 83 861 l 83 994 l 248 994 l 248 861 l 571 861 l 571 994 l 734 994 l 734 861 l 815 861 l 815 734 l 734 734 l 734 0 l 571 0 l 571 435 l 248 435 l 248 0 l 83 0 l 83 734 m 248 734 l 248 603 l 571 603 l 571 734 l 248 734 z "},"ħ":{"ha":696,"x_min":-1,"x_max":618,"o":"m -1 916 l 79 916 l 79 994 l 236 994 l 236 916 l 427 916 l 427 817 l 236 817 l 236 628 q 420 736 314 736 q 536 696 484 736 q 603 596 588 656 q 618 422 618 536 l 618 0 l 461 0 l 461 380 q 445 542 461 493 q 364 590 429 590 q 267 536 298 590 q 236 361 236 483 l 236 0 l 79 0 l 79 817 l -1 817 l -1 916 z "},"Ĩ":{"ha":317,"x_min":-31,"x_max":353,"o":"m 78 0 l 78 994 l 242 994 l 242 0 l 78 0 m 40 1062 l -31 1062 l -31 1084 q -2 1197 -31 1159 q 71 1234 26 1234 q 106 1229 90 1234 q 161 1203 123 1223 q 236 1176 212 1176 q 281 1235 275 1176 l 353 1235 q 325 1104 353 1143 q 254 1065 298 1065 q 218 1069 236 1065 q 159 1095 205 1073 q 79 1121 102 1121 q 51 1108 62 1121 q 40 1062 41 1095 z "},"ĩ":{"ha":317,"x_min":-32,"x_max":353,"o":"m 82 0 l 82 720 l 239 720 l 239 0 l 82 0 m 39 817 l -31 817 l -32 840 q -3 952 -32 914 q 70 989 26 989 q 106 984 89 989 q 161 958 123 979 q 235 931 211 931 q 281 990 274 931 l 353 990 q 325 859 352 898 q 254 820 297 820 q 218 825 235 820 q 158 850 205 828 q 78 876 102 876 q 51 863 61 876 q 39 817 40 850 z "},"Ī":{"ha":317,"x_min":-17,"x_max":341,"o":"m 78 0 l 78 994 l 242 994 l 242 0 l 78 0 m -17 1100 l -17 1225 l 341 1225 l 341 1100 l -17 1100 z "},"ī":{"ha":317,"x_min":-16,"x_max":342,"o":"m 82 0 l 82 720 l 239 720 l 239 0 l 82 0 m -16 847 l -16 972 l 342 972 l 342 847 l -16 847 z "},"Ĭ":{"ha":317,"x_min":-9,"x_max":337,"o":"m 78 0 l 78 994 l 242 994 l 242 0 l 78 0 m 261 1259 l 337 1259 q 283 1113 331 1164 q 164 1061 235 1061 q 45 1113 93 1061 q -9 1259 -3 1164 l 66 1259 q 164 1161 75 1161 q 261 1259 253 1161 z "},"ĭ":{"ha":317,"x_min":-16,"x_max":330,"o":"m 82 0 l 82 720 l 239 720 l 239 0 l 82 0 m 254 1011 l 330 1011 q 276 865 324 916 q 157 814 229 814 q 38 865 86 814 q -16 1011 -9 916 l 60 1011 q 157 913 68 913 q 254 1011 246 913 z "},"Į":{"ha":317,"x_min":64,"x_max":311,"o":"m 78 0 l 78 994 l 242 994 l 242 0 l 78 0 m 84 18 l 168 18 q 156 -80 156 -20 q 177 -161 156 -136 q 237 -187 198 -187 q 311 -172 271 -187 l 311 -263 q 202 -292 256 -292 q 102 -251 140 -292 q 64 -134 64 -210 q 84 18 64 -75 z "},"į":{"ha":317,"x_min":71,"x_max":319,"o":"m 82 818 l 82 994 l 239 994 l 239 818 l 82 818 m 82 0 l 82 720 l 239 720 l 239 0 l 82 0 m 92 18 l 175 18 q 163 -80 163 -20 q 184 -161 163 -136 q 244 -187 205 -187 q 319 -172 278 -187 l 319 -263 q 210 -292 263 -292 q 110 -251 148 -292 q 71 -134 71 -210 q 92 18 71 -75 z "},"Ĵ":{"ha":633,"x_min":20,"x_max":637,"o":"m 377 994 l 542 994 l 542 365 q 511 138 542 212 q 420 23 481 63 q 271 -17 359 -17 q 87 64 153 -17 q 20 307 20 144 l 175 329 q 197 205 178 241 q 277 155 224 155 q 353 191 328 155 q 377 352 377 227 l 377 994 m 260 1061 l 377 1261 l 522 1261 l 637 1061 l 511 1061 l 447 1162 l 387 1061 l 260 1061 z "},"ĵ":{"ha":317,"x_min":-52,"x_max":356,"o":"m 235 720 l 235 22 q 219 -179 235 -125 q 161 -263 203 -233 q 57 -292 119 -292 q -52 -272 10 -292 l -24 -109 q 14 -115 -2 -115 q 71 -83 55 -115 q 79 33 79 -65 l 79 720 l 235 720 m 106 811 l -20 811 l 96 1011 l 241 1011 l 356 811 l 231 811 l 165 913 l 106 811 z "},"Ķ":{"ha":822,"x_min":85,"x_max":820,"o":"m 85 0 l 85 994 l 249 994 l 249 553 l 582 994 l 804 994 l 496 607 l 820 0 l 607 0 l 382 467 l 249 300 l 249 0 l 85 0 m 254 -273 l 254 -193 q 359 -201 311 -201 q 428 -183 405 -201 q 451 -137 451 -165 q 432 -96 451 -112 q 380 -80 414 -80 q 307 -94 345 -80 l 321 -26 q 416 -8 365 -8 q 518 -44 480 -8 q 557 -136 557 -79 q 506 -243 557 -201 q 362 -284 455 -284 q 254 -273 290 -284 z "},"ķ":{"ha":633,"x_min":77,"x_max":623,"o":"m 77 0 l 77 994 l 233 994 l 233 467 l 416 720 l 608 720 l 406 457 l 623 0 l 454 0 l 305 323 l 233 231 l 233 0 l 77 0 m 159 -273 l 159 -193 q 264 -201 216 -201 q 334 -183 311 -201 q 357 -137 357 -165 q 338 -96 357 -112 q 286 -80 319 -80 q 213 -94 250 -80 l 227 -26 q 322 -8 271 -8 q 424 -44 386 -8 q 463 -136 463 -79 q 412 -243 463 -201 q 268 -284 361 -284 q 159 -273 196 -284 z "},"ĸ":{"ha":635,"x_min":79,"x_max":627,"o":"m 79 0 l 79 720 l 236 720 l 236 471 l 418 720 l 608 720 l 371 415 l 627 0 l 444 0 l 271 288 l 236 241 l 236 0 l 79 0 z "},"Ļ":{"ha":696,"x_min":87,"x_max":661,"o":"m 87 0 l 87 986 l 252 986 l 252 168 l 661 168 l 661 0 l 87 0 m 214 -273 l 214 -193 q 319 -201 271 -201 q 389 -183 366 -201 q 412 -137 412 -165 q 393 -96 412 -112 q 340 -80 374 -80 q 268 -94 305 -80 l 282 -26 q 377 -8 326 -8 q 479 -44 441 -8 q 517 -136 517 -79 q 467 -243 517 -201 q 323 -284 416 -284 q 214 -273 251 -284 z "},"ļ":{"ha":317,"x_min":-1,"x_max":302,"o":"m 82 0 l 82 994 l 239 994 l 239 0 l 82 0 m -1 -273 l -1 -193 q 104 -201 56 -201 q 174 -183 151 -201 q 197 -137 197 -165 q 178 -96 197 -112 q 125 -80 159 -80 q 53 -94 90 -80 l 67 -26 q 162 -8 111 -8 q 264 -44 226 -8 q 302 -136 302 -79 q 252 -243 302 -201 q 108 -284 201 -284 q -1 -273 36 -284 z "},"Ņ":{"ha":822,"x_min":85,"x_max":732,"o":"m 85 0 l 85 994 l 245 994 l 578 330 l 578 994 l 732 994 l 732 0 l 566 0 l 238 648 l 238 0 l 85 0 m 239 -273 l 239 -193 q 345 -201 296 -201 q 414 -183 391 -201 q 437 -137 437 -165 q 418 -96 437 -112 q 366 -80 399 -80 q 293 -94 330 -80 l 307 -26 q 402 -8 351 -8 q 504 -44 466 -8 q 543 -136 543 -79 q 492 -243 543 -201 q 348 -284 441 -284 q 239 -273 276 -284 z "},"ņ":{"ha":696,"x_min":81,"x_max":619,"o":"m 619 0 l 463 0 l 463 368 q 454 515 463 478 q 421 571 445 551 q 366 591 397 591 q 295 565 327 591 q 250 495 263 540 q 237 326 237 450 l 237 0 l 81 0 l 81 720 l 226 720 l 226 614 q 313 706 264 675 q 420 736 361 736 q 536 701 489 736 q 601 609 583 665 q 619 448 619 553 l 619 0 m 182 -273 l 182 -193 q 287 -201 239 -201 q 356 -183 333 -201 q 379 -137 379 -165 q 360 -96 379 -112 q 308 -80 342 -80 q 235 -94 273 -80 l 250 -26 q 345 -8 293 -8 q 447 -44 408 -8 q 485 -136 485 -79 q 434 -243 485 -201 q 290 -284 383 -284 q 182 -273 218 -284 z "},"Ŋ":{"ha":823,"x_min":86,"x_max":770,"o":"m 86 994 l 250 994 l 250 852 q 515 1011 365 1011 q 702 896 634 1011 q 770 490 770 781 q 709 76 770 170 q 534 -18 648 -18 q 374 29 443 -18 l 422 178 q 511 151 473 151 q 576 206 555 151 q 597 453 597 260 q 555 769 597 704 q 440 835 513 835 q 336 796 382 835 q 270 708 290 758 q 250 543 250 658 l 250 0 l 86 0 l 86 994 z "},"ŋ":{"ha":696,"x_min":79,"x_max":616,"o":"m 330 -272 l 358 -104 q 407 -115 389 -115 q 445 -94 431 -115 q 460 4 459 -73 l 461 368 q 439 548 461 504 q 364 591 416 591 q 285 559 318 591 q 244 482 252 526 q 236 326 236 438 l 236 0 l 79 0 l 79 721 l 225 721 l 225 614 q 421 736 300 736 q 556 682 496 736 q 616 447 616 627 l 616 36 q 603 -177 616 -123 q 545 -263 589 -230 q 432 -296 500 -296 q 330 -272 389 -296 z "},"Ō":{"ha":886,"x_min":50,"x_max":841,"o":"m 50 491 q 103 784 50 669 q 240 955 155 899 q 446 1011 325 1011 q 731 878 621 1011 q 841 497 841 744 q 724 107 841 248 q 446 -17 622 -17 q 167 106 269 -17 q 50 491 50 246 m 220 498 q 285 240 220 326 q 446 155 350 155 q 607 240 543 155 q 671 501 671 325 q 609 757 671 674 q 446 840 547 840 q 283 756 346 840 q 220 498 220 673 m 264 1100 l 264 1225 l 622 1225 l 622 1100 l 264 1100 z "},"ō":{"ha":696,"x_min":45,"x_max":655,"o":"m 45 370 q 87 563 45 476 q 197 693 130 650 q 350 736 265 736 q 574 625 492 736 q 655 364 655 513 q 613 163 655 253 q 502 29 570 74 q 351 -16 433 -16 q 132 84 219 -16 q 45 370 45 184 m 205 360 q 248 195 205 251 q 351 139 291 139 q 452 195 410 139 q 494 361 494 252 q 452 525 494 469 q 349 581 409 581 q 248 525 290 581 q 205 360 205 469 m 170 847 l 170 972 l 528 972 l 528 847 l 170 847 z "},"Ŏ":{"ha":886,"x_min":50,"x_max":841,"o":"m 50 491 q 103 784 50 669 q 240 955 155 899 q 446 1011 325 1011 q 731 878 621 1011 q 841 497 841 744 q 724 107 841 248 q 446 -17 622 -17 q 167 106 269 -17 q 50 491 50 246 m 220 498 q 285 240 220 326 q 446 155 350 155 q 607 240 543 155 q 671 501 671 325 q 609 757 671 674 q 446 840 547 840 q 283 756 346 840 q 220 498 220 673 m 539 1297 l 615 1297 q 561 1151 609 1202 q 442 1099 513 1099 q 323 1151 371 1099 q 269 1297 275 1202 l 345 1297 q 442 1199 353 1199 q 539 1297 531 1199 z "},"ŏ":{"ha":696,"x_min":45,"x_max":655,"o":"m 45 370 q 87 563 45 476 q 197 693 130 650 q 350 736 265 736 q 574 625 492 736 q 655 364 655 513 q 613 163 655 253 q 502 29 570 74 q 351 -16 433 -16 q 132 84 219 -16 q 45 370 45 184 m 205 360 q 248 195 205 251 q 351 139 291 139 q 452 195 410 139 q 494 361 494 252 q 452 525 494 469 q 349 581 409 581 q 248 525 290 581 q 205 360 205 469 m 456 1006 l 532 1006 q 478 860 526 911 q 359 808 431 808 q 240 860 288 808 q 186 1006 193 911 l 262 1006 q 359 908 271 908 q 456 1006 448 908 z "},"Ŗ":{"ha":822,"x_min":83,"x_max":816,"o":"m 83 0 l 83 994 l 430 994 q 620 967 563 994 q 713 874 677 941 q 750 716 750 808 q 694 528 750 600 q 535 439 638 457 q 623 356 588 401 q 717 194 657 311 l 816 0 l 620 0 l 500 216 q 413 363 436 334 q 364 404 390 393 q 281 415 338 415 l 248 415 l 248 0 l 83 0 m 248 574 l 370 574 q 512 584 481 574 q 562 623 543 593 q 581 703 581 653 q 562 779 581 750 q 510 819 543 808 q 376 826 487 826 l 248 826 l 248 574 m 263 -273 l 263 -193 q 368 -201 320 -201 q 437 -183 414 -201 q 460 -137 460 -165 q 442 -96 460 -112 q 389 -80 423 -80 q 317 -94 354 -80 l 331 -26 q 426 -8 374 -8 q 528 -44 490 -8 q 566 -136 566 -79 q 515 -243 566 -201 q 372 -284 465 -284 q 263 -273 300 -284 z "},"ŗ":{"ha":443,"x_min":75,"x_max":458,"o":"m 232 0 l 75 0 l 75 720 l 220 720 l 220 618 q 287 713 258 690 q 355 736 317 736 q 458 701 409 736 l 409 534 q 336 566 370 566 q 278 542 303 566 q 243 454 254 517 q 232 222 232 391 l 232 0 m 77 -273 l 77 -193 q 182 -201 134 -201 q 252 -183 229 -201 q 275 -137 275 -165 q 256 -96 275 -112 q 203 -80 237 -80 q 131 -94 168 -80 l 145 -26 q 240 -8 189 -8 q 342 -44 304 -8 q 380 -136 380 -79 q 330 -243 380 -201 q 186 -284 279 -284 q 77 -273 114 -284 z "},"Ŝ":{"ha":760,"x_min":41,"x_max":704,"o":"m 41 323 l 202 342 q 380 152 229 152 q 497 191 454 152 q 540 288 540 230 q 525 345 540 321 q 479 384 510 369 q 332 435 449 399 q 178 505 227 467 q 100 603 129 542 q 71 733 71 663 q 108 880 71 814 q 210 978 145 945 q 371 1011 275 1011 q 595 933 515 1011 q 681 710 676 855 l 516 701 q 469 813 505 781 q 367 845 433 845 q 264 817 300 845 q 229 748 229 789 q 261 680 229 707 q 411 618 294 652 q 590 543 535 583 q 675 440 646 503 q 704 288 704 378 q 624 71 704 159 q 375 -18 545 -18 q 41 323 75 -18 m 184 1061 l 301 1261 l 446 1261 l 561 1061 l 435 1061 l 371 1162 l 311 1061 l 184 1061 z "},"ŝ":{"ha":633,"x_min":27,"x_max":579,"o":"m 27 205 l 184 235 q 310 121 204 121 q 394 143 366 121 q 422 199 422 165 q 410 237 422 223 q 359 260 397 250 q 114 357 166 311 q 49 515 49 415 q 113 676 49 616 q 298 736 176 736 q 474 691 414 736 q 559 546 534 646 l 412 513 q 300 600 392 600 q 218 583 243 600 q 194 540 194 566 q 216 500 194 516 q 355 452 239 484 q 533 363 486 415 q 579 224 579 311 q 508 52 579 119 q 310 -16 436 -16 q 123 40 195 -16 q 27 205 50 97 m 115 811 l 231 1011 l 376 1011 l 491 811 l 366 811 l 301 912 l 241 811 l 115 811 z "},"Ŧ":{"ha":696,"x_min":24,"x_max":672,"o":"m 267 375 l 92 375 l 92 501 l 267 501 l 267 827 l 24 827 l 24 994 l 672 994 l 672 827 l 431 827 l 431 501 l 606 501 l 606 375 l 431 375 l 431 0 l 267 0 l 267 375 z "},"ŧ":{"ha":379,"x_min":3,"x_max":357,"o":"m 237 411 l 336 411 l 336 293 l 237 293 l 237 277 q 246 162 237 182 q 282 142 254 142 q 345 160 304 142 l 357 12 q 235 -17 303 -17 q 136 14 171 -17 q 91 90 100 45 q 82 254 82 136 l 82 293 l 3 293 l 3 411 l 82 411 l 82 568 l 9 568 l 9 721 l 82 721 l 82 864 l 237 975 l 237 721 l 345 721 l 345 568 l 237 568 l 237 411 z "},"Ũ":{"ha":822,"x_min":81,"x_max":732,"o":"m 81 994 l 245 994 l 245 456 q 252 292 245 330 q 303 191 262 227 q 412 155 345 155 q 505 180 469 155 q 554 251 541 205 q 567 444 567 296 l 567 994 l 732 994 l 732 472 q 710 183 732 272 q 614 38 689 94 q 416 -17 539 -17 q 217 29 289 -17 q 114 158 146 75 q 81 464 81 241 l 81 994 m 281 1062 l 211 1062 l 210 1084 q 239 1197 210 1159 q 312 1234 268 1234 q 348 1229 331 1234 q 403 1203 365 1223 q 477 1176 453 1176 q 523 1235 516 1176 l 595 1235 q 567 1104 594 1143 q 496 1065 539 1065 q 460 1069 477 1065 q 400 1095 447 1073 q 320 1121 344 1121 q 293 1108 303 1121 q 281 1062 282 1095 z "},"ũ":{"ha":696,"x_min":78,"x_max":615,"o":"m 470 0 l 470 108 q 385 17 437 50 q 274 -16 332 -16 q 170 14 216 -16 q 101 101 123 45 q 78 264 78 157 l 78 720 l 235 720 l 235 389 q 242 209 235 248 q 273 150 249 171 q 332 129 298 129 q 405 156 372 129 q 449 227 438 184 q 459 416 459 270 l 459 720 l 615 720 l 615 0 l 470 0 m 227 817 l 157 817 l 156 840 q 185 952 156 914 q 258 989 214 989 q 294 984 277 989 q 349 958 311 979 q 423 931 399 931 q 469 990 462 931 l 541 990 q 512 859 540 898 q 441 820 485 820 q 406 825 423 820 q 346 850 393 828 q 266 876 290 876 q 238 863 249 876 q 227 817 228 850 z "},"Ū":{"ha":822,"x_min":81,"x_max":732,"o":"m 81 994 l 245 994 l 245 456 q 252 292 245 330 q 303 191 262 227 q 412 155 345 155 q 505 180 469 155 q 554 251 541 205 q 567 444 567 296 l 567 994 l 732 994 l 732 472 q 710 183 732 272 q 614 38 689 94 q 416 -17 539 -17 q 217 29 289 -17 q 114 158 146 75 q 81 464 81 241 l 81 994 m 227 1100 l 227 1225 l 585 1225 l 585 1100 l 227 1100 z "},"ū":{"ha":696,"x_min":78,"x_max":615,"o":"m 470 0 l 470 108 q 385 17 437 50 q 274 -16 332 -16 q 170 14 216 -16 q 101 101 123 45 q 78 264 78 157 l 78 720 l 235 720 l 235 389 q 242 209 235 248 q 273 150 249 171 q 332 129 298 129 q 405 156 372 129 q 449 227 438 184 q 459 416 459 270 l 459 720 l 615 720 l 615 0 l 470 0 m 170 847 l 170 972 l 528 972 l 528 847 l 170 847 z "},"Ŭ":{"ha":822,"x_min":81,"x_max":732,"o":"m 81 994 l 245 994 l 245 456 q 252 292 245 330 q 303 191 262 227 q 412 155 345 155 q 505 180 469 155 q 554 251 541 205 q 567 444 567 296 l 567 994 l 732 994 l 732 472 q 710 183 732 272 q 614 38 689 94 q 416 -17 539 -17 q 217 29 289 -17 q 114 158 146 75 q 81 464 81 241 l 81 994 m 506 1259 l 582 1259 q 528 1113 576 1164 q 409 1061 480 1061 q 290 1113 338 1061 q 235 1259 242 1164 l 311 1259 q 409 1161 320 1161 q 506 1259 498 1161 z "},"ŭ":{"ha":696,"x_min":78,"x_max":615,"o":"m 470 0 l 470 108 q 385 17 437 50 q 274 -16 332 -16 q 170 14 216 -16 q 101 101 123 45 q 78 264 78 157 l 78 720 l 235 720 l 235 389 q 242 209 235 248 q 273 150 249 171 q 332 129 298 129 q 405 156 372 129 q 449 227 438 184 q 459 416 459 270 l 459 720 l 615 720 l 615 0 l 470 0 m 450 1011 l 526 1011 q 472 865 519 916 q 353 814 424 814 q 234 865 281 814 q 179 1011 186 916 l 255 1011 q 353 913 264 913 q 450 1011 441 913 z "},"Ų":{"ha":822,"x_min":81,"x_max":732,"o":"m 81 994 l 245 994 l 245 456 q 252 292 245 330 q 303 191 262 227 q 412 155 345 155 q 505 180 469 155 q 554 251 541 205 q 567 444 567 296 l 567 994 l 732 994 l 732 472 q 710 183 732 272 q 614 38 689 94 q 416 -17 539 -17 q 217 29 289 -17 q 114 158 146 75 q 81 464 81 241 l 81 994 m 369 18 l 452 18 q 441 -80 441 -20 q 462 -161 441 -136 q 522 -187 483 -187 q 596 -172 555 -187 l 596 -263 q 487 -292 541 -292 q 387 -251 425 -292 q 349 -134 349 -210 q 369 18 349 -75 z "},"ų":{"ha":696,"x_min":78,"x_max":705,"o":"m 470 0 l 470 108 q 385 17 437 50 q 274 -16 332 -16 q 170 14 216 -16 q 101 101 123 45 q 78 264 78 157 l 78 720 l 235 720 l 235 389 q 242 209 235 248 q 273 150 249 171 q 332 129 298 129 q 405 156 372 129 q 449 227 438 184 q 459 416 459 270 l 459 720 l 615 720 l 615 0 l 470 0 m 478 18 l 562 18 q 550 -80 550 -20 q 571 -161 550 -136 q 631 -187 592 -187 q 705 -172 665 -187 l 705 -263 q 596 -292 650 -292 q 496 -251 534 -292 q 458 -134 458 -210 q 478 18 458 -75 z "},"Ŵ":{"ha":1075,"x_min":3,"x_max":1074,"o":"m 198 0 l 3 994 l 172 994 l 294 311 l 444 994 l 640 994 l 783 300 l 908 994 l 1074 994 l 876 0 l 701 0 l 538 743 l 376 0 l 198 0 m 353 1061 l 470 1261 l 614 1261 l 730 1061 l 604 1061 l 540 1162 l 480 1061 l 353 1061 z "},"ŵ":{"ha":886,"x_min":5,"x_max":886,"o":"m 193 0 l 5 720 l 157 720 l 268 248 l 370 720 l 520 720 l 618 248 l 732 720 l 886 720 l 696 0 l 546 0 l 444 463 l 344 0 l 193 0 m 258 808 l 374 1008 l 519 1008 l 634 808 l 509 808 l 444 909 l 385 808 l 258 808 z "},"Ŷ":{"ha":760,"x_min":-1,"x_max":761,"o":"m 297 0 l 297 418 l -1 994 l 191 994 l 383 601 l 572 994 l 761 994 l 461 417 l 461 0 l 297 0 m 195 1061 l 312 1261 l 456 1261 l 572 1061 l 446 1061 l 382 1162 l 322 1061 l 195 1061 z "},"ŷ":{"ha":633,"x_min":7,"x_max":614,"o":"m 7 720 l 174 720 l 315 209 l 453 720 l 614 720 l 406 27 l 366 -108 q 314 -219 340 -184 q 247 -273 288 -254 q 148 -292 207 -292 q 59 -281 102 -292 l 45 -132 q 111 -140 82 -140 q 185 -111 156 -140 q 232 -2 214 -81 l 7 720 m 127 808 l 243 1008 l 388 1008 l 503 808 l 378 808 l 313 909 l 254 808 l 127 808 z "},"ſ":{"ha":317,"x_min":79,"x_max":391,"o":"m 391 987 l 370 854 q 297 865 332 865 q 249 845 264 865 q 235 771 235 825 l 235 0 l 79 0 l 79 774 q 94 908 79 861 q 153 983 109 955 q 259 1011 197 1011 q 391 987 328 1011 z "},"Ǻ":{"ha":848,"x_min":0,"x_max":818,"o":"m 818 0 l 639 0 l 568 226 l 242 226 l 175 0 l 0 0 l 317 994 l 492 994 l 818 0 m 515 393 l 403 762 l 292 393 l 515 393 m 519 1162 q 486 1067 519 1105 q 410 1029 453 1029 q 333 1067 366 1029 q 300 1162 300 1105 q 333 1258 300 1220 q 410 1295 366 1295 q 486 1258 453 1295 q 519 1162 519 1220 m 459 1162 q 444 1206 459 1189 q 410 1223 429 1223 q 375 1206 390 1223 q 360 1162 360 1189 q 375 1119 360 1137 q 410 1102 390 1102 q 444 1119 429 1102 q 459 1162 459 1137 m 332 1337 l 408 1540 l 584 1540 l 431 1337 l 332 1337 z "},"ǻ":{"ha":694,"x_min":41,"x_max":595,"o":"m 199 500 l 57 532 q 142 689 83 641 q 313 736 201 736 q 464 709 412 736 q 538 633 516 681 q 561 459 561 585 l 559 237 q 567 97 559 143 q 595 0 574 52 l 440 0 l 420 79 q 334 7 380 31 q 237 -16 288 -16 q 96 42 151 -16 q 41 196 41 100 q 63 302 41 257 q 126 375 85 348 q 256 423 167 402 q 408 470 365 448 q 399 548 408 530 q 368 579 391 567 q 304 591 345 591 q 238 572 262 591 q 199 500 214 553 m 408 346 q 315 317 378 334 q 220 275 242 298 q 197 216 197 252 q 222 146 197 174 q 284 118 247 118 q 350 141 317 118 q 395 195 382 163 q 408 308 408 226 l 408 346 m 427 910 q 394 815 427 853 q 318 777 361 777 q 242 815 275 777 q 209 910 209 853 q 241 1005 209 968 q 318 1043 274 1043 q 394 1005 361 1043 q 427 910 427 968 m 368 910 q 353 954 368 937 q 318 970 338 970 q 283 954 298 970 q 269 910 269 937 q 283 867 269 884 q 318 850 298 850 q 353 867 338 850 q 368 910 368 884 m 253 1099 l 330 1301 l 505 1301 l 352 1099 l 253 1099 z "},"Ǽ":{"ha":1139,"x_min":-47,"x_max":1084,"o":"m -47 0 l 333 994 l 1069 994 l 1069 826 l 665 826 l 665 605 l 1038 605 l 1038 437 l 665 437 l 665 168 l 1084 168 l 1084 0 l 501 0 l 501 234 l 218 234 l 135 0 l -47 0 m 279 408 l 503 408 l 503 844 l 439 844 l 279 408 m 568 1061 l 644 1264 l 820 1264 l 667 1061 l 568 1061 z "},"ǽ":{"ha":1013,"x_min":49,"x_max":959,"o":"m 798 230 l 951 197 q 691 -16 888 -16 q 479 83 565 -16 q 375 11 438 39 q 250 -16 313 -16 q 104 42 159 -16 q 49 195 49 100 q 83 323 49 268 q 161 391 109 366 q 319 438 194 407 q 412 468 373 452 q 403 544 412 523 q 372 578 394 565 q 315 591 349 591 q 246 570 273 591 q 207 500 219 549 l 66 534 q 155 690 94 643 q 335 736 216 736 q 515 670 452 736 q 677 736 584 736 q 825 692 762 736 q 923 557 888 648 q 959 304 959 467 l 566 304 q 689 129 583 129 q 798 230 770 129 m 805 423 q 786 523 801 490 q 744 573 770 555 q 684 591 717 591 q 596 538 627 591 q 568 423 566 486 l 805 423 m 411 345 q 263 294 273 299 q 219 261 233 281 q 205 213 205 240 q 230 145 205 172 q 292 118 255 118 q 359 142 328 118 q 401 199 391 165 q 411 345 411 233 m 406 808 l 483 1011 l 659 1011 l 505 808 l 406 808 z "},"Ǿ":{"ha":886,"x_min":35,"x_max":854,"o":"m 689 922 l 777 1042 l 854 959 l 762 831 q 840 490 840 701 q 747 140 840 281 q 449 -17 645 -17 q 204 68 298 -17 l 115 -56 l 35 28 l 130 159 q 72 300 89 228 q 49 505 49 395 q 168 888 49 746 q 444 1011 269 1011 q 689 922 591 1011 m 587 782 q 445 840 531 840 q 282 756 345 840 q 219 498 219 673 q 244 314 219 389 l 587 782 m 648 675 l 306 207 q 444 146 362 146 q 606 232 542 146 q 670 497 670 319 q 648 675 670 600 m 347 1061 l 424 1264 l 600 1264 l 446 1061 l 347 1061 z "},"ǿ":{"ha":696,"x_min":49,"x_max":659,"o":"m 527 677 l 585 759 l 647 696 l 587 612 q 638 500 618 568 q 659 361 659 433 q 616 163 659 251 q 504 29 574 75 q 352 -16 434 -16 q 181 41 257 -16 l 117 -50 l 56 15 l 120 106 q 49 366 49 212 q 90 561 49 474 q 200 692 132 648 q 353 736 269 736 q 527 677 453 736 m 439 554 q 354 591 401 591 q 248 532 293 591 q 203 366 203 474 q 220 245 203 298 l 439 554 m 486 471 l 269 164 q 352 132 306 132 q 459 189 415 132 q 503 355 503 247 q 486 471 503 415 m 274 808 l 351 1011 l 526 1011 l 373 808 l 274 808 z "},"·":{"ha":379,"x_min":111,"x_max":268,"o":"m 111 530 l 111 720 l 268 720 l 268 530 l 111 530 z "},"Ẁ":{"ha":1075,"x_min":3,"x_max":1074,"o":"m 198 0 l 3 994 l 172 994 l 294 311 l 444 994 l 640 994 l 783 300 l 908 994 l 1074 994 l 876 0 l 701 0 l 538 743 l 376 0 l 198 0 m 648 1061 l 549 1061 l 396 1264 l 571 1264 l 648 1061 z "},"ẁ":{"ha":886,"x_min":5,"x_max":886,"o":"m 193 0 l 5 720 l 157 720 l 268 248 l 370 720 l 520 720 l 618 248 l 732 720 l 886 720 l 696 0 l 546 0 l 444 463 l 344 0 l 193 0 m 533 808 l 434 808 l 281 1011 l 456 1011 l 533 808 z "},"Ẃ":{"ha":1075,"x_min":3,"x_max":1074,"o":"m 198 0 l 3 994 l 172 994 l 294 311 l 444 994 l 640 994 l 783 300 l 908 994 l 1074 994 l 876 0 l 701 0 l 538 743 l 376 0 l 198 0 m 464 1061 l 541 1264 l 716 1264 l 563 1061 l 464 1061 z "},"ẃ":{"ha":886,"x_min":5,"x_max":886,"o":"m 193 0 l 5 720 l 157 720 l 268 248 l 370 720 l 520 720 l 618 248 l 732 720 l 886 720 l 696 0 l 546 0 l 444 463 l 344 0 l 193 0 m 353 808 l 429 1011 l 605 1011 l 452 808 l 353 808 z "},"Ẅ":{"ha":1075,"x_min":3,"x_max":1074,"o":"m 198 0 l 3 994 l 172 994 l 294 311 l 444 994 l 640 994 l 783 300 l 908 994 l 1074 994 l 876 0 l 701 0 l 538 743 l 376 0 l 198 0 m 350 1101 l 350 1264 l 484 1264 l 484 1101 l 350 1101 m 589 1101 l 589 1264 l 724 1264 l 724 1101 l 589 1101 z "},"ẅ":{"ha":886,"x_min":5,"x_max":886,"o":"m 193 0 l 5 720 l 157 720 l 268 248 l 370 720 l 520 720 l 618 248 l 732 720 l 886 720 l 696 0 l 546 0 l 444 463 l 344 0 l 193 0 m 254 848 l 254 1011 l 388 1011 l 388 848 l 254 848 m 493 848 l 493 1011 l 627 1011 l 627 848 l 493 848 z "},"Ỳ":{"ha":760,"x_min":-1,"x_max":761,"o":"m 297 0 l 297 418 l -1 994 l 191 994 l 383 601 l 572 994 l 761 994 l 461 417 l 461 0 l 297 0 m 480 1061 l 381 1061 l 228 1264 l 403 1264 l 480 1061 z "},"ỳ":{"ha":633,"x_min":7,"x_max":614,"o":"m 7 720 l 174 720 l 315 209 l 453 720 l 614 720 l 406 27 l 366 -108 q 314 -219 340 -184 q 247 -273 288 -254 q 148 -292 207 -292 q 59 -281 102 -292 l 45 -132 q 111 -140 82 -140 q 185 -111 156 -140 q 232 -2 214 -81 l 7 720 m 415 808 l 316 808 l 163 1011 l 338 1011 l 415 808 z "},"‛":{"ha":317,"x_min":77,"x_max":245,"o":"m 233 994 l 233 804 l 157 804 q 179 712 159 745 q 245 661 199 680 l 215 581 q 104 685 137 616 q 77 857 77 742 l 77 994 l 233 994 z "},"‾":{"ha":379,"x_min":-3,"x_max":382,"o":"m -3 839 l -3 964 l 382 964 l 382 839 l -3 839 z "},"₤":{"ha":633,"x_min":7,"x_max":616,"o":"m 556 193 l 616 32 q 463 -16 546 -16 q 331 13 412 -16 q 205 42 245 42 q 67 -17 138 42 l 7 147 q 95 259 66 198 q 120 332 120 318 l 7 332 l 7 471 l 117 471 l 104 517 l 7 517 l 7 656 l 87 656 q 72 734 72 690 q 146 933 72 855 q 331 1011 220 1011 q 502 947 435 1011 q 585 750 569 882 l 435 723 q 327 859 415 859 q 254 824 284 859 q 223 732 223 789 q 240 656 223 690 l 425 656 l 425 517 l 271 517 l 281 471 l 425 471 l 425 332 l 277 332 l 261 292 q 193 173 245 247 q 270 192 224 192 q 308 189 290 192 l 381 167 q 442 155 418 155 q 556 193 485 155 z "},"℮":{"ha":833,"x_min":61,"x_max":779,"o":"m 218 360 l 218 109 q 420 26 299 26 q 688 193 592 26 l 736 164 q 580 14 657 50 q 420 -23 503 -23 q 162 84 262 -23 q 61 360 61 192 q 162 636 61 529 q 420 743 262 743 q 668 647 565 743 q 779 360 771 550 l 218 360 m 622 410 l 622 612 q 418 694 538 694 q 218 611 300 694 l 218 410 l 622 410 z "},"⅛":{"ha":950,"x_min":51,"x_max":910,"o":"m 275 493 l 170 493 l 170 841 q 51 774 118 798 l 51 880 q 137 930 100 896 q 190 1006 175 964 l 275 1006 l 275 493 m 264 -37 l 175 -37 l 659 1006 l 747 1006 l 264 -37 m 648 247 q 592 351 592 279 q 631 447 592 408 q 742 486 670 486 q 851 449 806 486 q 895 348 895 413 q 841 247 895 284 q 910 125 910 214 q 866 10 910 56 q 748 -37 823 -37 q 627 7 673 -37 q 580 121 580 50 q 648 247 580 205 m 743 391 q 692 340 692 391 q 743 292 692 292 q 795 342 795 292 q 743 391 795 391 m 745 197 q 700 178 716 197 q 684 128 684 159 q 701 78 684 98 q 745 58 719 58 q 788 76 770 58 q 805 128 805 94 q 745 197 805 197 z "},"⅜":{"ha":950,"x_min":22,"x_max":910,"o":"m 22 642 l 124 655 q 187 582 132 582 q 231 602 214 582 q 248 655 248 622 q 231 704 248 686 q 190 722 215 722 q 140 712 174 722 l 153 811 q 210 825 191 810 q 228 865 228 840 q 216 898 228 886 q 182 909 203 909 q 127 843 134 909 l 28 861 q 73 964 43 933 q 184 1006 115 1006 q 292 966 250 1006 q 334 868 334 926 q 321 815 334 840 q 280 770 307 791 q 337 724 318 754 q 355 650 355 694 q 307 533 355 581 q 186 485 258 485 q 74 526 119 485 q 22 642 30 567 m 277 -37 l 189 -37 l 672 1006 l 760 1006 l 277 -37 m 648 247 q 592 351 592 279 q 631 447 592 408 q 742 486 670 486 q 851 449 806 486 q 895 348 895 413 q 841 247 895 284 q 910 125 910 214 q 866 10 910 56 q 748 -37 823 -37 q 627 7 673 -37 q 580 121 580 50 q 648 247 580 205 m 743 391 q 692 340 692 391 q 743 292 692 292 q 795 342 795 292 q 743 391 795 391 m 745 197 q 700 178 716 197 q 684 128 684 159 q 701 78 684 98 q 745 58 719 58 q 788 76 770 58 q 805 128 805 94 q 745 197 805 197 z "},"⅝":{"ha":950,"x_min":25,"x_max":910,"o":"m 25 637 l 131 648 q 195 579 139 579 q 238 602 221 579 q 256 665 256 625 q 191 747 256 747 q 122 711 152 747 l 36 724 l 86 997 l 342 997 l 342 890 l 167 890 l 158 832 q 210 842 182 842 q 320 792 277 842 q 364 668 364 742 q 320 544 364 602 q 193 485 276 485 q 79 524 124 485 q 25 637 34 564 m 277 -37 l 189 -37 l 672 1006 l 760 1006 l 277 -37 m 648 247 q 592 351 592 279 q 631 447 592 408 q 742 486 670 486 q 851 449 806 486 q 895 348 895 413 q 841 247 895 284 q 910 125 910 214 q 866 10 910 56 q 748 -37 823 -37 q 627 7 673 -37 q 580 121 580 50 q 648 247 580 205 m 743 391 q 692 340 692 391 q 743 292 692 292 q 795 342 795 292 q 743 391 795 391 m 745 197 q 700 178 716 197 q 684 128 684 159 q 701 78 684 98 q 745 58 719 58 q 788 76 770 58 q 805 128 805 94 q 745 197 805 197 z "},"⅞":{"ha":950,"x_min":47,"x_max":910,"o":"m 47 892 l 47 997 l 374 997 l 374 916 q 260 725 306 845 q 214 509 214 606 l 214 493 l 111 493 q 247 892 114 703 l 47 892 m 264 -37 l 175 -37 l 659 1006 l 747 1006 l 264 -37 m 648 247 q 592 351 592 279 q 631 447 592 408 q 742 486 670 486 q 851 449 806 486 q 895 348 895 413 q 841 247 895 284 q 910 125 910 214 q 866 10 910 56 q 748 -37 823 -37 q 627 7 673 -37 q 580 121 580 50 q 648 247 580 205 m 743 391 q 692 340 692 391 q 743 292 692 292 q 795 342 795 292 q 743 391 795 391 m 745 197 q 700 178 716 197 q 684 128 684 159 q 701 78 684 98 q 745 58 719 58 q 788 76 770 58 q 805 128 805 94 q 745 197 805 197 z "},"΄":{"ha":379,"x_min":104,"x_max":356,"o":"m 104 808 l 180 1011 l 356 1011 l 203 808 l 104 808 z "},"΅":{"ha":379,"x_min":-82,"x_max":461,"o":"m 89 810 l 147 1011 l 315 1011 l 189 810 l 89 810 m 461 810 l 326 810 l 326 972 l 461 972 l 461 810 m 53 810 l -82 810 l -82 972 l 53 972 l 53 810 z "},"Ά":{"ha":822,"x_min":0,"x_max":818,"o":"m 818 0 l 639 0 l 568 226 l 242 226 l 175 0 l 0 0 l 317 994 l 492 994 l 818 0 m 515 393 l 403 762 l 292 393 l 515 393 m 17 792 l 94 995 l 269 995 l 116 792 l 17 792 z "},"Έ":{"ha":972,"x_min":-7,"x_max":915,"o":"m 295 0 l 295 994 l 900 994 l 900 826 l 459 826 l 459 606 l 869 606 l 869 438 l 459 438 l 459 168 l 915 168 l 915 0 l 295 0 m -7 792 l 69 995 l 245 995 l 92 792 l -7 792 z "},"Ή":{"ha":1032,"x_min":-7,"x_max":947,"o":"m 295 0 l 295 994 l 459 994 l 459 603 l 782 603 l 782 994 l 947 994 l 947 0 l 782 0 l 782 435 l 459 435 l 459 0 l 295 0 m -7 792 l 69 995 l 245 995 l 92 792 l -7 792 z "},"Ί":{"ha":535,"x_min":-7,"x_max":462,"o":"m 298 0 l 298 994 l 462 994 l 462 0 l 298 0 m -7 792 l 69 995 l 245 995 l 92 792 l -7 792 z "},"Ό":{"ha":937,"x_min":-32,"x_max":890,"o":"m 99 491 q 152 784 99 669 q 289 955 204 899 q 494 1011 374 1011 q 780 878 669 1011 q 890 497 890 744 q 773 107 890 248 q 495 -17 671 -17 q 216 106 318 -17 q 99 491 99 246 m 269 498 q 334 240 269 326 q 495 155 399 155 q 656 240 592 155 q 720 501 720 325 q 657 757 720 674 q 495 840 595 840 q 332 756 395 840 q 269 498 269 673 m -32 792 l 45 995 l 220 995 l 67 792 l -32 792 z "},"Ύ":{"ha":1057,"x_min":-5,"x_max":1057,"o":"m 593 0 l 593 418 l 294 994 l 487 994 l 679 601 l 867 994 l 1057 994 l 757 417 l 757 0 l 593 0 m -5 792 l 72 995 l 248 995 l 94 792 l -5 792 z "},"Ώ":{"ha":954,"x_min":-35,"x_max":899,"o":"m 469 0 l 95 0 l 95 168 l 253 168 q 109 568 109 356 q 216 887 109 764 q 496 1011 323 1011 q 779 887 671 1011 q 886 568 886 763 q 741 168 886 355 l 899 168 l 899 0 l 526 0 l 526 160 q 717 519 717 254 q 656 751 717 663 q 496 840 595 840 q 338 752 398 840 q 278 519 278 663 q 469 160 278 254 l 469 0 m -35 792 l 42 995 l 218 995 l 64 792 l -35 792 z "},"ΐ":{"ha":317,"x_min":-126,"x_max":417,"o":"m 82 0 l 82 720 l 239 720 l 239 0 l 82 0 m 45 810 l 103 1011 l 271 1011 l 145 810 l 45 810 m 417 810 l 282 810 l 282 972 l 417 972 l 417 810 m 9 810 l -126 810 l -126 972 l 9 972 l 9 810 z "},"Α":{"ha":822,"x_min":0,"x_max":818,"o":"m 818 0 l 639 0 l 568 226 l 242 226 l 175 0 l 0 0 l 317 994 l 492 994 l 818 0 m 515 393 l 403 762 l 292 393 l 515 393 z "},"Β":{"ha":822,"x_min":83,"x_max":766,"o":"m 83 994 l 409 994 q 597 970 543 994 q 688 884 651 945 q 726 744 726 822 q 694 614 726 672 q 611 528 662 556 q 725 440 684 503 q 766 288 766 378 q 713 105 766 180 q 590 12 661 30 q 360 0 541 0 l 83 0 l 83 994 m 247 829 l 247 599 l 355 599 q 476 602 453 599 q 542 638 518 609 q 566 716 566 667 q 546 788 566 760 q 499 822 527 815 q 342 829 472 829 l 247 829 m 247 433 l 247 168 l 399 168 q 528 178 500 168 q 576 219 557 189 q 595 298 595 250 q 575 378 595 347 q 520 421 554 410 q 380 433 486 433 l 247 433 z "},"Δ":{"ha":818,"x_min":0,"x_max":818,"o":"m 492 994 l 818 0 l 0 0 l 317 994 l 492 994 m 225 168 l 586 168 l 403 762 l 225 168 z "},"Ε":{"ha":760,"x_min":83,"x_max":703,"o":"m 83 0 l 83 994 l 688 994 l 688 826 l 248 826 l 248 606 l 657 606 l 657 438 l 248 438 l 248 168 l 703 168 l 703 0 l 83 0 z "},"Ζ":{"ha":696,"x_min":12,"x_max":675,"o":"m 12 0 l 12 181 l 441 826 l 60 826 l 60 994 l 657 994 l 657 838 l 211 168 l 675 168 l 675 0 l 12 0 z "},"Η":{"ha":822,"x_min":83,"x_max":735,"o":"m 83 0 l 83 994 l 248 994 l 248 603 l 570 603 l 570 994 l 735 994 l 735 0 l 570 0 l 570 435 l 248 435 l 248 0 l 83 0 z "},"Ι":{"ha":317,"x_min":78,"x_max":242,"o":"m 78 0 l 78 994 l 242 994 l 242 0 l 78 0 z "},"Κ":{"ha":822,"x_min":85,"x_max":820,"o":"m 85 0 l 85 994 l 249 994 l 249 553 l 582 994 l 804 994 l 496 607 l 820 0 l 607 0 l 382 467 l 249 300 l 249 0 l 85 0 z "},"Λ":{"ha":760,"x_min":0,"x_max":760,"o":"m 292 994 l 468 994 l 760 0 l 581 0 l 375 736 l 175 0 l 0 0 l 292 994 z "},"Μ":{"ha":949,"x_min":81,"x_max":868,"o":"m 81 0 l 81 994 l 327 994 l 475 316 l 621 994 l 868 994 l 868 0 l 715 0 l 715 783 l 553 0 l 395 0 l 234 783 l 234 0 l 81 0 z "},"Ν":{"ha":822,"x_min":85,"x_max":732,"o":"m 85 0 l 85 994 l 245 994 l 578 330 l 578 994 l 732 994 l 732 0 l 566 0 l 238 648 l 238 0 l 85 0 z "},"Ξ":{"ha":733,"x_min":57,"x_max":676,"o":"m 72 827 l 72 994 l 661 994 l 661 827 l 72 827 m 103 440 l 103 608 l 631 608 l 631 440 l 103 440 m 57 0 l 57 168 l 676 168 l 676 0 l 57 0 z "},"Ο":{"ha":886,"x_min":50,"x_max":841,"o":"m 50 491 q 103 784 50 669 q 240 955 155 899 q 446 1011 325 1011 q 731 878 621 1011 q 841 497 841 744 q 724 107 841 248 q 446 -17 622 -17 q 167 106 269 -17 q 50 491 50 246 m 220 498 q 285 240 220 326 q 446 155 350 155 q 607 240 543 155 q 671 501 671 325 q 609 757 671 674 q 446 840 547 840 q 283 756 346 840 q 220 498 220 673 z "},"Π":{"ha":822,"x_min":85,"x_max":736,"o":"m 249 0 l 85 0 l 85 994 l 736 994 l 736 0 l 572 0 l 572 827 l 249 827 l 249 0 z "},"Ρ":{"ha":760,"x_min":83,"x_max":707,"o":"m 83 0 l 83 994 l 347 994 q 541 980 495 994 q 660 882 613 957 q 707 688 707 806 q 667 507 707 580 q 565 405 626 434 q 355 375 504 375 l 247 375 l 247 0 l 83 0 m 247 826 l 247 544 l 338 544 q 462 557 429 544 q 516 603 495 570 q 537 686 537 637 q 515 769 537 735 q 462 814 494 803 q 327 826 430 826 l 247 826 z "},"Σ":{"ha":684,"x_min":50,"x_max":642,"o":"m 60 815 l 60 994 l 625 994 l 625 827 l 264 827 l 475 519 l 241 168 l 642 168 l 642 0 l 50 0 l 50 186 l 268 519 l 60 815 z "},"Τ":{"ha":696,"x_min":24,"x_max":672,"o":"m 267 0 l 267 826 l 24 826 l 24 994 l 672 994 l 672 826 l 431 826 l 431 0 l 267 0 z "},"Υ":{"ha":760,"x_min":-1,"x_max":761,"o":"m 297 0 l 297 418 l -1 994 l 191 994 l 383 601 l 572 994 l 761 994 l 461 417 l 461 0 l 297 0 z "},"Χ":{"ha":760,"x_min":1,"x_max":759,"o":"m 1 0 l 279 519 l 26 994 l 219 994 l 382 675 l 543 994 l 733 994 l 480 511 l 759 0 l 560 0 l 379 344 l 198 0 l 1 0 z "},"Ψ":{"ha":921,"x_min":47,"x_max":873,"o":"m 47 713 l 47 994 l 211 994 l 211 743 q 250 521 211 583 q 379 460 288 460 l 379 994 l 543 994 l 543 460 q 672 520 633 459 q 710 743 710 582 l 710 994 l 873 994 l 873 713 q 793 394 873 492 q 543 290 713 295 l 543 0 l 379 0 l 379 290 q 128 394 208 296 q 47 713 47 493 z "},"Ω":{"ha":913,"x_min":54,"x_max":859,"o":"m 428 0 l 54 0 l 54 168 l 212 168 q 68 568 68 356 q 175 887 68 764 q 456 1011 282 1011 q 738 887 630 1011 q 846 568 846 763 q 700 168 846 355 l 859 168 l 859 0 l 485 0 l 485 160 q 676 519 676 254 q 615 751 676 663 q 456 840 554 840 q 297 752 357 840 q 237 519 237 663 q 428 160 237 254 l 428 0 z "},"Ϊ":{"ha":317,"x_min":-26,"x_max":347,"o":"m 78 0 l 78 994 l 242 994 l 242 0 l 78 0 m -26 1099 l -26 1263 l 108 1263 l 108 1099 l -26 1099 m 213 1099 l 213 1263 l 347 1263 l 347 1099 l 213 1099 z "},"Ϋ":{"ha":760,"x_min":-1,"x_max":761,"o":"m 297 0 l 297 418 l -1 994 l 191 994 l 383 601 l 572 994 l 761 994 l 461 417 l 461 0 l 297 0 m 199 1100 l 199 1263 l 333 1263 l 333 1100 l 199 1100 m 438 1100 l 438 1263 l 572 1263 l 572 1100 l 438 1100 z "},"ά":{"ha":700,"x_min":43,"x_max":663,"o":"m 496 119 q 300 -17 425 -17 q 115 95 187 -17 q 43 379 43 207 q 115 637 43 538 q 301 737 186 737 q 496 596 420 737 q 528 720 509 658 l 663 720 q 591 339 591 536 q 657 0 591 180 l 525 0 q 496 119 502 89 m 328 586 q 238 526 272 586 q 204 364 204 467 q 239 196 204 258 q 328 135 274 135 q 417 193 385 135 q 450 358 450 251 q 415 525 450 465 q 328 586 379 586 m 227 808 l 304 1011 l 479 1011 l 326 808 l 227 808 z "},"έ":{"ha":541,"x_min":43,"x_max":526,"o":"m 367 297 l 351 297 q 236 276 267 297 q 204 212 204 256 q 227 157 204 178 q 285 135 250 135 q 424 201 343 135 l 526 78 q 283 -17 395 -17 q 109 43 175 -17 q 43 196 43 102 q 149 374 43 319 q 66 530 66 429 q 125 682 66 626 q 288 737 184 737 q 503 664 418 737 l 410 543 q 301 582 350 582 q 220 518 220 582 q 367 444 220 442 l 367 297 m 214 808 l 290 1011 l 466 1011 l 313 808 l 214 808 z "},"ή":{"ha":696,"x_min":79,"x_max":618,"o":"m 225 720 l 225 614 q 419 737 302 737 q 555 684 493 737 q 618 447 618 630 l 618 -273 l 461 -273 l 461 368 q 436 553 461 514 q 366 591 412 591 q 287 559 320 591 q 245 478 254 528 q 236 328 236 429 l 236 0 l 79 0 l 79 720 l 225 720 m 223 808 l 300 1011 l 475 1011 l 322 808 l 223 808 z "},"ί":{"ha":317,"x_min":68,"x_max":320,"o":"m 82 0 l 82 720 l 239 720 l 239 0 l 82 0 m 68 808 l 144 1011 l 320 1011 l 167 808 l 68 808 z "},"ΰ":{"ha":663,"x_min":58,"x_max":602,"o":"m 65 366 l 65 720 l 222 720 l 222 336 q 330 139 222 139 q 440 336 440 139 l 440 720 l 597 720 l 597 366 q 330 -17 597 -17 q 65 366 65 -17 m 229 810 l 288 1011 l 456 1011 l 330 810 l 229 810 m 602 810 l 467 810 l 467 972 l 602 972 l 602 810 m 193 810 l 58 810 l 58 972 l 193 972 l 193 810 z "},"β":{"ha":696,"x_min":81,"x_max":654,"o":"m 472 547 q 607 454 560 527 q 654 278 654 382 q 592 66 654 149 q 433 -17 530 -17 q 237 106 314 -17 l 237 -273 l 81 -273 l 81 659 q 156 919 81 827 q 358 1011 231 1011 q 537 939 465 1011 q 610 754 610 866 q 573 627 610 684 q 472 547 536 570 m 237 640 l 237 404 q 279 205 237 275 q 386 135 321 135 q 463 175 433 135 q 493 281 493 215 q 445 430 493 374 q 307 486 397 486 l 307 591 q 418 634 379 595 q 457 733 457 672 q 426 825 457 789 q 350 860 395 860 q 237 640 237 860 z "},"γ":{"ha":633,"x_min":8,"x_max":623,"o":"m 239 -273 l 239 0 l 8 720 l 172 720 l 283 353 l 315 231 l 349 353 l 461 720 l 623 720 l 396 0 l 396 -273 l 239 -273 z "},"ζ":{"ha":524,"x_min":43,"x_max":514,"o":"m 103 836 l 103 994 l 514 994 l 514 867 q 272 579 349 730 q 196 307 196 428 q 220 212 196 236 q 287 179 245 189 q 396 149 362 162 q 464 92 431 136 q 497 -36 497 47 q 222 -292 497 -294 l 261 -121 q 286 -122 270 -122 q 328 -104 311 -122 q 345 -60 345 -86 q 327 -19 345 -35 q 250 1 309 -3 q 97 93 151 11 q 43 292 43 176 q 321 836 43 543 l 103 836 z "},"η":{"ha":696,"x_min":79,"x_max":618,"o":"m 225 720 l 225 614 q 419 737 302 737 q 555 684 493 737 q 618 447 618 630 l 618 -273 l 461 -273 l 461 368 q 436 553 461 514 q 366 591 412 591 q 287 559 320 591 q 245 478 254 528 q 236 328 236 429 l 236 0 l 79 0 l 79 720 l 225 720 z "},"θ":{"ha":615,"x_min":43,"x_max":572,"o":"m 43 498 q 309 1011 43 1011 q 572 497 572 1011 q 309 -17 572 -17 q 43 498 43 -17 m 204 576 l 411 576 q 384 792 407 729 q 309 856 361 856 q 232 792 255 856 q 204 576 208 728 m 411 418 l 204 418 q 232 203 208 267 q 309 139 255 139 q 384 201 361 139 q 411 418 407 264 z "},"ι":{"ha":317,"x_min":82,"x_max":239,"o":"m 82 0 l 82 720 l 239 720 l 239 0 l 82 0 z "},"κ":{"ha":635,"x_min":79,"x_max":627,"o":"m 79 0 l 79 720 l 236 720 l 236 471 l 418 720 l 608 720 l 371 415 l 627 0 l 444 0 l 271 288 l 236 241 l 236 0 l 79 0 z "},"λ":{"ha":633,"x_min":8,"x_max":623,"o":"m 302 994 l 623 0 l 461 0 l 358 328 q 314 490 340 383 q 269 330 298 426 l 170 0 l 8 0 l 235 720 l 149 994 l 302 994 z "},"μ":{"ha":696,"x_min":77,"x_max":614,"o":"m 469 0 l 469 87 q 350 -17 423 -17 q 233 87 273 -17 l 233 -273 l 77 -273 l 77 720 l 233 720 l 233 395 q 261 194 233 253 q 350 135 288 135 q 428 181 399 135 q 457 307 457 228 l 457 720 l 614 720 l 614 0 l 469 0 z "},"ν":{"ha":633,"x_min":6,"x_max":619,"o":"m 244 0 l 6 720 l 170 720 l 281 353 l 313 230 l 347 353 l 459 720 l 619 720 l 385 0 l 244 0 z "},"ξ":{"ha":507,"x_min":43,"x_max":507,"o":"m 408 689 l 437 689 l 437 533 q 269 468 334 533 q 204 321 204 402 q 231 223 204 251 q 317 171 258 195 q 412 126 376 147 q 478 63 448 106 q 507 -47 507 20 q 440 -219 507 -148 q 224 -292 372 -291 l 260 -121 q 346 -57 346 -118 q 334 -25 346 -39 q 265 5 321 -12 q 82 126 122 50 q 43 285 43 201 q 218 585 43 467 q 69 794 69 639 q 135 952 69 893 q 311 1011 200 1011 l 444 1011 l 444 844 q 378 848 391 848 q 231 764 231 848 q 270 701 231 713 q 408 689 309 689 z "},"ο":{"ha":696,"x_min":45,"x_max":655,"o":"m 45 370 q 87 563 45 476 q 197 693 130 650 q 350 736 265 736 q 574 625 492 736 q 655 364 655 513 q 613 163 655 253 q 502 29 570 74 q 351 -16 433 -16 q 132 84 219 -16 q 45 370 45 184 m 205 360 q 248 195 205 251 q 351 139 291 139 q 452 195 410 139 q 494 361 494 252 q 452 525 494 469 q 349 581 409 581 q 248 525 290 581 q 205 360 205 469 z "},"ρ":{"ha":704,"x_min":65,"x_max":661,"o":"m 65 -273 l 65 315 q 355 737 65 737 q 573 628 486 737 q 661 353 661 519 q 578 90 661 196 q 379 -17 496 -17 q 222 45 297 -17 l 222 -273 l 65 -273 m 363 582 q 260 523 298 582 q 221 361 221 464 q 258 196 221 254 q 359 139 294 139 q 461 199 422 139 q 500 361 500 260 q 464 524 500 466 q 363 582 427 582 z "},"ς":{"ha":591,"x_min":43,"x_max":572,"o":"m 210 -283 l 241 -118 q 322 -135 293 -135 q 381 -115 357 -135 q 404 -64 404 -96 q 372 -8 404 -26 q 281 25 340 11 q 108 135 173 51 q 43 332 43 219 q 148 618 43 496 q 412 739 253 739 q 572 704 496 739 l 541 545 q 424 568 481 568 q 255 499 323 568 q 186 340 186 430 q 223 238 186 273 q 366 169 260 203 q 514 75 471 134 q 557 -62 557 15 q 491 -229 557 -168 q 319 -290 426 -290 q 210 -283 268 -290 z "},"υ":{"ha":663,"x_min":65,"x_max":597,"o":"m 65 366 l 65 720 l 222 720 l 222 336 q 330 139 222 139 q 440 336 440 139 l 440 720 l 597 720 l 597 366 q 330 -17 597 -17 q 65 366 65 -17 z "},"χ":{"ha":656,"x_min":9,"x_max":648,"o":"m 236 228 l 24 720 l 196 720 l 326 387 l 469 720 l 633 720 l 421 228 l 648 -273 l 469 -273 l 326 68 l 179 -273 l 9 -273 l 236 228 z "},"ψ":{"ha":859,"x_min":65,"x_max":793,"o":"m 65 347 l 65 720 l 222 720 l 222 346 q 254 188 222 234 q 350 135 285 141 l 350 720 l 507 720 l 507 135 q 605 188 573 142 q 636 346 636 235 l 636 720 l 793 720 l 793 347 q 723 79 793 165 q 507 -21 653 -7 l 507 -273 l 350 -273 l 350 -21 q 135 77 204 -7 q 65 347 65 162 z "},"ω":{"ha":962,"x_min":43,"x_max":920,"o":"m 403 300 l 403 536 l 559 536 l 559 300 q 648 135 559 135 q 758 349 758 135 q 686 720 758 536 l 835 720 q 920 346 920 530 q 849 83 920 183 q 668 -17 779 -17 q 481 135 533 -17 q 293 -17 428 -17 q 113 83 183 -17 q 43 346 43 183 q 127 720 43 534 l 277 720 q 204 349 204 532 q 313 135 204 135 q 403 300 403 135 z "},"ϊ":{"ha":317,"x_min":-26,"x_max":348,"o":"m 82 0 l 82 720 l 239 720 l 239 0 l 82 0 m -26 848 l -26 1011 l 109 1011 l 109 848 l -26 848 m 214 848 l 214 1011 l 348 1011 l 348 848 l 214 848 z "},"ϋ":{"ha":663,"x_min":65,"x_max":597,"o":"m 65 366 l 65 720 l 222 720 l 222 336 q 330 139 222 139 q 440 336 440 139 l 440 720 l 597 720 l 597 366 q 330 -17 597 -17 q 65 366 65 -17 m 144 848 l 144 1011 l 279 1011 l 279 848 l 144 848 m 384 848 l 384 1011 l 518 1011 l 518 848 l 384 848 z "},"ό":{"ha":696,"x_min":45,"x_max":655,"o":"m 45 370 q 87 563 45 476 q 197 693 130 650 q 350 736 265 736 q 574 625 492 736 q 655 364 655 513 q 613 163 655 253 q 502 29 570 74 q 351 -16 433 -16 q 132 84 219 -16 q 45 370 45 184 m 205 360 q 248 195 205 251 q 351 139 291 139 q 452 195 410 139 q 494 361 494 252 q 452 525 494 469 q 349 581 409 581 q 248 525 290 581 q 205 360 205 469 m 241 808 l 318 1011 l 494 1011 l 340 808 l 241 808 z "},"ύ":{"ha":663,"x_min":65,"x_max":597,"o":"m 65 366 l 65 720 l 222 720 l 222 336 q 330 139 222 139 q 440 336 440 139 l 440 720 l 597 720 l 597 366 q 330 -17 597 -17 q 65 366 65 -17 m 230 808 l 307 1011 l 482 1011 l 329 808 l 230 808 z "},"ώ":{"ha":962,"x_min":43,"x_max":920,"o":"m 403 300 l 403 536 l 559 536 l 559 300 q 648 135 559 135 q 758 349 758 135 q 686 720 758 536 l 835 720 q 920 346 920 530 q 849 83 920 183 q 668 -17 779 -17 q 481 135 533 -17 q 293 -17 428 -17 q 113 83 183 -17 q 43 346 43 183 q 127 720 43 534 l 277 720 q 204 349 204 532 q 313 135 204 135 q 403 300 403 135 m 368 808 l 445 1011 l 621 1011 l 467 808 l 368 808 z "},"Ё":{"ha":760,"x_min":83,"x_max":703,"o":"m 83 0 l 83 994 l 688 994 l 688 826 l 248 826 l 248 606 l 657 606 l 657 438 l 248 438 l 248 168 l 703 168 l 703 0 l 83 0 m 198 1100 l 198 1263 l 332 1263 l 332 1100 l 198 1100 m 437 1100 l 437 1263 l 572 1263 l 572 1100 l 437 1100 z "},"Ђ":{"ha":1008,"x_min":26,"x_max":964,"o":"m 268 0 l 268 827 l 26 827 l 26 994 l 673 994 l 673 827 l 432 827 l 432 603 q 661 671 559 671 q 881 577 798 671 q 964 330 964 484 q 886 86 964 178 q 692 -7 808 -7 q 583 12 637 -7 l 608 179 q 679 157 648 157 q 770 203 732 157 q 807 317 807 249 q 763 440 807 392 q 647 489 720 489 q 432 410 553 489 l 432 0 l 268 0 z "},"Ѓ":{"ha":685,"x_min":86,"x_max":660,"o":"m 86 0 l 86 986 l 660 986 l 660 818 l 250 818 l 250 0 l 86 0 m 292 1061 l 369 1264 l 545 1264 l 391 1061 l 292 1061 z "},"Є":{"ha":810,"x_min":49,"x_max":761,"o":"m 224 581 l 478 581 l 478 412 l 224 412 q 286 220 236 286 q 412 154 335 154 q 535 209 486 154 q 596 366 585 264 l 761 302 q 421 -17 696 -17 q 144 131 239 -17 q 49 492 49 279 q 151 871 49 732 q 427 1011 254 1011 q 644 936 557 1011 q 760 720 732 861 l 596 675 q 422 840 553 840 q 289 773 342 840 q 224 581 236 705 z "},"Ѕ":{"ha":760,"x_min":41,"x_max":704,"o":"m 41 323 l 202 342 q 380 152 229 152 q 497 191 454 152 q 540 288 540 230 q 525 345 540 321 q 479 384 510 369 q 332 435 449 399 q 178 505 227 467 q 100 603 129 542 q 71 733 71 663 q 108 880 71 814 q 210 978 145 945 q 371 1011 275 1011 q 595 933 515 1011 q 681 710 676 855 l 516 701 q 469 813 505 781 q 367 845 433 845 q 264 817 300 845 q 229 748 229 789 q 261 680 229 707 q 411 618 294 652 q 590 543 535 583 q 675 440 646 503 q 704 288 704 378 q 624 71 704 159 q 375 -18 545 -18 q 41 323 75 -18 z "},"І":{"ha":317,"x_min":78,"x_max":242,"o":"m 78 0 l 78 994 l 242 994 l 242 0 l 78 0 z "},"Ї":{"ha":317,"x_min":-26,"x_max":347,"o":"m 78 0 l 78 994 l 242 994 l 242 0 l 78 0 m -26 1099 l -26 1263 l 108 1263 l 108 1099 l -26 1099 m 213 1099 l 213 1263 l 347 1263 l 347 1099 l 213 1099 z "},"Ј":{"ha":633,"x_min":20,"x_max":542,"o":"m 377 994 l 542 994 l 542 365 q 511 138 542 212 q 420 23 481 63 q 271 -17 359 -17 q 87 64 153 -17 q 20 307 20 144 l 175 329 q 197 205 178 241 q 277 155 224 155 q 353 191 328 155 q 377 352 377 227 l 377 994 z "},"Љ":{"ha":1246,"x_min":16,"x_max":1193,"o":"m 514 0 l 514 827 l 288 827 l 288 310 q 272 130 288 193 q 212 31 256 67 q 102 -5 168 -5 q 16 0 73 -5 l 16 167 q 77 158 65 158 q 114 177 104 158 q 123 260 123 197 l 123 994 l 677 994 l 677 599 l 911 599 q 1117 515 1041 599 q 1193 294 1193 431 q 1129 89 1193 177 q 911 0 1065 0 l 514 0 m 677 431 l 677 168 l 851 168 q 949 177 919 168 q 1001 220 979 186 q 1023 298 1023 254 q 857 431 1023 431 l 677 431 z "},"Њ":{"ha":1211,"x_min":87,"x_max":1154,"o":"m 639 994 l 639 603 l 871 603 q 1078 519 1002 603 q 1154 296 1154 435 q 1092 90 1154 180 q 872 0 1029 0 l 475 0 l 475 435 l 252 435 l 252 0 l 87 0 l 87 994 l 252 994 l 252 603 l 475 603 l 475 994 l 639 994 m 639 435 l 639 168 l 811 168 q 909 177 879 168 q 962 221 939 186 q 985 300 985 255 q 818 435 985 435 l 639 435 z "},"Ћ":{"ha":996,"x_min":31,"x_max":916,"o":"m 31 827 l 31 994 l 677 994 l 677 827 l 436 827 l 436 623 q 637 672 547 672 q 764 645 707 672 q 859 567 821 617 q 906 465 897 517 q 916 321 916 412 l 916 0 l 751 0 l 751 271 q 711 458 751 416 q 600 501 671 501 q 436 450 515 501 l 436 0 l 272 0 l 272 827 l 31 827 z "},"Ќ":{"ha":696,"x_min":86,"x_max":686,"o":"m 86 0 l 86 994 l 250 994 l 250 571 q 326 608 305 578 q 382 753 347 638 q 454 921 416 869 q 533 985 491 974 q 677 1002 575 997 l 677 852 l 654 852 q 560 820 585 852 q 509 696 535 788 q 464 573 483 604 q 404 513 446 543 q 493 440 458 490 q 575 272 527 390 l 686 0 l 493 0 l 395 257 q 331 394 357 355 q 250 435 304 433 l 250 0 l 86 0 m 271 1061 l 348 1263 l 524 1263 l 370 1061 l 271 1061 z "},"Ў":{"ha":708,"x_min":0,"x_max":708,"o":"m 300 281 l 0 994 l 184 994 l 374 478 l 538 994 l 708 994 l 433 239 q 335 44 382 100 q 221 -12 288 -12 q 107 0 157 -12 l 107 149 q 169 146 148 146 q 253 171 229 146 q 300 281 277 196 m 456 1258 l 532 1258 q 478 1112 526 1163 q 359 1061 430 1061 q 240 1112 288 1061 q 185 1258 192 1163 l 261 1258 q 359 1160 270 1160 q 456 1258 448 1160 z "},"Џ":{"ha":819,"x_min":85,"x_max":733,"o":"m 733 0 l 476 0 l 476 -273 l 342 -273 l 342 0 l 85 0 l 85 994 l 249 994 l 249 168 l 570 168 l 570 994 l 733 994 l 733 0 z "},"А":{"ha":822,"x_min":0,"x_max":818,"o":"m 818 0 l 639 0 l 568 226 l 242 226 l 175 0 l 0 0 l 317 994 l 492 994 l 818 0 m 515 393 l 403 762 l 292 393 l 515 393 z "},"Б":{"ha":819,"x_min":86,"x_max":766,"o":"m 86 0 l 86 994 l 696 994 l 696 827 l 250 827 l 250 599 l 484 599 q 691 516 616 599 q 766 298 766 434 q 702 90 766 180 q 484 0 638 0 l 86 0 m 250 431 l 250 168 l 424 168 q 522 177 492 168 q 575 220 552 186 q 597 297 597 253 q 431 431 597 431 l 250 431 z "},"В":{"ha":822,"x_min":83,"x_max":766,"o":"m 83 994 l 409 994 q 597 970 543 994 q 688 884 651 945 q 726 744 726 822 q 694 614 726 672 q 611 528 662 556 q 725 440 684 503 q 766 288 766 378 q 713 105 766 180 q 590 12 661 30 q 360 0 541 0 l 83 0 l 83 994 m 247 829 l 247 599 l 355 599 q 476 602 453 599 q 542 638 518 609 q 566 716 566 667 q 546 788 566 760 q 499 822 527 815 q 342 829 472 829 l 247 829 m 247 433 l 247 168 l 399 168 q 528 178 500 168 q 576 219 557 189 q 595 298 595 250 q 575 378 595 347 q 520 421 554 410 q 380 433 486 433 l 247 433 z "},"Г":{"ha":685,"x_min":86,"x_max":660,"o":"m 86 0 l 86 986 l 660 986 l 660 818 l 250 818 l 250 0 l 86 0 z "},"Д":{"ha":811,"x_min":-3,"x_max":782,"o":"m 711 168 l 782 168 l 782 -216 l 647 -216 l 647 0 l 132 0 l 132 -216 l -3 -216 l -3 168 l 65 168 q 127 420 105 273 q 149 861 149 568 l 149 994 l 711 994 l 711 168 m 547 827 l 304 827 q 237 168 304 387 l 547 168 l 547 827 z "},"Е":{"ha":760,"x_min":83,"x_max":703,"o":"m 83 0 l 83 994 l 688 994 l 688 826 l 248 826 l 248 606 l 657 606 l 657 438 l 248 438 l 248 168 l 703 168 l 703 0 l 83 0 z "},"Ж":{"ha":1029,"x_min":12,"x_max":1017,"o":"m 436 994 l 593 994 l 593 571 q 659 611 637 576 q 721 779 680 646 q 813 957 762 913 q 1008 1002 864 1001 l 1008 852 l 985 852 q 890 820 915 852 q 837 688 866 788 q 787 561 808 587 q 734 513 766 534 q 817 447 781 494 q 905 272 853 401 l 1017 0 l 823 0 l 725 257 q 663 391 692 344 q 593 435 635 437 l 593 0 l 436 0 l 436 435 q 371 398 399 436 q 304 257 344 361 l 205 0 l 12 0 l 123 272 q 207 440 172 390 q 294 513 241 490 q 235 572 253 543 q 189 698 217 601 q 134 826 161 795 q 21 852 107 857 l 21 1002 q 216 957 165 1003 q 309 778 267 910 q 371 610 350 646 q 436 571 392 575 l 436 994 z "},"З":{"ha":713,"x_min":25,"x_max":653,"o":"m 319 418 l 283 418 l 283 568 q 456 720 456 559 q 422 812 456 778 q 330 847 389 847 q 200 722 230 847 l 40 768 q 334 1011 90 1011 q 545 939 465 1011 q 625 753 625 867 q 490 525 625 611 q 653 275 653 454 q 571 61 653 139 q 338 -17 488 -17 q 138 34 210 -17 q 25 229 65 85 l 176 290 q 235 176 199 205 q 334 147 271 147 q 443 184 402 147 q 484 282 484 221 q 440 382 484 346 q 319 418 397 418 z "},"И":{"ha":819,"x_min":83,"x_max":734,"o":"m 83 0 l 83 994 l 240 994 l 240 332 l 570 994 l 734 994 l 734 0 l 578 0 l 578 648 l 249 0 l 83 0 z "},"Й":{"ha":819,"x_min":83,"x_max":734,"o":"m 83 0 l 83 994 l 240 994 l 240 332 l 570 994 l 734 994 l 734 0 l 578 0 l 578 648 l 249 0 l 83 0 m 510 1258 l 586 1258 q 532 1112 580 1163 q 413 1061 484 1061 q 294 1112 342 1061 q 239 1258 246 1163 l 315 1258 q 413 1160 324 1160 q 510 1258 502 1160 z "},"К":{"ha":696,"x_min":86,"x_max":686,"o":"m 86 0 l 86 994 l 250 994 l 250 571 q 326 608 305 578 q 382 753 347 638 q 454 921 416 869 q 533 985 491 974 q 677 1002 575 997 l 677 852 l 654 852 q 560 820 585 852 q 509 696 535 788 q 464 573 483 604 q 404 513 446 543 q 493 440 458 490 q 575 272 527 390 l 686 0 l 493 0 l 395 257 q 331 394 357 355 q 250 435 304 433 l 250 0 l 86 0 z "},"Л":{"ha":800,"x_min":18,"x_max":713,"o":"m 549 0 l 549 827 l 304 827 l 304 401 q 295 156 304 235 q 247 35 285 76 q 122 -7 208 -7 q 18 0 97 -7 l 18 157 l 54 157 q 124 174 107 157 q 140 260 140 191 l 140 994 l 713 994 l 713 0 l 549 0 z "},"М":{"ha":949,"x_min":81,"x_max":868,"o":"m 81 0 l 81 994 l 327 994 l 475 316 l 621 994 l 868 994 l 868 0 l 715 0 l 715 783 l 553 0 l 395 0 l 234 783 l 234 0 l 81 0 z "},"Н":{"ha":822,"x_min":83,"x_max":735,"o":"m 83 0 l 83 994 l 248 994 l 248 603 l 570 603 l 570 994 l 735 994 l 735 0 l 570 0 l 570 435 l 248 435 l 248 0 l 83 0 z "},"О":{"ha":886,"x_min":50,"x_max":841,"o":"m 50 491 q 103 784 50 669 q 240 955 155 899 q 446 1011 325 1011 q 731 878 621 1011 q 841 497 841 744 q 724 107 841 248 q 446 -17 622 -17 q 167 106 269 -17 q 50 491 50 246 m 220 498 q 285 240 220 326 q 446 155 350 155 q 607 240 543 155 q 671 501 671 325 q 609 757 671 674 q 446 840 547 840 q 283 756 346 840 q 220 498 220 673 z "},"П":{"ha":822,"x_min":85,"x_max":736,"o":"m 249 0 l 85 0 l 85 994 l 736 994 l 736 0 l 572 0 l 572 827 l 249 827 l 249 0 z "},"Р":{"ha":760,"x_min":83,"x_max":707,"o":"m 83 0 l 83 994 l 347 994 q 541 980 495 994 q 660 882 613 957 q 707 688 707 806 q 667 507 707 580 q 565 405 626 434 q 355 375 504 375 l 247 375 l 247 0 l 83 0 m 247 826 l 247 544 l 338 544 q 462 557 429 544 q 516 603 495 570 q 537 686 537 637 q 515 769 537 735 q 462 814 494 803 q 327 826 430 826 l 247 826 z "},"С":{"ha":822,"x_min":54,"x_max":764,"o":"m 605 366 l 764 304 q 640 60 727 137 q 427 -17 553 -17 q 168 106 267 -17 q 54 488 54 248 q 169 886 54 743 q 437 1011 269 1011 q 666 918 574 1011 q 762 720 732 851 l 600 673 q 537 797 584 753 q 428 840 491 840 q 281 761 338 840 q 224 501 224 682 q 279 234 224 313 q 424 155 335 155 q 536 205 489 155 q 605 366 584 256 z "},"Т":{"ha":696,"x_min":24,"x_max":672,"o":"m 267 0 l 267 826 l 24 826 l 24 994 l 672 994 l 672 826 l 431 826 l 431 0 l 267 0 z "},"У":{"ha":708,"x_min":0,"x_max":708,"o":"m 300 281 l 0 994 l 184 994 l 374 478 l 538 994 l 708 994 l 433 239 q 335 44 382 100 q 221 -12 288 -12 q 107 0 157 -12 l 107 149 q 169 146 148 146 q 253 171 229 146 q 300 281 277 196 z "},"Ф":{"ha":971,"x_min":49,"x_max":924,"o":"m 567 994 l 567 896 q 924 505 924 878 q 567 115 924 133 l 567 0 l 403 0 l 403 115 q 49 505 49 132 q 403 896 49 879 l 403 994 l 567 994 m 567 728 l 567 283 q 762 509 762 283 q 567 728 762 728 m 403 283 l 403 728 q 210 504 210 728 q 403 283 210 283 z "},"Х":{"ha":760,"x_min":1,"x_max":759,"o":"m 1 0 l 279 519 l 26 994 l 219 994 l 382 675 l 543 994 l 733 994 l 480 511 l 759 0 l 560 0 l 379 344 l 198 0 l 1 0 z "},"Ц":{"ha":832,"x_min":86,"x_max":802,"o":"m 734 168 l 802 168 l 802 -216 l 667 -216 l 667 0 l 86 0 l 86 994 l 250 994 l 250 168 l 571 168 l 571 994 l 734 994 l 734 168 z "},"Ч":{"ha":800,"x_min":69,"x_max":714,"o":"m 69 639 l 69 994 l 233 994 l 233 730 q 240 607 233 648 q 280 539 248 567 q 383 511 313 511 q 550 566 488 511 l 550 994 l 714 994 l 714 0 l 550 0 l 550 400 q 355 347 453 347 q 144 424 220 347 q 69 639 69 500 z "},"Ш":{"ha":1145,"x_min":86,"x_max":1059,"o":"m 86 0 l 86 994 l 250 994 l 250 168 l 488 168 l 488 994 l 652 994 l 652 168 l 895 168 l 895 994 l 1059 994 l 1059 0 l 86 0 z "},"Щ":{"ha":1161,"x_min":86,"x_max":1131,"o":"m 1059 168 l 1131 168 l 1131 -216 l 996 -216 l 996 0 l 86 0 l 86 994 l 250 994 l 250 168 l 488 168 l 488 994 l 652 994 l 652 168 l 895 168 l 895 994 l 1059 994 l 1059 168 z "},"Ъ":{"ha":990,"x_min":14,"x_max":937,"o":"m 14 827 l 14 994 l 422 994 l 422 599 l 654 599 q 861 515 784 599 q 937 296 937 431 q 873 92 937 184 q 654 0 810 0 l 258 0 l 258 827 l 14 827 m 422 431 l 422 168 l 595 168 q 695 178 664 168 q 747 221 726 189 q 768 297 768 254 q 602 431 768 431 l 422 431 z "},"Ы":{"ha":1136,"x_min":86,"x_max":1061,"o":"m 86 0 l 86 994 l 250 994 l 250 599 l 484 599 q 690 515 614 599 q 766 294 766 431 q 705 91 766 182 q 485 0 643 0 l 86 0 m 250 431 l 250 168 l 424 168 q 522 177 492 168 q 575 220 552 186 q 597 298 597 254 q 431 431 597 431 l 250 431 m 897 0 l 897 994 l 1061 994 l 1061 0 l 897 0 z "},"Ь":{"ha":819,"x_min":86,"x_max":766,"o":"m 86 0 l 86 994 l 250 994 l 250 599 l 484 599 q 690 515 614 599 q 766 294 766 431 q 705 91 766 182 q 485 0 643 0 l 86 0 m 250 431 l 250 168 l 424 168 q 522 177 492 168 q 575 220 552 186 q 597 298 597 254 q 431 431 597 431 l 250 431 z "},"Э":{"ha":810,"x_min":49,"x_max":761,"o":"m 332 412 l 332 581 l 587 581 q 522 773 575 705 q 389 840 469 840 q 214 675 257 840 l 52 720 q 166 936 79 861 q 383 1011 254 1011 q 658 871 555 1011 q 761 492 761 731 q 660 122 761 260 q 392 -17 559 -17 q 49 302 113 -17 l 214 366 q 275 209 226 263 q 397 154 324 154 q 587 412 559 154 l 332 412 z "}}}
